<?xml version="1.0" encoding="UTF-8" standalone="no"?>
<!-- Created with Inkscape (http://www.inkscape.org/) -->

<svg
   version="1.1"
   id="svg1"
   width="1200"
   height="154"
   viewBox="0 0 1200 154"
   xmlns="http://www.w3.org/2000/svg"
   xmlns:svg="http://www.w3.org/2000/svg">
  <defs
     id="defs1" />
  <g
     id="g1">
    <path
       style="fill:#FFF"
       d="m 627.7934,148.38401 c -8.07057,0.41797 -9.36224,0.24989 -10.86826,-1.41426 -0.94004,-1.03872 -1.90547,-3.81935 -2.1454,-6.17917 -0.23993,-2.35982 -1.73229,-29.01264 -3.31635,-59.228494 -1.84106,-35.118044 -2.54331,-55.567225 -1.94656,-56.682276 0.51346,-0.959398 1.72153,-1.96556 2.68462,-2.235915 0.96308,-0.270355 7.4689,-0.795009 14.45737,-1.165898 12.70631,-0.674343 12.70631,-0.674343 13.27975,1.67383 0.31539,1.291495 2.09554,28.889094 3.95588,61.327998 2.1258,37.067855 3.04257,59.614855 2.46765,60.689115 -0.55606,1.03899 -2.58042,1.91153 -5.16219,2.22501 -2.33607,0.28365 -8.369,0.72917 -13.40651,0.99006 z m 93.40911,-0.5348 c -3.9875,-0.0829 -14.77266,-0.64543 -23.96702,-1.25 -13.0975,-0.86121 -17.07085,-1.45362 -18.35115,-2.73607 -1.5122,-1.51473 -1.41018,-4.97307 1.36722,-46.350193 1.95439,-29.11621 3.40973,-45.114412 4.17212,-45.863139 0.88534,-0.869464 1.59604,-0.629886 2.91489,0.982606 0.95925,1.172828 10.60231,21.977125 21.42902,46.231771 10.8267,24.254645 19.68492,45.232565 19.68492,46.617585 0,2.47328 -0.12942,2.51554 -7.25,2.36744 z m -596.96788,-3.05276 c -3.45517,-0.11195 -10.01586,-0.35549 -14.57931,-0.5412 -6.15952,-0.25067 -8.44297,-0.71752 -8.86298,-1.81206 -0.33719,-0.87868 1.06732,-3.2461 3.47616,-5.85938 2.22306,-2.41174 4.92426,-6.11722 6.00266,-8.2344 1.0784,-2.11717 2.68537,-6.29359 3.57104,-9.28091 0.88567,-2.98733 1.61031,-8.73902 1.61031,-12.78155 0,-4.79485 -0.72193,-9.493079 -2.07666,-13.514531 -1.14217,-3.390469 -3.66136,-8.551928 -5.59821,-11.46991 -1.93684,-2.917981 -5.55905,-7.098912 -8.049347,-9.290957 -2.490295,-2.192045 -6.857244,-5.087536 -9.704332,-6.434424 -2.847088,-1.346888 -7.357499,-2.998064 -10.023135,-3.669279 -4.223016,-1.063367 -4.998519,-1.012646 -6.027236,0.394208 -0.649343,0.888029 -1.703876,6.406743 -2.343408,12.263808 -0.639531,5.857065 -0.922495,11.038005 -0.628808,11.5132 0.293686,0.475195 2.636395,1.793991 5.206019,2.930658 2.569625,1.136667 5.52387,2.836979 6.56499,3.778472 1.04112,0.941493 2.745061,3.381378 3.786536,5.421967 1.041474,2.040588 1.89359,5.767538 1.89359,8.282118 0,2.51458 -0.60797,6.02703 -1.351044,7.80546 -0.743075,1.77843 -2.985614,4.66868 -4.98342,6.42277 -1.997807,1.7541 -5.45672,3.73586 -7.686474,4.40391 -3.098404,0.9283 -5.487727,0.94803 -10.13562,0.0837 -3.344838,-0.62204 -8.976181,-2.48555 -12.514096,-4.14114 -4.088756,-1.91336 -8.607809,-5.1854 -12.402477,-8.98007 -4.123797,-4.1238 -7.122882,-8.38456 -9.698386,-13.778387 -3.663701,-7.672852 -4.910953,-13.505018 -4.719841,-19.857102 0.209473,-6.96236 1.059418,-12.093953 4.699454,-19.716974 2.165889,-4.535841 5.81618,-9.994542 8.776797,-13.124957 2.787786,-2.947673 7.809919,-6.820459 11.160296,-8.606191 3.350377,-1.785733 8.400819,-3.861661 11.223203,-4.613174 2.822384,-0.751513 8.056608,-1.36393 11.631608,-1.360927 3.575,0.003 10.753216,0.453374 15.951592,1.000825 7.785044,0.819857 9.700656,0.7463 10.864127,-0.41717 0.833912,-0.833909 1.817342,-5.242702 2.400742,-10.762694 0.54351,-5.142587 1.44726,-9.912659 2.00832,-10.600159 0.56106,-0.6875 2.20251,-1.2595574 3.64767,-1.2712387 1.44515,-0.011681 18.60255,1.6204147 38.12755,3.6268797 19.525,2.006465 36.94648,4.236368 38.71441,4.955341 2.09878,0.853522 3.44681,2.233184 3.88401,3.975144 0.53175,2.118637 -3.814,13.095554 -21.10767,53.315897 -11.97751,27.856387 -23.48993,54.373877 -25.58316,58.927757 -3.23404,7.03571 -4.33459,8.50068 -7.32462,9.75 -2.08296,0.87032 -6.08207,1.38717 -9.80085,1.26667 z m 152.83302,0.17175 c -3.36333,-0.0175 -6.82395,-0.58 -7.69028,-1.25 -0.86633,-0.67001 -2.29309,-2.3432 -3.17059,-3.7182 -0.8775,-1.375 -9.31168,-28.70626 -18.74262,-60.736123 -9.43095,-32.029867 -17.00418,-59.476543 -16.82941,-60.992612 0.20364,-1.766567 1.21557,-3.184065 2.81776,-3.947095 1.95228,-0.929757 8.19632,-0.851537 28.5,0.357023 15.92634,0.948002 27.26167,2.065732 29.25636,2.884849 1.791,0.735471 3.66894,2.422386 4.17321,3.7487 0.50426,1.326314 0.7254,4.16058 0.49142,6.298369 C 295.63952,29.7509 294.30122,54.675 292.89949,83 c -1.40173,28.325 -3.00831,52.95546 -3.57018,54.73436 -0.56187,1.7789 -2.17469,4.1414 -3.58405,5.25 -1.9487,1.53285 -4.02717,2.00802 -8.67761,1.98384 z m 285.0791,-0.0316 c -5.60683,-0.0349 -11.13517,-0.44388 -12.2852,-0.90894 -1.15003,-0.46506 -2.66751,-2.23745 -3.37217,-3.93865 -1.04827,-2.53075 -0.98697,-11.04671 0.33718,-46.841055 0.89011,-24.061381 1.90621,-49.546595 2.25801,-56.633809 0.53056,-10.688476 0.95752,-13.203731 2.50378,-14.75 C 553.18899,20.263518 555.06249,20 564.84173,20 c 9.60923,0 11.74783,0.29039 13.68381,1.858056 2.29461,1.858057 2.29461,1.858057 0.60585,60.25 C 577.44263,140.5 577.44263,140.5 574.89181,142.75 c -2.30182,2.03036 -3.54598,2.24381 -12.74506,2.18661 z m 344.57481,0.0218 c -3.69126,0.0362 -4.31072,-0.2763 -4.85637,-2.45033 -0.5249,-2.09138 0.47672,-3.67202 6.23217,-9.83491 3.77168,-4.03867 8.06062,-9.55483 9.53099,-12.25812 1.47038,-2.7033 3.88095,-8.51429 5.35684,-12.91331 1.84551,-5.50071 2.84803,-10.985072 3.21052,-17.563486 0.30444,-5.524936 0.0202,-12.475985 -0.67294,-16.456257 -0.66001,-3.79005 -2.27542,-9.969028 -3.5898,-13.731062 -1.31437,-3.762034 -3.95938,-9.42392 -5.87779,-12.581969 -1.91842,-3.158048 -6.42212,-8.559368 -10.00824,-12.002933 -4.67198,-4.486266 -8.94015,-7.395051 -15.05732,-10.261652 -6.29513,-2.949947 -8.53711,-4.497084 -8.53711,-5.8912 0,-1.468776 0.94829,-2.016969 4.25,-2.456866 2.3375,-0.311432 17.02386,-1.713602 32.63637,-3.115933 15.6125,-1.40233 28.97481,-2.323885 29.69402,-2.047899 0.7192,0.275987 1.79163,2.213084 2.38317,4.30466 0.59154,2.091577 3.31673,28.760713 6.05598,59.264746 2.73925,30.504031 4.98046,57.111431 4.98046,59.127551 0,2.15425 -0.66581,4.21826 -1.61479,5.00584 -1.05388,0.87464 -9.9983,2.11849 -25.75,3.58089 -13.27437,1.2324 -26.03914,2.25943 -28.36616,2.28229 z m 160.73094,-0.62259 c -5.9426,0.33235 -10.3507,0.12087 -11.7717,-0.56477 -1.2495,-0.60283 -2.4624,-2.03544 -2.6954,-3.18355 -0.2331,-1.14812 -0.6917,-4.16423 -1.0193,-6.70246 -0.3276,-2.53824 -1.2152,-5.46324 -1.9725,-6.5 -1.278,-1.74969 -3.4555,-1.92221 -30.3268,-2.40289 -22.27534,-0.39847 -29.32626,-0.83017 -30.58212,-1.87245 -1.39459,-1.1574 -1.63217,-3.87551 -1.63217,-18.67312 0,-12.756686 0.32926,-17.531638 1.25,-18.127553 C 989.39001,85.864058 1004.1275,85.5 1021.4525,85.5 h 31.5 v -10 -10 l -30.9762,-0.815281 c -19.0786,-0.502141 -31.46543,-1.221325 -32.24999,-1.872445 -0.90493,-0.75103 -1.2738,-4.605993 -1.2738,-13.312274 0,-9.829332 0.30566,-12.508783 1.54418,-13.53667 1.22032,-1.012775 7.72866,-1.139482 31.03151,-0.604136 20.0019,0.45951 30.1206,0.338536 31.4558,-0.376069 1.6807,-0.899453 1.9685,-2.115737 1.9685,-8.318309 0,-4.317079 0.4869,-7.751722 1.2,-8.464816 0.8019,-0.801944 5.2395,-1.2 13.3776,-1.2 9.6546,0 12.4378,0.313669 13.434,1.514019 0.9931,1.196511 1.1162,12.887909 0.5872,55.75 -0.3681,29.829791 -0.9354,56.639651 -1.2607,59.577461 -0.3788,3.42112 -1.3548,6.17224 -2.7148,7.65225 -1.8478,2.01091 -3.3561,2.37971 -11.6233,2.84208 z m -886.99999,-0.39104 c -0.275,-0.0394 -1.49904,-0.47354 -2.72008,-0.96486 -1.22105,-0.49133 -2.52234,-2.09759 -2.89176,-3.56947 -0.36941,-1.47188 0.0686,-6.10387 0.97331,-10.2933 0.90473,-4.18942 2.12019,-9.32464 2.70102,-11.41159 0.78392,-2.81663 1.87829,-4.15274 4.24679,-5.18484 1.75489,-0.76472 11.8969,-2.13122 22.53779,-3.03667 15.57074,-1.32493 19.92644,-1.40628 22.31535,-0.41676 2.33104,0.96554 3.99632,3.29079 7.75695,10.83111 2.63376,5.28088 5.07635,10.79297 5.42797,12.24908 0.43538,1.80301 0.0832,3.2986 -1.10402,4.68884 -1.57009,1.83852 -4.57529,2.29667 -30.24332,4.61068 -15.675,1.41312 -28.725,2.53712 -29,2.49778 z m 157,-1.02732 c -3.025,0.0104 -6.19565,-0.52925 -7.04589,-1.19925 -0.85024,-0.67001 -2.31274,-2.33083 -3.25,-3.69071 -1.42053,-2.06105 -1.70411,-4.97779 -1.70411,-17.52749 0,-12.30001 0.29841,-15.48102 1.63069,-17.38313 0.89688,-1.28047 3.13243,-2.9556 4.96788,-3.722503 1.83546,-0.766902 6.16415,-1.402181 9.61931,-1.411731 3.45517,-0.0096 9.2661,-0.649849 12.91319,-1.422888 3.64709,-0.773038 9.02294,-2.617577 11.94634,-4.098974 2.9234,-1.481397 7.81441,-5.228597 10.86893,-8.327112 3.05451,-3.098514 6.5437,-7.662982 7.75375,-10.143262 1.21005,-2.48028 2.89755,-7.187325 3.75,-10.460099 0.85245,-3.272774 1.54991,-7.56141 1.54991,-9.530301 0,-1.968891 -0.6984,-6.261847 -1.552,-9.539901 C 388.04691,41.182044 386.19309,36.475 384.78091,34 c -1.41217,-2.475 -5.49742,-7.308231 -9.07831,-10.740514 -5.20727,-4.991158 -6.28007,-6.518436 -5.35861,-7.628727 0.87522,-1.05458 6.0979,-1.564828 21.731,-2.12309 17.57308,-0.627538 20.79638,-0.517381 22.06794,0.754177 1.25412,1.254122 1.70064,10.914582 2.83019,61.230329 0.75469,33.617995 0.96758,60.723785 0.48686,61.988165 -0.46984,1.23579 -1.67623,2.57721 -2.68087,2.98094 -1.00463,0.40372 -17.5766,1.11726 -36.8266,1.58564 -19.25,0.46838 -37.475,0.86012 -40.5,0.87053 z m 122.5,-0.51585 c -3.85,0.23937 -7.98308,0.0473 -9.18463,-0.42679 -1.20154,-0.4741 -2.67255,-1.77369 -3.2689,-2.88799 -0.60993,-1.13965 -1.96473,-18.9917 -3.09683,-40.806402 C 443.29524,76.951188 442.63732,58.4875 442.9401,57.25 c 0.30278,-1.2375 0.9863,-2.25 1.51892,-2.25 0.53262,0 2.01753,1.6875 3.2998,3.75 1.28226,2.0625 7.17451,12.975 13.09389,24.25 6.53318,12.444159 12.10014,21.77715 14.16646,23.75 1.87733,1.79242 4.46545,3.25 5.77077,3.25 1.30174,0 3.86376,-1.0125 5.69337,-2.25 2.8972,-1.95959 4.64437,-5.3817 13.53641,-26.513219 5.61541,-13.34477 10.76511,-24.93227 11.44376,-25.75 C 512.14214,54.669052 513.3173,54 514.07495,54 c 0.75766,0 1.43194,0.1125 1.49839,0.25 0.0665,0.1375 1.12679,17.8 2.35629,39.25 1.95365,34.08351 2.05467,39.29417 0.80139,41.33353 -0.78874,1.28343 -2.94498,2.96482 -4.79165,3.73641 -2.21249,0.92444 -10.79732,1.74283 -25.17222,2.39967 -11.99805,0.54823 -24.96464,1.19263 -28.81464,1.43199 z M 784.62796,141 c -8.07736,0 -11.27803,-0.38355 -12.94521,-1.55128 -1.21812,-0.85321 -2.66107,-2.38522 -3.20656,-3.40447 -0.56458,-1.05493 -1.66942,-26.29949 -2.56491,-58.605828 -1.34337,-48.46378 -1.37001,-56.955749 -0.18246,-58.143307 0.98906,-0.989061 5.41731,-1.562881 15.33389,-1.986997 13.67705,-0.584945 13.99633,-0.550628 16.72608,1.797777 2.78287,2.394105 2.78287,2.394105 4.24002,57.707726 1.31855,50.052339 1.3083,55.627299 -0.10776,58.611439 -0.86071,1.81381 -2.68941,3.81018 -4.06378,4.43638 C 796.48289,140.48765 790.52971,141 784.62796,141 Z m 340.07454,-0.002 c -2.9007,0.002 -4.8769,-0.62464 -6.2246,-1.97229 -1.086,-1.08601 -2.2299,-2.99851 -2.542,-4.25 -0.3121,-1.25149 -1.1493,-10.37544 -1.8605,-20.27544 -0.7111,-9.9 -0.9267,-18.740167 -0.479,-19.644816 0.4476,-0.904649 2.2405,-2.142149 3.9842,-2.75 1.7437,-0.607851 5.9157,-1.095301 9.2711,-1.083222 3.8146,0.01373 7.5997,0.720604 10.1008,1.886318 2.4834,1.157465 11.1093,9.03944 22.75,20.78791 12.1866,12.29936 18.5063,19.66963 18.75,20.99123 0.3682,1.99629 0.2697,2.49549 -1.3098,3.1547 -0.9281,0.38736 -10.9002,1.50973 -24.75,2.12017 -12.8921,0.56824 -25.3527,1.03419 -27.6902,1.03544 z M 855.75077,127.3967 c -5.38904,0.22719 -13.07798,0.11837 -17.08652,-0.24181 -4.82258,-0.43334 -7.60845,-1.16235 -8.23469,-2.15489 -0.52053,-0.825 -0.94753,-3.525 -0.94888,-6 -10e-4,-2.475 0.87624,-21.185239 1.95019,-41.578309 1.07395,-20.393069 2.26565,-37.893991 2.64821,-38.890937 0.63755,-1.661418 1.67231,-1.757429 12.40413,-1.150924 6.43971,0.363937 14.35473,1.337088 17.58893,2.162556 3.2342,0.825469 8.66354,2.854882 12.06519,4.509807 3.82482,1.860799 7.90629,4.923643 10.69625,8.026749 2.52852,2.812329 5.4445,7.511663 6.63432,10.691751 1.1676,3.120676 2.51573,9.118241 2.99586,13.327923 0.51622,4.526188 0.49428,10.327833 -0.0537,14.197164 -0.50965,3.598758 -1.66227,8.716927 -2.56138,11.37371 -0.89911,2.65678 -3.21019,7.20863 -5.13574,10.11522 -1.92556,2.9066 -5.50885,6.66615 -7.96287,8.35456 -2.45403,1.68842 -6.87819,3.91911 -9.83146,4.95711 -3.31702,1.16583 -9.11508,2.04516 -15.16786,2.30032 z M 740.49549,91 C 739.08273,91 734.71664,85.507381 724.79617,71.25 717.2379,60.3875 706.19504,44.525 700.25648,36 691.9897,24.132765 689.45832,19.746537 689.4558,17.285184 c -0.002,-2.146428 0.63331,-3.555512 1.91225,-4.23998 1.05354,-0.563841 9.63269,-1.907454 19.06477,-2.985808 10.45866,-1.1957211 18.01781,-1.6304111 19.37556,-1.1141948 1.22448,0.4655463 2.71544,1.4558268 3.31326,2.2006228 0.59781,0.744797 2.9484,17.329176 5.22354,36.854176 2.27514,19.525 4.13002,37.1875 4.12197,39.25 -0.0119,3.050894 -0.37948,3.75 -1.97166,3.75 z M 215.13108,88.827544 c -2.29821,-0.09485 -8.13377,-0.432351 -12.96791,-0.75 C 195.92074,87.667356 193.0999,87.065342 192.42849,86 c -0.51995,-0.825 -0.95225,-2.71632 -0.96067,-4.202933 -0.008,-1.486614 2.03145,-8.203769 4.53304,-14.927011 2.50159,-6.723242 5.48201,-14.394422 6.62314,-17.047066 C 203.76514,47.170345 205.30801,45 206.0526,45 c 0.74459,0 2.01453,1.0125 2.82208,2.25 0.80755,1.2375 4.19292,9.975752 7.52305,19.418338 3.33013,9.442586 6.05478,17.622943 6.05478,18.178571 0,0.555629 -0.70714,1.717377 -1.57143,2.581662 -0.99987,0.999869 -3.09126,1.508703 -5.75,1.398973 z M 332.45251,77.922657 c -8.94068,0.602822 -9.63247,0.50888 -11.75,-1.595607 -2.15855,-2.145254 -2.25,-2.93162 -2.25,-19.347337 0,-9.411158 0.4405,-17.93428 0.97889,-18.940271 0.53839,-1.005991 2.40554,-2.326407 4.14922,-2.934258 C 325.32431,34.497333 330.45223,34 334.97601,34 c 4.70293,0 10.02005,0.633315 12.41684,1.478952 2.30549,0.813424 5.52226,2.42632 7.14837,3.584215 1.62611,1.157894 3.84638,3.849439 4.93393,5.98121 1.30209,2.552312 1.97736,5.871692 1.97736,9.720004 0,4.721911 -0.55321,6.716386 -2.8811,10.387079 -1.5846,2.498662 -4.2585,5.523819 -5.94199,6.722571 -1.68349,1.198752 -4.7745,2.905972 -6.8689,3.793821 -2.09441,0.88785 -8.08301,1.902512 -13.30801,2.254805 z M 479.45514,75 c -1.19,0 -2.60698,-1.267954 -3.63199,-3.25 -0.92439,-1.7875 -6.80555,-14.05 -13.06924,-27.25 -7.60463,-16.025871 -11.21156,-24.707873 -10.8559,-26.130508 0.29294,-1.17178 1.55005,-2.403135 2.79356,-2.736345 1.24352,-0.333211 12.75302,-0.611982 25.57668,-0.619492 14.18707,-0.0083 24.07305,0.391644 25.25,1.021529 1.06384,0.569351 1.93426,1.71604 1.93426,2.548198 0,0.832158 -5.19918,12.853826 -11.55373,26.714816 C 489.54422,59.159189 483.68385,71.5125 482.87572,72.75 482.0676,73.9875 480.52833,75 479.45514,75 Z m 649.28716,-0.06339 c -5.3844,-0.03486 -10.7054,-0.434525 -11.8245,-0.888138 -1.1191,-0.453613 -2.6941,-1.618153 -3.5,-2.587865 -1.1194,-1.346965 -1.5439,-5.576798 -1.7981,-17.920702 -0.2961,-14.376354 -0.1412,-16.316465 1.4052,-17.598749 1.3255,-1.099058 4.9652,-1.441005 15.3328,-1.440507 10.9512,5.27e-4 14.2036,0.333846 16.7257,1.714083 1.722,0.942387 4.2822,3.081732 5.6894,4.754101 1.4405,1.711929 2.8453,4.952926 3.2148,7.416647 0.3609,2.406787 0.1256,6.931729 -0.5228,10.055427 -0.7797,3.755755 -2.2196,6.864514 -4.251,9.178185 -1.6896,1.924303 -4.7841,4.372221 -6.8768,5.439818 -3.0337,1.547684 -5.7889,1.928239 -13.5947,1.8777 z"
       id="path1" />
  </g>
</svg>
