<?xml version="1.0" encoding="utf-8"?>
<!-- Generator: Adobe Illustrator 19.2.0, SVG Export Plug-In . SVG Version: 6.00 Build 0)  -->
<svg version="1.1" id="Layer_1" xmlns="http://www.w3.org/2000/svg" xmlns:xlink="http://www.w3.org/1999/xlink" x="0px" y="0px"
	 viewBox="0 0 595.3 841.9" style="enable-background:new 0 0 595.3 841.9;" xml:space="preserve">
<style type="text/css">
	.st0{fill:#0D73BB;}
	.st1{fill:#25B8EB;}
	.st2{fill:#A5CE3A;}
	.st3{fill:#FFFFFF;}
</style>
<polygon class="st0" points="125.2,476.1 120.4,476.1 120.4,473.2 133.6,473.2 133.6,476.1 128.8,476.1 128.8,489.2 125.2,489.2 "/>
<path class="st0" d="M134.5,473.2h3.2v6.1h0.1c0.8-1.3,2.2-1.9,3.4-1.9c3.4,0,4.3,1.9,4.3,4.8v7.2h-3.2v-6.6c0-1.9-0.6-2.9-2.1-2.9
	c-1.7,0-2.5,1-2.5,3.3v6.1h-3.2V473.2z"/>
<path class="st0" d="M150,484.2c0.1,2,1.1,2.9,2.9,2.9c1.3,0,2.3-0.8,2.5-1.5h2.8c-0.9,2.7-2.8,3.9-5.5,3.9c-3.7,0-6-2.5-6-6.1
	c0-3.5,2.4-6.2,6-6.2c4,0,5.9,3.3,5.7,6.9H150z M155.2,482.2c-0.3-1.6-1-2.5-2.5-2.5c-2,0-2.6,1.6-2.7,2.5H155.2z"/>
<polygon class="st0" points="173.2,489.2 169.2,489.2 164,473.2 167.6,473.2 171.2,484.5 171.3,484.5 174.9,473.2 178.6,473.2 "/>
<path class="st0" d="M177.7,481.2c0.2-3,2.9-3.9,5.5-3.9c2.3,0,5.1,0.5,5.1,3.3v6.1c0,1.1,0.1,2.1,0.4,2.6h-3.2
	c-0.1-0.4-0.2-0.7-0.2-1.1c-1,1.1-2.5,1.4-3.9,1.4c-2.2,0-4-1.1-4-3.5c0-2.6,2-3.3,4-3.5c2-0.3,3.8-0.2,3.8-1.5
	c0-1.4-0.9-1.6-2.1-1.6c-1.2,0-2,0.5-2.1,1.8H177.7z M185,483.5c-0.5,0.5-1.7,0.5-2.7,0.7c-1,0.2-1.9,0.5-1.9,1.7
	c0,1.2,0.9,1.5,2,1.5c2.5,0,2.6-2,2.6-2.7V483.5z"/>
<path class="st0" d="M198.1,481.7c-0.2-1.3-1-2-2.4-2c-2,0-2.7,2.1-2.7,3.8c0,1.7,0.7,3.7,2.7,3.7c1.5,0,2.3-0.9,2.5-2.4h3.1
	c-0.4,3.1-2.5,4.8-5.6,4.8c-3.5,0-5.9-2.5-5.9-6c0-3.6,2.2-6.3,5.9-6.3c2.7,0,5.3,1.4,5.5,4.4H198.1z"/>
<path class="st0" d="M210.5,481.7c-0.2-1.3-1-2-2.4-2c-2,0-2.7,2.1-2.7,3.8c0,1.7,0.6,3.7,2.7,3.7c1.5,0,2.3-0.9,2.5-2.4h3.1
	c-0.4,3.1-2.6,4.8-5.6,4.8c-3.5,0-5.9-2.5-5.9-6c0-3.6,2.2-6.3,6-6.3c2.8,0,5.3,1.4,5.5,4.4H210.5z"/>
<path class="st0" d="M218.2,475.8H215v-2.6h3.2V475.8z M215,477.6h3.2v11.7H215V477.6z"/>
<path class="st0" d="M220.2,477.6h3v1.6h0.1c0.8-1.3,2.2-1.9,3.6-1.9c3.4,0,4.3,1.9,4.3,4.8v7.2h-3.2v-6.6c0-1.9-0.6-2.9-2-2.9
	c-1.7,0-2.5,1-2.5,3.3v6.1h-3.2V477.6z"/>
<path class="st0" d="M235.6,484.2c0.1,2,1.1,2.9,2.9,2.9c1.3,0,2.3-0.8,2.5-1.5h2.8c-0.9,2.7-2.8,3.9-5.5,3.9
	c-3.7,0-5.9-2.5-5.9-6.1c0-3.5,2.4-6.2,5.9-6.2c4,0,5.9,3.3,5.7,6.9H235.6z M240.8,482.2c-0.3-1.6-1-2.5-2.6-2.5
	c-2,0-2.6,1.6-2.7,2.5H240.8z"/>
<path class="st0" d="M255.8,473.2h3.6l6,16.1h-3.7l-1.2-3.6h-6l-1.3,3.6h-3.6L255.8,473.2z M255.4,483h4.2l-2-5.9h0L255.4,483z"/>
<rect x="266" y="473.2" class="st0" width="3.2" height="16.1"/>
<rect x="271.2" y="473.2" class="st0" width="3.2" height="16.1"/>
<path class="st0" d="M279.7,475.8h-3.2v-2.6h3.2V475.8z M276.5,477.6h3.2v11.7h-3.2V477.6z"/>
<path class="st0" d="M281.5,481.2c0.2-3,2.9-3.9,5.5-3.9c2.3,0,5.1,0.5,5.1,3.3v6.1c0,1.1,0.1,2.1,0.4,2.6h-3.2
	c-0.1-0.4-0.2-0.7-0.2-1.1c-1,1.1-2.5,1.4-3.9,1.4c-2.2,0-4-1.1-4-3.5c0-2.6,2-3.3,4-3.5c2-0.3,3.8-0.2,3.8-1.5
	c0-1.4-0.9-1.6-2.1-1.6c-1.2,0-2,0.5-2.1,1.8H281.5z M288.9,483.5c-0.5,0.5-1.7,0.5-2.7,0.7c-1,0.2-1.9,0.5-1.9,1.7
	c0,1.2,0.9,1.5,2,1.5c2.5,0,2.6-2,2.6-2.7V483.5z"/>
<path class="st0" d="M294,477.6h3v1.6h0.1c0.8-1.3,2.2-1.9,3.6-1.9c3.4,0,4.3,1.9,4.3,4.8v7.2h-3.2v-6.6c0-1.9-0.6-2.9-2.1-2.9
	c-1.7,0-2.5,1-2.5,3.3v6.1H294V477.6z"/>
<path class="st0" d="M314.8,481.7c-0.2-1.3-1-2-2.4-2c-2,0-2.7,2.1-2.7,3.8c0,1.7,0.7,3.7,2.7,3.7c1.5,0,2.3-0.9,2.5-2.4h3.1
	c-0.4,3.1-2.5,4.8-5.6,4.8c-3.5,0-5.9-2.5-5.9-6c0-3.6,2.2-6.3,6-6.3c2.7,0,5.3,1.4,5.5,4.4H314.8z"/>
<path class="st0" d="M321.8,484.2c0.1,2,1.1,2.9,2.9,2.9c1.3,0,2.3-0.8,2.5-1.5h2.8c-0.9,2.7-2.8,3.9-5.4,3.9c-3.7,0-6-2.5-6-6.1
	c0-3.5,2.4-6.2,6-6.2c4,0,5.9,3.3,5.7,6.9H321.8z M327,482.2c-0.3-1.6-1-2.5-2.5-2.5c-2,0-2.6,1.6-2.7,2.5H327z"/>
<path class="st0" d="M172.7,453.3c-6.4,8.3-14.7,11.4-22.8,11.4c-25.7,0-40.8-19.2-40.8-43.1c0-24.6,15.1-43.8,40.8-43.8
	c17,0,33,10.4,35,29.3h-17.4c-2.1-9.2-8.9-13.9-17.5-13.9c-16.4,0-22.5,13.9-22.5,28.4c0,13.8,6.2,27.8,22.5,27.8
	c11.8,0,18.7-6.4,19.7-17.9h-18.3v-13.6h34.8v44.8h-11.6L172.7,453.3z"/>
<path class="st0" d="M194.8,421.1c0.9-15.5,14.8-20.1,28.2-20.1c12,0,26.4,2.7,26.4,17.1v31.2c0,5.5,0.6,10.9,2.1,13.4h-16.7
	c-0.6-1.9-1-3.8-1.2-5.8c-5.2,5.5-12.9,7.4-20.2,7.4c-11.4,0-20.4-5.7-20.4-18c0-13.6,10.2-16.8,20.4-18.2
	c10.1-1.5,19.5-1.2,19.5-7.9c0-7.1-4.9-8.1-10.7-8.1c-6.3,0-10.3,2.6-10.9,9.1H194.8z M232.9,433.3c-2.8,2.4-8.6,2.6-13.7,3.5
	c-5.1,1-9.8,2.8-9.8,8.8c0,6.2,4.8,7.7,10.1,7.7c12.9,0,13.4-10.2,13.4-13.8V433.3z"/>
<polygon class="st0" points="289.8,462.7 271.4,462.7 250.9,402.6 268.2,402.6 280.8,443.6 281.1,443.6 293.7,402.6 310.1,402.6 "/>
<path class="st0" d="M329.3,393.4h-16.5v-13.6h16.5V393.4z M312.8,402.7h16.5v60h-16.5V402.7z"/>
<path class="st1" d="M364.8,442.4c0-20.7,14.6-40.7,27.4-58.3c9.3-12.8,18.1-24.8,18.3-33.3c-36.3,3-64.8,33.4-64.8,70.4
	c0,29.8,18.4,55.2,44.5,65.7C375,477.9,364.8,461.3,364.8,442.4"/>
<path class="st2" d="M487.2,421.2c0-37.1-28.5-67.4-64.8-70.4c0.2,8.5,9,20.6,18.3,33.3c12.9,17.6,27.4,37.6,27.4,58.3
	c0,18.9-10.2,35.5-25.4,44.4C468.7,476.5,487.2,451,487.2,421.2"/>
<path class="st0" d="M416.5,489.2c25.9,0,46.8-21,46.8-46.8c0-34.6-45.7-69.3-45.7-91.9c-0.4,0-0.7,0-1.1,0c-0.4,0-0.7,0-1.1,0
	c0,22.6-45.8,57.2-45.8,91.9C369.7,468.3,390.6,489.2,416.5,489.2"/>
<path class="st3" d="M440.6,384.1c-9.3-12.8-18.1-24.8-18.3-33.3c-0.8-0.1-1.6-0.1-2.4-0.2c-0.8,0-1.6,0-2.4-0.1
	c0,22.6,45.7,57.2,45.7,91.9c0,25.9-21,46.8-46.8,46.8c-25.8,0-46.8-21-46.8-46.8c0-34.6,45.7-69.3,45.8-91.9c-0.8,0-1.6,0-2.4,0.1
	c-0.8,0-1.6,0.1-2.4,0.2c-0.2,8.5-9,20.6-18.3,33.3c-12.9,17.6-27.4,37.6-27.4,58.3c0,18.9,10.2,35.5,25.4,44.4c8.1,3.2,17,5,26.2,5
	c9.3,0,18.1-1.8,26.2-5c15.2-9,25.4-25.5,25.4-44.4C468.1,421.7,453.5,401.7,440.6,384.1"/>
<path class="st3" d="M454.1,465.7c0,0-2,2.8-1.7,3.3c0.2,0,1.5-1.8,1.4-2c0,0.1-0.1,0.1-0.1,0.1C453.6,466.8,454,466.1,454.1,465.7"
	/>
<path class="st3" d="M452,469.1c-0.4,0.3-3.1,2.7-2.5,3.2C449.7,472.4,452.1,469.5,452,469.1z"/>
<path class="st3" d="M456.8,452.6c-0.2-0.7-0.3-1.2-0.8-1.8c-0.1-0.1-0.4-0.5-0.5-0.5c-0.3,0-0.5,0.9-0.7,0.8
	c-0.3-0.1,0.2-1.9-0.5-1.4c-0.2,0.2-0.2,1.4-0.1,1.6c0.2,0.5,0.7,0.5,0.8,1.1c0,0.2-0.3,1.5-0.3,1.5c0.1,0.1,0.3-0.3,0.4-0.2
	c0,0,0.1,0.4,0.1,0.4c0,0,0.1,0.1,0.2,0.1c0.3,0,0.2-0.3,0.3-0.4c0.2-0.1,0.1-0.4,0.3-0.3c0.3,0,0.1,0.6,0.1,0.7
	c0,0.2,0.1,0.7,0.4,0.7c0.2-0.2,0.1-0.4,0.1-0.6c0-0.3-0.1-0.6-0.1-0.9C456.6,453.2,456.8,452.9,456.8,452.6"/>
<path class="st3" d="M446.6,471.9c-0.2,0-0.5,0-0.7,0.1c-0.1,0.1-1,1.2-0.9,1.2C445.4,473.4,446.6,472.1,446.6,471.9"/>
<path class="st3" d="M453.1,428.8c-0.1,0.7,0.5,1.2,0.4,1.9c0,0-0.2,0.8-0.2,0.8c-0.2,0.2-0.4,0.1-0.6,0.3c-0.2,0.3-0.4,0.7-0.3,1.1
	c0,0.1,0.5,1.2,0.6,1c0.2-0.3,0-0.8,0.3-1.2c0.2-0.3,0.2,0,0.4-0.1c-0.1,0.1,0.6-0.9,0.5-0.7C454.3,431.4,453.8,429.1,453.1,428.8"
	/>
<path class="st3" d="M452.6,427.1c-0.2,0.2,0,1.4,0.4,1.6c0-0.2,0-0.3,0-0.5c0-0.1,0.6,0.2,0.5-0.4
	C453.4,427.4,452.9,427.3,452.6,427.1"/>
<path class="st3" d="M451.9,454.8c-0.3,0.2-0.6,0.6-0.6,0.9c0.3-0.1,0.8-0.7,0.9-0.9C452.2,454.7,452,454.7,451.9,454.8"/>
<path class="st3" d="M452.6,449.9c0.6-0.2-0.7-1-0.9,0C451.7,449.9,452.6,449.9,452.6,449.9"/>
<path class="st3" d="M451.9,450.6c-0.3,0.2-0.1-0.3-0.3-0.3c-0.3,0.1-0.7,2.4-0.5,2.5c0.2,0.1,0.4-1.2,0.5-1.2
	c0.1,0.5,0.1,1.7,0.4,0.7c0.1-0.3-0.1-0.7,0-1c0.1-0.4,0.3-0.6,0.4-0.9C452.2,450.3,452,450.5,451.9,450.6"/>
<path class="st3" d="M450.9,454.7c-0.5,0,0,0.4,0,0.3C450.9,455,451.1,454.7,450.9,454.7"/>
<path class="st3" d="M450.5,455.7c0.1-0.2,0.1-0.3-0.1-0.4C450.2,455.3,450.5,455.6,450.5,455.7"/>
<path class="st3" d="M451.4,449.5c0.2-0.3-0.1-0.9-0.1-1.3c0.1-0.3,0.3-0.6,0.3-0.9c0-0.1-0.3-0.9-0.5-0.9c0,0-0.9,1.6-0.9,1.7
	c-0.2,0.3-0.4,0.5-0.7,0.7c-0.1,0.1-0.2,0.4-0.3,0.4c-0.1,0.1-0.2-0.1-0.3,0c-0.4,0.5-0.3,1.6-0.1,2.2c0.2,0.4,0.3,0.4,0.9,0.5
	c0.5,0.1,0.3,0.3,0.6-0.2C450.9,451.1,451.1,450.2,451.4,449.5"/>
<path class="st3" d="M450.3,454.7c-0.1,0-0.9,0.2-0.5,0.4C450.2,455.3,450.5,454.7,450.3,454.7"/>
<path class="st3" d="M447.7,454.5c0.3,0.1,1.4,0.5,1.6,0.4c0.4-0.1,0.1-0.1,0.1-0.4c0-0.1-0.3-0.5-0.4-0.5c-0.2-0.1-0.4,0-0.6,0
	c-0.2,0-0.6-0.3-0.7-0.3C447,453.7,447.1,454.3,447.7,454.5"/>
<path class="st3" d="M448.6,451.8c-0.1-0.6-0.7,0.1-0.6,0.5C448.3,453,448.7,452.3,448.6,451.8"/>
<path class="st3" d="M447,450.3c-0.2-0.5-0.9-1-1.2-1.6c-0.2-0.4-0.3-0.8-0.9-0.8c-0.4,0.1,0.6,1.5,0.7,1.8c0.2,0.6,0.4,1.3,0.6,1.9
	c0.1,0.5,0.5,2.3,1.1,1.9c0.3-0.2,0.5-1.6,0.4-2c-0.3-0.1-0.1,0.3-0.4,0C446.9,451.1,447.2,450.7,447,450.3"/>
<path class="st3" d="M440,445.9c-0.2,0.3-0.4,1.9,0.2,1.9C440.8,447.8,440.4,446,440,445.9"/>
<path class="st3" d="M428.2,457.3c-0.3,0-0.8,1.2-1.1,1.4c-0.5,0.4-0.9,0.3-1.1,0.9c-0.1,0.3,0.1,0.7,0,1c-0.1,0.8-0.9,1.4-0.5,2.3
	c0.3,0.7,0.9,0.5,1.3-0.1c0.5-0.7,0.8-1.9,1-2.7C428,459.7,429,457.3,428.2,457.3"/>
<path class="st3" d="M421.2,432.8c-0.1-0.3-0.6-0.1-0.7,0.1C420.4,433.2,421.3,433.2,421.2,432.8"/>
<path class="st3" d="M413.6,431.9c0-0.1,0.1-0.3,0.1-0.4c-0.4,0-0.8-0.1-1.1,0.1C412.8,431.8,413.5,432.3,413.6,431.9"/>
<path class="st3" d="M410.9,431c0.4,0.4,0.8-1.1,0.3-1.1C410.8,429.9,410.7,430.8,410.9,431"/>
<path class="st3" d="M411.3,429.4c0.1-0.5-0.6,0.1-0.2,0.3C411.2,429.6,411.3,429.5,411.3,429.4"/>
<path class="st3" d="M406.3,425.4c0,0.2,1.4,0,1.5-0.1c0.4-0.1,0.3-0.1,0.5-0.4c0.3-0.5,0-0.3-0.2-0.7c-0.2-0.4-0.8-1-0.9-1.5
	c0-0.1,0.1-0.5,0.1-0.6c0-0.1-0.1-0.1-0.1-0.5c-0.2-0.1-0.8,0.3-1,0.5c-0.5,0.7,0,0.9,0.3,1.4c0.4,0.5,0.2,0.3-0.1,1
	C406.3,424.8,406.4,425,406.3,425.4"/>
<path class="st3" d="M404.6,424.9c0.6,0.7,2.3-1.3,1.3-1.6c-0.3-0.1-0.8,0.2-1,0.5C404.8,423.9,404.5,424.8,404.6,424.9"/>
<path class="st3" d="M454.7,457.6c-0.2,0.5-0.5,1.7-1.2,1.9c-0.2-0.1-0.6-1.2-0.6-1.4c0-0.4,1.2-1.4,0.8-1.7c-0.5,0.1-0.7-0.3-1-0.3
	c-0.1,0-0.3,0.5-0.4,0.6c-0.2,0.2-0.4,0.2-0.6,0.4c-0.2,0.2-0.3,0.7-0.6,0.9c-0.6,0.4-0.2-0.2-0.7-0.2c-0.4,0-0.8,0.7-1.1,0.9
	c-0.4,0.4-1,0.7-1.3,1.1c-0.3,0.5-0.5,0.9-0.9,1.3c-1,0.7-2.3,0.8-3.2,1.7c-0.9,0.9-1.1,2.2-1.6,3.4c-0.3,0.8-0.7,1.8-1.2,2.4
	c-0.2,0.3-1.2,1-0.3,1.1c0.3,0.1,0.8-0.4,1.1-0.5c0.4-0.1,0.7-0.1,1-0.2c0.7-0.2,1-0.6,1.6-0.9c0.4-0.2,1.2-0.6,1.7-0.6
	c1.1,0.1,0.3,0.8,0.3,1.5c0.4,0,0.6-0.4,1-0.6c-0.4,0.4-0.9,1.3-1,1.8c-0.1,0.7,0.1,0.6,0.7,0.5c1.1,1.2,6.6-5.9,7.1-7
	c0.2-0.5,0.3-1.1,0.4-1.7c0.2-0.9,0.3-1.8,0.5-2.7c0.2-1.1,0.7-2.5,0.6-3.7C455.3,456.1,454.9,457,454.7,457.6"/>
<path class="st3" d="M442,439.5c1.2-0.1,1.2-0.6,1.7,0.6c0.3,0.8,0.6,1.6,0.9,2.4c0.3-0.1,0.5-0.4,0.7-0.5c1,2.1,0.2,4.5,1,6.7
	c0.1,0.3,0.6,1.4,0.9,1.2c0.3-0.1-0.2-1.5-0.2-1.8c-0.3-1.4-0.8-2.7-0.7-4.1c0.7,0.2,1.4,1.3,1.4,2.1c1.5-0.5,1.4-2.7,0.8-3.8
	c-0.4-0.7-1.1-1.5-0.7-2.3c0.2-0.5,0.7-0.8,0.9-0.2c0.1,0.5-0.4,1.1,0.2,1.3c0.2-0.4-0.1-0.9,0-1.3c0.1-0.4,0.4-0.5,0.7-0.8
	c0.7-0.6,1.2-0.8,1.4-1.7c0.1-0.6,0.1-1.1,0-1.7c-0.2-1.1-0.5-2.2-0.8-3.3c-0.1-0.2-0.2-1.3-0.4-1.4c-0.3-0.3-0.4,0.1-0.8-0.1
	c-0.7-0.4-0.6-1.1,0-1.6c0.1,0.3,0.1,0.5,0.3,0.7c0.2,0.1,0.2-0.2,0.5-0.1c0.3,0.1,0.6,0.6,0.7,0.9c0.2,0.3,0.6,1.8,1,1.8
	c0.9,0,0.1-1.7-0.1-1.9c-0.4-0.7-1.1-1.5-0.6-2.4c0.5,0.3,0.5-0.5,0.5-0.8c0-1.1-0.6-2.3-1.1-3.2c0.5,0.1,0.9,1,1.1,1.4
	c0.2-0.7-0.4-1.2-0.8-1.7c-0.5-0.6-1-1.1-1.2-1.8c-0.2-0.8-0.1-1.4-0.1-2.2c-0.2-1.4-1.3-2.5-1.4-3.9c-0.1-1.6,0.6-2.2,1.9-2.6
	c-0.5-0.5-1.2-0.8-1.6-1.4c0.3,0,0.6,0.1,0.8,0.2c-0.1-0.2-0.3-0.6-0.6-0.7c1,0.3,1.4,0.8,1.9,1.7c0.6,1.1,1.5,1.6,2.6,2.1
	c-0.7-1.1-1.9-1.9-2.5-3.1c-0.4-0.7-0.4-1.3-1-1.9c-0.7-0.5-1.6-0.7-2.2-1.2c0.3-0.1,0.5-0.2,0.8-0.2c-0.2-0.5-1.2-0.6-1.5-0.6
	c-0.3,0-1.1,0-1.4,0.1c-0.6,0.1-0.7,0.4-1.5,0.2c0.1,0.1,0.2,0.3,0.3,0.5c-1,0-0.1,0-0.9,0.3c-0.6,0.3-0.2,0.1-0.7,0.1
	c-0.7,0-1.4-0.1-2.2,0c-0.6,0.1-1.1,0.2-1.5,0.6c-0.2,0.2-0.2,0.4-0.5,0.5c-0.9,0.5-1.6-0.5-2.6-0.1c-0.5,0.2-0.2,0.2-0.7,0.3
	c-0.3,0-0.7-0.1-1-0.1c-0.8-0.1-1.5-0.3-2.3-0.4c-0.7-0.1-0.7-0.2-1.3,0c-0.1,0.1-0.2,0.3-0.4,0.4c-0.1,0.1-0.3,0.1-0.5,0
	c-0.5,0.3-1,0.8-0.6,1.2c-0.6,0.2-0.2,0.2-0.5,0.6c-0.1,0.2-0.3,0-0.3,0.3c0,0.1-0.1,0.3-0.1,0.4c0,0.1,2.2,2,1.4,2.3
	c0.1,0-1.6-2.1-2-2.4c-1.3-1-1,0.9,0.1,1.3c-0.6,0.1-1.3-0.1-1.9-0.1c0.1,0.1,0.1,0.3,0.2,0.4c-0.7,0-1.9,0.2-2.4,0.7
	c-0.1,0.1-0.3,0.5-0.4,0.5c-0.6,0.2-0.3-0.5-0.9-0.6c0,0.2,0.2,0.6,0.1,0.7c-0.1,0.3-0.3,0.2-0.5,0.5c-0.4,0.4-0.3,0.8-1.1,0.7
	c0.1,0.1,0.2,0.3,0.2,0.4c-0.3,0-1.1-0.3-1-0.8c0.1-0.6,0.9,0,1.2-0.3c1.1-0.7-1.2-1.3-1.7-1.4c-0.4-0.2-1-0.7-1.4-0.7
	c-0.5-0.1-1.3,0.3-1.8,0.5c-0.6,0.2-1.5,0.3-1.8,0.7c-0.3,0.3-0.5,0.9-0.8,1.2c-0.4,0.7-0.6,0.9-1.3,1.2c-0.4,0.2-0.8,0.3-1.1,0.7
	c-0.5,0.5-1,1.7-0.3,2.2c0.5,0.4,1-0.1,1.6-0.4c0.2,0.4,0.4,0.9,0.5,1.3c0.1,0.3-0.2,0.5,0,0.8c0.3,0.4,0.4,0.1,0.7,0
	c0,0,0.5-0.3,0.5-0.3c0.4-0.5,0.1-0.4,0.3-1c0.2-0.4,0.7-0.6,0.7-1.1c0-0.6-0.6-0.6-0.4-1.3c0.2-0.6,0.8-0.7,1.1-1.2
	c0.2-0.3,0.3-1.1,0.8-0.8c0.5,0.3,0,0.6-0.2,0.9c-0.5,0.5-0.6,0.6-0.5,1.3c0.1,1,0.5,0.9,1.3,0.7c0.2-0.1,1-0.4,1.2,0.1
	c0.1,0.5-0.8,0.3-1,0.4c-0.5,0.1-1.7,0.9-0.7,0.6c0.4,0.2,0.5,0.6,0.1,0.8c-0.2,0.1-0.4-0.4-0.7-0.1c-0.1,0.1-0.1,0.3-0.2,0.4
	c-0.2,0.6,0.1,1.3-0.7,1.4c-0.3,0-0.5-0.1-0.8-0.1c-0.3,0-0.6,0.4-0.9,0.4c-0.1-0.1-0.5-0.3-0.7-0.3c-0.3,0-0.4,0.3-0.7,0.2
	c-0.1,0-0.4-0.6-0.4-0.6c0.1-0.1,0.4-0.6,0.2-0.8c-0.5-0.5-1,0.5-1,0.9c0,0.9,0.5,0.8-0.4,1.2c-0.4,0.2-0.5,0.2-0.8,0.5
	c-0.3,0.3-0.6,0.6-0.9,0.9c-0.4,0.3-0.8,0.4-1.2,0.6c-0.1,0-0.1,0.2-0.2,0.3c-0.2,0.1-0.5-0.1-0.6,0c-0.6,0.5,0.6,0.8,0.8,1.5
	c0.1,0.4,0.1,0.7-0.2,0.9c-0.6,0.5-1.6,0.1-2.2,0.5c-0.6,0.4-1,2.1-0.6,2.7c0,0.1,0.9,0.6,1.1,0.6c0.3,0,0.9-0.5,1.2-0.7
	c0.3-0.2,0.9-0.5,1.1-0.8c0.1-0.2,0.1-0.4,0.2-0.6c0.2-0.4,0.7-0.5,0.9-0.8c0.5-0.6,0.1-0.6,1-0.9c0.4-0.1,1.1-0.5,1.5-0.4
	c0.3,0.1,1.3,0.8,1.6,1c0.7,0.4,1.2,1,1,1.9c0.9,0.1-0.1-1,0.8-0.9c-0.3-0.7-1.1-0.8-1.7-1.2c-0.3-0.2-0.6-0.5-0.6-0.9
	c0-1,0.9,0.1,1.3,0.4c0.8,0.6,1.3,1.1,1.8,1.9c0.1,0.3,0.8,1.7,1.2,1.7c-0.1,0,0.6-0.6,0.6-0.6c0.1-0.5-0.7-0.6-0.6-1
	c0.3-1.1,2.3,1.6,2.6,1.7c0.4,0.1,0.7-0.1,1.1-0.2c1-0.1,1.6-0.1,1.6,1c0,0.6-0.1,1.6-0.8,1.9c-0.4,0.1-1.5-0.3-1.9-0.3
	c-0.5-0.1-1-0.2-1.5-0.2c-0.9-0.1-1.5-0.3-1.9,0.5c-0.1,0.1,0.1,0.4,0,0.5c-0.4,0.4-1.3-0.1-1.8-0.3c-0.4-0.2-2-0.7-2.2-1.2
	c-0.3-0.6,0.5-1.2-0.2-1.6c-0.4-0.3-1.3-0.1-1.8,0c-1.6,0.2-3.4,0.8-4.7,1.8c-0.5,0.3-1,0.7-1.2,1.3c-0.1,0.3-0.1,0.7-0.2,1
	c-0.2,0.5-1,1.1-1.3,1.5c-0.6,0.7-1.2,1.7-1.3,2.7c-0.2,1.2,0.1,2.7,0.1,3.9c0,0.4-0.1,1,0,1.3c0.3,0.8,1.6,1.7,2.2,2.3
	c0.9,0.8,1.6,1.4,2.9,1.3c1-0.1,2.2-0.9,3.2-0.7c0.5,0.1,1.1,0.5,1.6,0.8c0.7,0.3,1,0.4,1.1,1.2c0,0.5-0.2,1-0.2,1.5
	c0,0.7,0.4,1.1,0.9,1.7c0.9,1.1,1.3,2.4,1.2,3.8c-0.1,1.3-0.2,2.1,0.1,3.4c0.4,1.6,0.9,3.2,1.5,4.7c0.3,0.8,0.4,1.8,1.2,2
	c1.8,0.5,3.8-1.3,4.5-2.7c0.2-0.4,0.1-0.7,0.2-1c0.1-0.4,0.5-0.7,0.7-1.1c0.4-0.8-0.1-1.8,0.5-2.4c0.5-0.5,1.3-0.5,1.8-1.1
	c0.5-0.6,0.3-1.2,0.2-1.9c-0.1-2-0.6-3.6,0.6-5.4c0.8-1.1,1.8-1.8,2.5-3c0.4-0.7,0.8-1.5,1.1-2.3c0.1-0.3,0.3-0.8,0.2-1.1
	c-0.2-0.7-0.4-0.4-1.1-0.2c-0.5,0.2-1.2,0.6-1.7,0.3c-0.3-0.2-0.6-0.8-0.8-1.1c-0.6-0.9-1.2-1.9-1.8-2.8c-0.7-1.1-1.2-2.4-1.7-3.6
	c-0.1-0.3-0.8-1.6-0.2-1.5c0.5,0.1,1.2,1.7,1.5,2.1c0.9,1.5,1.7,3.3,2.8,4.7c1.3,1.6,3.2-0.3,4.3-1.4c0.6-0.5,1.2-1.2,1.5-1.9
	c0.3-0.9-0.1-1.2-0.7-1.8c0,0-0.6-0.7-0.6-0.7c-0.6-0.2-0.4,0.3-1,0.6c-0.6,0.3-0.6,0-0.9-0.4c0-0.1,0-0.1-0.1-0.2
	c0-0.2-0.1-0.3-0.3-0.2c-0.2-0.3-0.4-0.8-0.7-1.2c-0.1-0.1-0.7-1.2-0.6-1.3c0.3-0.2,1.3,0.8,1.3,0.9c0.3,0.3,0.5,0.8,0.9,1
	c0.6,0.3,0.8-0.2,1.2-0.1c0.3,0.1,0.4,0.6,0.9,0.8c0.5,0.2,1.1-0.2,1.7-0.2c2-0.2,1.8,2.2,3.3,2.6c0.6,0.2,0.4-0.6,0.7,0.4
	c0.1,0.4,0.2,0.9,0.3,1.4c0.3,1.2,0.6,2.5,1,3.7c0.1,0.3,0.4,1.3,0.8,1.2c0.4-0.1,0.4-1.6,0.4-1.9c0.1-0.9,0.1-1.6,0.6-2.3
	C440.7,441.4,441.4,440.5,442,439.5z M423.6,429.3c0,0.6-1.4,0.3-1.6,0.3c-0.3-0.1-0.6-0.3-1-0.3c-0.6,0-0.5,0.2-1,0.3
	c-0.3,0.1-0.6,0-0.8,0.1c-0.1,0-0.4,0.4-0.4,0.4c-0.5,0-0.1-0.4-0.1-0.6c0-0.5-0.2-0.5,0-1.1c0.1-0.3,0.1-0.7,0.4-1
	c0.3-0.3,0.5-0.4,0.9-0.1c0.7,0.5,0.2,0.9,1.2,0.4c-0.1-0.4-0.6-0.4,0-0.8c1-0.6,0.4,0.5,0.4,0.8
	C421.9,428.4,423.6,428.3,423.6,429.3 M428,431.8c-0.7,0-1.3-0.5-1.3-1.2c0-0.2,0.2-0.5,0.1-0.7c-0.1-0.4-0.7-0.7-0.9-1
	c-0.2-0.2-0.6-0.9-0.6-1.1c0-0.6,1.1-1.5,1.6-1.2c0.9,0.6-0.7,0.7-0.1,1.6c0.1,0.2,0.5,0.4,0.7,0.5c0,0.2,0.1,0.3,0.2,0.4
	c0.2-0.1,0.3,0,0.5,0.1c0.3,0.7-0.3,0.1-0.2,0.8C428.1,430.6,429.2,431.8,428,431.8"/>
<path class="st3" d="M389.9,475.2C389.9,475.1,389.9,475.2,389.9,475.2"/>
<path class="st3" d="M389.8,475.1C389.8,475.1,389.8,475.1,389.8,475.1"/>
<path class="st3" d="M403,413.8c-0.6,0-1.3,0.3-1.8,0.5c0-1,0.9-1.7,1.2-2.6c-0.4,0-0.7-0.3-1-0.2c-0.4,0-0.9,0.6-1.2,0.9
	c-0.9,0.7-1.7,1.3-2.6,2c-1.5,1.1-3,2.3-4.5,3.4c-0.4-0.7,0.1-0.9,0.6-1.4c0.2-0.2,0.6-0.4,0.7-0.7c0.2-0.3,0-0.7-0.1-1.2
	c-0.2-0.9-0.1-1.3,0.6-2c1.6-1.4,4.3-2.1,6.2-2.8c-0.3,0.3-0.5,0.5-0.8,0.8c0.8-0.1,1,0.5,1.6-0.2c0.2-0.2,0.2-0.5,0.3-0.7
	c0.4-0.6,0.1-0.2,0.7-0.4c0.4-0.1,0.8-0.1,1.1-0.3c0.6-0.3,1-0.8,1.6-1c0.8-0.4,1.3,0,0.8,0.7c-0.6,0.8-2.4,1.3-3.2,1.6
	c1,0.4,0.1,0.7,0.3,1.5c0.1,0.3,0.2,0.4,0.5,0.4c0.7,0.1,0.1-0.4,0.6-0.5c0.2-0.1,0.4,0.2,0.7,0.1c0.3-0.1,0.4-0.5,0.6-0.7
	c0.3-0.4,0.5-0.9,1-1.1c0,0.2-0.1,0.4-0.1,0.6c0.6,0,1.4-0.2,1.7-0.8c0.1-0.3-0.1-0.6-0.1-0.9c0.1-0.4,1.6-2.7,0.7-2.9
	c-0.3-0.1-0.9,0.4-1.1,0.5c-1.5,0.6-2.9,1.3-4.4,2c1-1.3,3.3-1.8,3.9-3.3c-0.6,0.2-1.2,0.4-1.7,0.7c0.2-0.1,0.3-0.3,0.5-0.5
	c-1-0.2-1.2,0-1.7,0.7c-0.5,0.6-1.3,1.3-2,1.7c0.2-0.2,0.3-0.3,0.5-0.5c-0.5,0-1.1,0.5-1.6,0.3c-0.4-0.1-0.5-0.6-0.1-0.8
	c0.1,0,0.4,0.3,0.5,0.3c0.3,0,0.7-0.4,1-0.6c0.7-0.4,1.3-1,2-1.3c-0.3-0.1-0.8,0-1.1,0.2c-0.1-1,0.7-1.8-0.9-1.3
	c-0.6,0.2-1.1,0.4-1.6,0.7c0.2,0,0.4,0.1,0.6,0.1c-0.3,0.3-0.5,0.5-0.9,0.7c-0.1,0.1-0.6,0.5-0.7,0.4c-0.1,0-0.6-0.6-0.8-0.6
	c0.1-0.1,0.3-0.3,0.4-0.4c-0.5-0.1-1.1,0-1.6-0.1c0.1-0.4,0.5-1.3,0.5-1.7c0-0.6-0.5-0.6-1.1-0.6c-1.7,0-3.5-0.1-5.2,0.2
	c-0.3,0.1-0.7,0.2-1,0.3c-0.2,0.1-0.3,0.1-0.4,0.2c-0.2,0-0.4-0.1-0.5-0.1c-0.4,0.1-0.8,0.6-1.1,0.8c-0.3,0.1-0.5,0.2-0.8,0.4
	c-1,0.7-1.4,1.9-1.9,3c0.6,0,0.7-0.1,1.1,0.1c0.5,0.3,0,0.7,0.8,0.2c0.6-0.4,0.7-0.7,1.4-0.7c0.3,0,0.5,0.1,0.9,0
	c0.2-0.1,0.4-0.3,0.6-0.3c-0.4,0.6-1.2,1-1.8,1.5c-1.2,1-2.4,1.9-3.6,2.9c-2.1,1.8-4.2,3.5-5.9,5.7c-2,2.7-3.8,5.6-4.9,8.7
	c-0.5,1.4-0.9,2.9-1.2,4.4c-0.3,1.4-0.7,2.9-0.5,4.3c0.7-1.3,0.3-2.8,1.1-4.1c0.5,0.5-0.3,3.1-0.4,4c0,1.1,0.1,2.2,0.4,3.3
	c0.1,0.4,0.3,0.8,0.5,1.2c0.1,0.1,0.2,0.4,0.4,0.5c0.3,0.2,0.3,0.1,0.5,0.2c0.4,0.2,0.1-0.1,0.4,0.1c0.1,0.1,0.3,0.5,0.4,0.6
	c0.8,1.3,1.5,2.5,2.3,3.8c0.7,1.1,1.2,1.9,1,3.3c-0.1,0.8-0.7,1.2-0.9,1.9c-0.2,0.7-0.1,1.6-0.2,2.3c0,1,0.4,1.6,0.8,2.5
	c1,2,2.1,3.7,2.4,5.8c0.2,1.6,0.5,3.3,0.7,4.9c0,0.3,0.1,0.7,0.2,1c0.2,0.7,0.8,1.5,0.8,2.2c0-0.8,0.2,0.3,0.2,0.4
	c0.1,0.3,0.3,0.8,0.5,1.1c0.3,0.5,0.6,1.1,1,1.6c0.4,0.5,1.4,1.5,2,1.5c0.4,0-0.5-1.1-0.6-1.2c-0.3-0.5-0.7-1.1-0.9-1.6
	c-0.3-0.8,0.2-1.3-0.4-1.9c0.6-0.2,0.2-0.6,0.5-0.8c0.2-0.2,0.6,0.1,0.8-0.2c0.2-0.4-0.2-0.9-0.4-1.2c0.6,0.1,0.6,0.3,1.1,0
	c0.2-0.2,0.4-0.8,0.5-1.1c0.2-0.5,0.2-1.3,0.5-1.8c0.5-1,2-0.6,2.4-1.7c0.3-0.7,0.3-1.7,0.5-2.4c0.2-0.7,0.7-1.1,1.1-1.7
	c0.5-0.7,0.6-1.3,0-2c-0.7-0.8-1.7-1.1-2.5-1.7c-0.3-0.3-0.4-0.6-0.7-0.8c-0.5-0.4-0.9-0.3-1.2-1c-0.3-0.9,0-2.1-1-2.8
	c-0.4-0.3-0.8-0.3-1.1-0.6c-0.5-0.5-0.9-1.4-0.9-2.1c-0.2,0.1-0.4,0.1-0.4-0.2c-0.1-0.2-0.3-0.3-0.5-0.1c-0.3,0.2-0.5,0.2-0.7-0.2
	c-0.1-0.1-0.3-0.2-0.4-0.3c-0.4-0.4-0.5-0.6-1.1-0.2c0-0.2,0-0.4,0-0.6c-0.8,0.2-1.3,0.8-1.9,1.4c-0.5-0.9-1.5-1.9-1.5-2.9
	c0-0.5,0.3-1,0.2-1.5c-0.1-0.7-0.8-0.8-0.9-1.2c-0.2-0.7,1.7-2.7,0.6-2.8c-0.6,0-1.6,1.3-2.2,0.8c-0.5-0.4,0.2-2.1,0.3-2.5
	c0.3-0.9,0.8-2.2,1.6-2.7c0.4-0.2,0.4-0.3,0.8-0.2c0.2,0,0.5,0.4,0.7,0.4c0.3,0,0.6-0.5,0.9-0.4c0.4,0,1,0.4,1.1,0.7
	c0.3,0.6-0.3,1.2,0.3,1.7c0.6-0.6,0.4-1.6,0.8-2.3c0.4-0.7,1.1-0.9,1.8-1.2c0.5-0.2,1-0.5,1.3-0.9c0.1-0.2,0.1-0.5,0.2-0.7
	c0.3-0.5,0.3-0.4,0.8-0.6c0.9-0.4,1.6-0.9,2.5-1.2c0.7-0.2,1.3-0.4,1.8-1c1-1,1.3-1.6,2.8-1.8c-0.3,0.3-0.6,0.6-0.8,0.9
	c1,0,3.1-0.7,3.7-1.5c-1.1,0.3-1.2,0.2-1.7-0.7c-0.3-0.6-0.8-1.2-0.7-1.9c0.1-0.3,0.5-0.7,0.6-0.9c0-0.3-0.4-0.3-0.2-0.7
	c0.3-0.7,1.4-0.5,0.9,0.4c0.9-0.9,2.2-0.7,3.3-1.1c-0.3,1-2.3,1.5-2.3,2.3c0,0.5,0.7,0.7,1.1,0.9c0.4,0.1,0.4,0.3,0.7,0.1
	c0.2-0.1,0.3-0.6,0.4-0.8c0.3-0.5,0.1-0.5,0.2-0.9C399.9,418.4,401.8,416,403,413.8 M386.1,422.4c-0.1,0.1-0.4,0.3-0.5,0.3
	c-0.3-0.3,2.9-3.2,3.2-2.7C388.7,420,386.3,422.2,386.1,422.4 M387.9,423c-0.4,0.3-2.1,0.7-1.1-0.1C387,422.8,388.1,422.9,387.9,423
	 M389.8,422.5c-0.2,0.3-1.1,0.2-0.8-0.2C389.1,422.1,389.9,422.2,389.8,422.5 M389.6,421.1c-0.4,0.4-0.3,0-0.6,0.2
	c-0.4,0.2-0.7,0.9-1.1,0.9c-0.2-0.2,0.9-1.7,1.1-1.9C389.5,420,390.1,420.5,389.6,421.1 M389.8,419.2c-0.2,0.2-0.4,0.4-0.7,0.3
	c-0.5-0.2,0-0.5-0.2-0.7c-0.2-0.1-0.5,0.2-0.7,0.1c-0.4-0.3,1-0.7,1.2-0.8c0.4-0.1,0.8-0.4,1-0.1C390.5,418.3,390,419.1,389.8,419.2
	"/>
<path class="st3" d="M387.4,472.1C387.5,472.1,387.3,472.1,387.4,472.1"/>
</svg>
