<?xml version="1.0" encoding="UTF-8" standalone="no"?>
<!-- Created with Inkscape (http://www.inkscape.org/) -->

<svg
   width="1000"
   height="300"
   viewBox="0 0 264.58333 79.374996"
   version="1.1"
   id="svg1"
   xml:space="preserve"
   inkscape:version="1.3 (0e150ed, 2023-07-21)"
   sodipodi:docname="urbanhealth.svg"
   xmlns:inkscape="http://www.inkscape.org/namespaces/inkscape"
   xmlns:sodipodi="http://sodipodi.sourceforge.net/DTD/sodipodi-0.dtd"
   xmlns="http://www.w3.org/2000/svg"
   xmlns:svg="http://www.w3.org/2000/svg"><sodipodi:namedview
     id="namedview1"
     pagecolor="#ffffff"
     bordercolor="#000000"
     borderopacity="0.25"
     inkscape:showpageshadow="2"
     inkscape:pageopacity="0.0"
     inkscape:pagecheckerboard="0"
     inkscape:deskcolor="#d1d1d1"
     inkscape:document-units="mm"
     inkscape:zoom="1.2646758"
     inkscape:cx="543.61758"
     inkscape:cy="223.77276"
     inkscape:window-width="2560"
     inkscape:window-height="1387"
     inkscape:window-x="0"
     inkscape:window-y="25"
     inkscape:window-maximized="1"
     inkscape:current-layer="layer1" /><defs
     id="defs1" /><g
     inkscape:label="Layer 1"
     inkscape:groupmode="layer"
     id="layer1"><path
       id="path1"
       style="fill:#2b2b5b;fill-opacity:1;stroke-width:0.528058"
       d="m 147.09351,12.483998 c -5.00959,0.03196 -10.02343,0.0046 -15.03464,0.0137 -0.56615,0.68131 -1.6918,1.195537 -1.50134,2.246909 -0.0219,10.610838 -0.0439,21.221676 -0.0658,31.832514 -1.20081,-0.01566 -2.40162,-0.03131 -3.60243,-0.04697 -0.0615,-5.481975 0.0796,-10.974709 -0.19601,-16.448923 -0.26965,-1.055293 -1.418,-1.444303 -2.13333,-2.137735 -2.91629,-2.186039 -5.79637,-4.441595 -8.86278,-6.404409 -1.09669,-0.562885 -2.19812,0.224464 -3.03044,0.897546 -2.99893,2.167276 -6.08187,4.238219 -8.92995,6.606511 -1.15758,1.299461 -0.71809,3.18776 -0.82758,4.773906 -0.0371,4.2565 -0.0159,8.513252 -0.02,12.769865 -8.790058,0 -17.580098,0 -26.370138,0 -2.268168,-9.803165 -4.40533,-19.639541 -6.80131,-29.41087 -0.291169,-1.056367 -0.511051,-2.377716 -1.510333,-2.981128 -0.728875,-0.288566 -1.691206,-0.301987 -2.333161,0.168033 -1.038734,0.977526 -1.261831,2.464561 -1.783028,3.734183 -3.246575,9.746989 -6.24298,19.578093 -9.379563,29.362495 -1.042839,3.296708 -2.097894,6.589441 -3.146536,9.884262 -1.519342,-3.281517 -2.838353,-6.675466 -4.581358,-9.839027 -1.026295,-1.160297 -2.729374,-0.756572 -4.089516,-0.860459 -13.329813,-0.113638 -26.660416,-0.02697 -39.9905708,-0.05723 -0.7952957,-8.4e-5 -1.5905911,-2.83e-4 -2.38588659,-2.56e-4 0,1.6767 0,3.3534 0,5.0301 14.38651239,0.02813 28.77303539,0.05185 43.15955039,0.0783 2.093389,4.577166 4.038727,9.230737 6.271827,13.736628 0.747859,1.246113 2.700402,1.545573 3.636078,0.35124 0.881296,-1.057777 1.005846,-2.511225 1.520848,-3.753684 3.964605,-12.12206 7.758085,-24.305235 11.650423,-36.45352 1.891552,8.120736 3.642054,16.278021 5.701595,24.355866 0.478352,1.249293 1.904542,1.743373 3.135709,1.614575 8.676529,0.147573 17.355093,0.04732 26.03238,0.06079 1.5623,-0.06715 3.15569,0.0062 4.69326,-0.279852 0.95036,-0.304284 1.39147,-1.339264 1.25955,-2.283584 0.14954,-5.599851 0.0682,-11.202307 0.0947,-16.803398 2.39452,-1.748466 4.78906,-3.496932 7.18359,-5.245397 2.39451,1.748465 4.78905,3.496931 7.18358,5.245397 0.0438,5.65379 -0.0946,11.313283 0.12358,16.963141 0.0505,1.092346 0.80837,2.183412 1.95496,2.250117 1.88154,0.305798 3.80001,0.09333 5.69745,0.167887 1.34128,4.31e-4 2.68254,0.0011 4.02381,0.0014 0.54514,-0.638898 1.56081,-1.108722 1.36173,-2.129079 0.0433,-10.631848 0.0866,-21.263694 0.12994,-31.895541 3.03169,-0.02022 6.06338,-0.04045 9.09508,-0.06068 0.0356,10.566261 -0.0741,21.135214 0.11233,31.699582 -0.008,1.434004 1.39378,2.395013 2.71041,2.358311 2.98538,-0.03519 5.99098,0.19605 8.96158,-0.178109 1.10911,-0.242774 1.64092,-1.47918 1.49861,-2.539629 0.1045,-4.101111 0.0599,-8.204023 0.0685,-12.306019 4.43938,-2.861728 8.92719,-5.645546 13.44238,-8.382848 4.6323,2.815114 9.21061,5.719101 13.80416,8.598144 0,4.428577 0,8.857154 0,13.28573 0.57901,0.560192 0.94443,1.639154 1.93395,1.4789 6.11781,0.0244 12.23562,0.04879 18.35344,0.07319 2.49247,5.514823 4.89234,11.07975 7.51442,16.528872 1.10952,1.616036 3.95187,0.911929 4.28539,-0.996234 4.03897,-12.853575 7.9405,-25.750901 11.98554,-38.600642 1.77343,7.236124 3.40417,14.510592 5.2571,21.725022 0.46103,1.253498 1.97948,1.217251 3.07414,1.26645 8.95671,0.148513 17.91526,0.04059 26.87277,0.07457 0,-1.678658 0,-3.357315 0,-5.035972 -8.64817,-0.003 -17.29648,0.02206 -25.94448,-0.04697 -2.24944,-9.4198 -4.42312,-18.862753 -6.76943,-28.255798 -0.525,-1.539337 -2.75494,-2.140658 -3.85214,-0.867898 -0.69632,0.908722 -0.82231,2.110923 -1.24578,3.154531 -4.15561,13.022828 -8.0512,26.128878 -12.17337,39.160949 -1.8887,-4.094016 -3.61578,-8.276472 -5.69387,-12.273838 -0.86662,-1.013197 -2.34818,-0.673675 -3.51717,-0.778497 -5.08195,-0.09915 -10.165,-0.111382 -15.2476,-0.157063 -0.0955,-4.075899 0.0442,-8.170636 -0.29213,-12.232735 -0.34392,-0.998328 -1.43288,-1.265966 -2.16795,-1.873282 -4.94421,-3.205284 -9.90518,-6.394025 -14.99488,-9.357349 -0.91221,-0.502581 -2.04045,-0.394441 -2.85508,0.250988 -4.58828,2.66078 -9.01911,5.586029 -13.51119,8.408044 -0.9211,0.650283 -1.96573,1.184398 -2.74676,2.003999 -0.45973,0.878181 -0.11629,1.922027 -0.23376,2.871252 -0.0182,3.327962 -0.0363,6.655924 -0.0545,9.983885 -1.24531,-0.01631 -2.49061,-0.03262 -3.73593,-0.04893 -0.0447,-10.920079 -0.0872,-21.840173 -0.1335,-32.760244 -0.66253,-0.446726 -1.11768,-1.397516 -2.03918,-1.283948 z" /></g></svg>
