<?xml version="1.0" encoding="UTF-8"?>
<!-- Generator: Adobe Illustrator 19.1.1, SVG Export Plug-In . SVG Version: 6.00 Build 0)  -->
<svg version="1.1" id="Layer_1" xmlns="http://www.w3.org/2000/svg" xmlns:xlink="http://www.w3.org/1999/xlink" x="0px" y="0px" viewBox="0 0 290.4 290.4" style="enable-background:new 0 0 290.4 290.4;" xml:space="preserve"><script xmlns=""/>
<style type="text/css">
	.st0{fill-rule:evenodd;clip-rule:evenodd;}
	.st1{fill-rule:evenodd;clip-rule:evenodd;fill:#BD2B30;}
	.st2{fill:#BD2B30;}
	.st3{fill:none;}
</style>
<g>
	<g>
		<path class="st0" d="M161.6,240.6c-1-0.4-1.7-0.9-2.3-1.8c-1.1-1.7-4.9-7.2-5.5-8.2c-0.1-0.1-0.1-0.4,0.1-0.5l1-0.3    c1.2-0.2,2.3-1.3,2.7-2.4c0.5-1.4,0.4-3.1,0-4.5c-0.2-1-1-1.9-1.9-2.5c-0.3-0.2-0.6-0.3-1.1-0.4c-0.5-0.1-0.9-0.2-1.6-0.2    c-3.2,0-6,0-9.1,0c-0.2,0-0.3,0.1-0.3,0.3c0,0.2,0.3,0.2,0.6,0.3c0.5,0.2,0.8,0.9,0.8,1.7l0,16.6c0.1,1.1-0.7,1.7-1.3,1.7    c-0.3,0-0.4,0.5,0.1,0.5c1.7-0.1,3.6-0.1,5.3,0.1c0.1,0,0.4-0.1,0.4-0.3c0-0.1-0.1-0.2-0.3-0.3c-0.9-0.3-1.3-0.4-1.4-1.6l0-6.5    c0-0.1,0-1.2,0-1.4c0-0.5,1.6-0.3,2.3-0.2c0.6,0,0.8,0.5,1.1,0.9c2,2.9,3.2,4.8,4.8,7.3c0.5,0.7,1.1,1.2,1.8,1.5    c1.1,0.6,2.1,0.7,3.3,0.8c0.1,0,0.3-0.1,0.3-0.2C161.8,240.9,161.9,240.7,161.6,240.6L161.6,240.6z M150.7,229.1    c-0.7,0-1.6-0.1-2.3-0.2c-0.2,0-0.2-0.2-0.2-0.5c0-3.3,0.1-6.2,0.1-6.7c0-0.5,0.9-0.4,1.4-0.4c1.6,0,3.3-0.2,4.3,0.5    c0.6,0.4,1,1.1,1.2,1.6c0.3,0.8,0.2,1.9,0.2,2.7c-0.1,0.9-0.7,1.8-1.5,2.4C153.4,228.6,152,229,150.7,229.1L150.7,229.1z"/>
		<path class="st0" d="M172.4,202.3c-0.7-0.2-1.2-0.6-1.6-1.2c-2-4-6.5-15.6-6.5-15.6c-0.8-1.8-1.7-4.2-2-4.8    c-0.1-0.4-0.4-0.1-0.5,0.1c-2.1,4.8-8.3,18-9.1,19.5c-0.5,1-1.2,1.5-1.5,1.7c-0.4,0.3-0.9,0.2-0.9,0.5c0,0.1,0.1,0.3,0.3,0.3    c0.7,0,3.2-0.3,4.9-0.1c0.2,0,0.3-0.2,0.3-0.3c0-0.2-0.4-0.3-0.6-0.5c-0.4-0.4-0.5-0.9-0.4-1.3c0.7-2,1.6-3.7,2.3-5.5    c0.1-0.2,0.3-0.4,0.5-0.4l7.5,0c0.2,0,0.2,0.1,0.2,0.2l1.7,4.3c0.2,0.8,0.6,1.6,0.4,2.6c-0.2,0.6-1,0.4-1,0.8    c0,0.1,0.1,0.2,0.3,0.2c2-0.1,3.8-0.2,5.7,0c0.2,0,0.3-0.1,0.3-0.3C172.8,202.4,172.6,202.3,172.4,202.3L172.4,202.3z M163.5,193    h-5.2c-0.1,0-0.1-0.2-0.1-0.2c1.1-2.4,2.2-4.7,3.2-7.1c0.1-0.1,0.2-0.2,0.3-0.1c0.4,1,2.5,6.4,2.7,6.8    C164.6,193,164.4,193,163.5,193L163.5,193z"/>
		<path class="st0" d="M212.8,202.3c-0.7-0.2-1.3-0.6-1.6-1.2c-2-4-6.5-15.6-6.5-15.6c-0.8-1.8-1.7-4.2-2-4.8    c-0.1-0.4-0.4-0.1-0.5,0.1c-2.1,4.8-8.3,18-9.1,19.5c-0.6,1-1.2,1.5-1.5,1.7c-0.4,0.3-0.9,0.2-0.9,0.5c0,0.1,0.1,0.3,0.3,0.3    c0.7,0,3.2-0.3,4.9-0.1c0.2,0,0.3-0.2,0.3-0.3c0-0.2-0.4-0.3-0.6-0.5c-0.5-0.4-0.5-0.9-0.4-1.3c0.7-2,1.5-3.7,2.3-5.5    c0.1-0.2,0.3-0.4,0.5-0.4l7.6,0c0.2,0,0.2,0.1,0.2,0.2l1.7,4.3c0.2,0.8,0.6,1.6,0.4,2.6c-0.2,0.6-1,0.4-1,0.8    c0,0.1,0.1,0.2,0.3,0.2c2-0.1,3.8-0.2,5.7,0c0.2,0,0.3-0.1,0.3-0.3C213.2,202.4,213,202.3,212.8,202.3L212.8,202.3z M203.8,193    h-5.2c-0.1,0-0.1-0.2-0.1-0.2c1.1-2.4,2.2-4.7,3.2-7.1c0.1-0.1,0.2-0.2,0.3-0.1c0.4,1,2.5,6.4,2.7,6.8    C205,193,204.7,193,203.8,193L203.8,193z"/>
		<path d="M146.3,181.5c0.5,0.1,0.4,0.4,0.4,0.8c0,1,0,1.7,0,2.9c0,0.2,0.1,0.6-0.2,0.6c-0.5,0-0.5-1.2-0.9-1.6    c-0.5-0.6-1.9-1.6-3.5-1.6c-2,0-3.4,1.2-3.4,2.8c0,2,0.4,2.7,3,3.9c1.6,0.8,5.4,1.8,6.7,3.9c0.7,1,0.8,2.1,0.8,3.4    c-0.1,1.6-0.6,3.1-1.6,4.3c-2.2,2.8-7.8,2.4-10.6,2c-0.4,0-0.9,0.2-0.9-0.3c0.1-1.4,0-2.7,0-4.1c0-0.4,0.2-0.5,0.4-0.4    c0.2,0.2,0.2,0.5,0.3,0.7c1,1.9,2.5,2.6,5.5,2.6c1.9,0,3.8-1,4.5-3c0.4-1.2,0.2-2.6-0.7-3.4c-1.6-2-4.1-2.7-6.3-3.5    c-1.3-0.5-3.5-1.9-3.5-5.5c0-1.5,0.9-3.1,2-3.8C140.5,180.7,144.1,181,146.3,181.5L146.3,181.5z"/>
		<path d="M180.7,181.6c0.2,0,0.2,0.3,0,0.5c-0.5,0.3-1,0.3-1.2,0.9c-0.4,1.3-0.2,2.7-0.3,4l0,8c0.1,3.1-0.4,4.5,1.4,5.9    c0.7,0.5,4.2,0.4,5.1,0.3c1.9-0.2,2.6-1.2,3-2c0.1-0.2,0.2-0.4,0.4-0.4c0.3,0,0.3,0.2,0.2,0.5c-0.1,1-0.3,2.3-0.4,3.1    c-0.1,0.2-0.3,0.5-0.5,0.5c-4,0.2-10.1-0.1-13.3,0.1c-0.2,0-0.4,0-0.4-0.3s0.2-0.4,0.4-0.5c0.5-0.2,0.8-0.2,1.1-0.8    c0.3-0.5,0.4-1.1,0.4-1.8c0.1-6.6,0.1-14.3-0.2-16.4c-0.1-0.6-0.9-0.8-1.4-1.1c-0.2-0.1-0.1-0.5,0.2-0.5    C176.1,181.6,179.4,181.7,180.7,181.6L180.7,181.6z"/>
		<path d="M86.4,236.2l0-13.1c0-0.6-0.1-0.8-0.2-1.2c-0.2-0.7-0.6-1.2-1.3-1.6c-0.3-0.1-0.2-0.5,0-0.5c1.6,0.1,3,0,4.5,0    c0.2,0,0.3,0.1,0.3,0.2c0,0.4-0.4,0.4-0.7,0.7c-0.4,0.4-0.7,0.8-0.8,1.5c-0.2,2.8,0,15.4,0,15.4c0,1.2,0,2.2,0.1,3.5    c0,0.4-0.3,0.5-0.4,0.4c-0.8-0.8-1.7-1.6-2.7-2.7c-3.5-3.2-11.1-10.8-14.6-14c-0.1-0.1-0.2,0-0.2,0.1c0,0-0.1,12.3,0.3,14.3    c0.1,0.5,0.8,1.2,1.3,1.4c0.1,0,0.2,0.1,0.2,0.2c0,0.1-0.1,0.2-0.3,0.2c-1.7-0.2-3.4-0.3-5.1,0c-0.2,0-0.2-0.1-0.2-0.2    c0-0.5,1.1-0.3,1.6-1.4c0.4-0.9,0.3-18.5,0.3-18.5l0-2c0-0.2,0.2-0.2,0.3-0.1C68.7,218.7,84.8,234.8,86.4,236.2L86.4,236.2z"/>
		<path d="M207.7,219.7c0.1,0,0.2,0.1,0.2,0.2l0,3.5c0,0.7-0.5,0.6-0.7,0.1c-0.2-0.6-0.4-1.1-0.6-1.3c-0.6-0.7-1.3-1.1-2.2-1.2l-4,0    c-0.5,0-0.7,0.2-0.7,0.7c-0.1,6.3-0.3,15.8,0.1,17.1c0.4,1.3,1.1,1.4,1.6,1.6c0.3,0.1,0.4,0.5-0.1,0.5c-1.5,0-6,0-6,0    c-0.5,0-0.4-0.5-0.1-0.5c0.6-0.2,1-0.3,1.3-0.8c0.3-0.4,0.4-0.8,0.4-1.5c0-1,0.1-11.8,0.1-15.4c0-1.2-0.2-1.5-0.4-1.6    c-0.7-0.2-4-0.3-5.5,0.2c-0.9,0.3-1.4,1.2-1.4,2.1c0,0.2-0.1,0.3-0.3,0.3c-0.1,0-0.2,0-0.2-0.3l0-3.5c0-0.2,0.2-0.3,0.6-0.3    L207.7,219.7L207.7,219.7z"/>
		<path d="M138,220.1c0,1,0,1.5,0,2.4c0,0.1-0.1,0.2-0.2,0.2c-0.3,0-0.6-0.9-1.1-1.2c-1.6-0.9-3.5-0.6-5.5-0.6c0,0-1.1,0-1.2,0.3    c0,0.1-0.1,4.9-0.1,7.3c0,0.1,0.1,0.2,0.2,0.2c0.3,0,6.4,0,6.4,0c0.5,0,0.7-0.6,0.7-0.7c0.1-0.3,0.5-0.3,0.5,0    c-0.1,1.2-0.1,2.4-0.1,3.5c0,0.1-0.2,0.1-0.3-0.1c-0.5-0.8-1.1-1.2-2.1-1.2c-1.8,0-3.4-0.1-5.2,0.1c-0.1,0-0.1,0.1-0.1,0.3    c0,2.2-0.1,4,0,6.3c0,0.8,0.2,1.5,0.8,2c1.2,0.8,2.9,0.6,4.3,0.5c1.1,0,2.4,0.1,3.1-0.9c0.4-0.6,0.2-0.9,0.7-1.5    c0.1-0.1,0.3-0.1,0.3,0.1c-0.1,1.5-0.1,1.9-0.1,3.6c0,0.2-0.2,0.2-0.2,0.2s-12.4,0-12.9,0c-0.2,0-0.3-0.4,0-0.5    c0.7-0.2,1.5-0.3,1.5-1.7l0-6.5c0.1-3.4,0.3-7-0.1-10.5c-0.1-0.6-0.3-1.2-0.9-1.4c-0.2-0.1-0.6,0-0.6-0.3c0-0.3,0.1-0.4,0.5-0.4    c3.7,0,7.4,0,11.1,0C137.7,219.6,138,219.7,138,220.1L138,220.1z"/>
		<path d="M122.5,219.7c0.3,0,0.4,0.3,0.2,0.4c-0.4,0.3-1.2,0.4-1.4,1.1c-2.7,6.8-5.6,13.3-8.4,20.1c0,0.1-0.2,0.2-0.3,0    c0,0-5.4-11.8-9.5-20.1c-0.3-0.7-1.1-0.6-1.6-0.9c-0.1-0.1-0.1-0.2-0.1-0.3c0,0,0-0.2,0.3-0.2c1.3,0,3.9,0,5.4-0.1    c0.1,0,0.3,0.1,0.3,0.3c-0.1,0.5-1.2,0.6-0.7,1.6c1.2,2.9,3.2,7.7,6.5,14.2c0.1,0.2,0.3-0.4,0.4-0.6c1.8-4.1,3.4-8.4,5.1-12.5    c0.2-0.4,0.6-1.8-0.3-2.3c-0.2-0.1-0.6-0.2-0.6-0.4c0-0.1,0-0.3,0.2-0.3C119.5,219.7,120.8,219.7,122.5,219.7L122.5,219.7z"/>
		<path d="M99.2,219.7c0.3,0,0.4,0.5,0,0.6c-1,0.1-1.4,0.6-1.4,2.4c-0.1,2.2-0.1,14.7-0.1,14.7c0,1,0.3,2.1,0.5,2.3    c0.5,0.7,1.3,0.6,1.3,0.9c0,0.1,0,0.3-0.2,0.3c-1.9-0.2-3.8,0.1-5.6,0.1c-0.2,0-0.2-0.2-0.2-0.3c0-0.5,0.7-0.2,1-0.5    c0.3-0.3,0.5-0.8,0.5-1.2c0.1-8.3,0.2-11.3,0.1-17.2c0-1.2-1.5-1.4-1.9-1.6c-0.1-0.1-0.1-0.5,0.2-0.5    C95.3,219.7,97.2,219.7,99.2,219.7L99.2,219.7z"/>
		<path d="M95.7,181.5c0.2,0,0.3,0.1,0.3,0.2c0,0.1-0.1,0.2-0.3,0.3c-1.2,0.4-1.5,1.7-1.6,2.8c0,3.4,0,7.1,0,10.6    c-0.1,1.9-0.4,3.6-1.6,5c-0.9,1.1-2.3,2.1-4.7,2.5c-1.6,0.3-3.2,0.4-4.8,0.1c-2.3-0.4-3.1-0.8-4.6-2.3c-1.3-1.3-1.6-2.8-1.7-5.1    l0-11.7c-0.1-1.1-0.2-1.7-1.3-2.1c-0.1,0-0.1-0.2-0.1-0.3c0.1-0.2,0.6-0.1,0.9-0.1c1.6,0,3.1,0,4.8,0c0.1,0,0.2,0.1,0.2,0.2    c0,0.2-0.4,0.2-0.6,0.3c-1.4,0.7-1,2.1-1.1,3.5l0,7.3c0,2.8-0.4,6.7,2.8,8c1.1,0.5,2.4,0.4,3.4,0.4c4.6,0,6.1-2.9,6.2-4.8    c0.1-3.2,0.1-11.7-0.1-12.4c-0.2-1.1-1.2-1.7-1.8-2.1c-0.1-0.2,0-0.4,0.3-0.4C91.4,181.6,94.8,181.6,95.7,181.5L95.7,181.5z"/>
		<path class="st0" d="M110.1,181.6c-3.2-0.4-6.7,0-10-0.1c-0.3,0-0.6,0-0.6,0.2c0,0.4,0.5,0.3,0.8,0.4c0.5,0.2,1.2,0.9,1.2,2.4    c0,1.2,0.1,11.4,0,13.4c0,1.3,0.2,3.9-1.4,4.4c-0.2,0.1-0.5,0.2-0.5,0.3c0,0.1,0,0.2,0.2,0.2c1.3,0,3.7-0.2,5.8,0    c0.2,0,0.2-0.1,0.2-0.3c0-0.2-0.5-0.3-0.8-0.4c-0.8-0.4-0.8-1.6-0.8-2.5c0-2.5-0.1-4.5-0.1-6.6c0-0.4,0.2-0.5,0.4-0.5    c8.2,0.7,9.3-3.2,9.3-6.1C113.8,184.2,112.8,181.9,110.1,181.6L110.1,181.6z M108.4,191.1c-0.7,0-2.7,0.1-3.7,0    c-0.3,0-0.4-0.4-0.4-0.6c-0.1-2.5-0.2-5.2,0-7.3c0-0.4,0.5-0.3,0.7-0.3c1.6-0.1,2.9-0.1,4.2,0.1c0.6,0.1,1.2,0.5,1.5,1    c0.5,0.9,0.5,1.9,0.6,2.9C111.5,189.3,109.9,191,108.4,191.1L108.4,191.1z"/>
		<path class="st0" d="M128.3,181.6c-3.2-0.4-6.7,0-10-0.1c-0.3,0-0.6,0-0.6,0.2c0,0.4,0.5,0.3,0.8,0.4c0.5,0.2,1.2,0.9,1.2,2.4    c0,1.2,0.1,11.4,0,13.4c0,1.3,0.2,3.9-1.4,4.4c-0.2,0.1-0.5,0.2-0.5,0.3c0,0.1,0,0.2,0.2,0.2c1.3,0,3.7-0.2,5.8,0    c0.2,0,0.2-0.1,0.2-0.3c0-0.2-0.5-0.3-0.8-0.4c-0.8-0.4-0.8-1.6-0.8-2.5c0-2.5-0.1-4.5-0.1-6.6c0-0.4,0.2-0.5,0.4-0.5    c8.2,0.7,9.3-3.2,9.3-6.1C131.9,184.2,131,181.9,128.3,181.6L128.3,181.6z M126.6,191.1c-0.7,0-2.7,0.1-3.7,0    c-0.3,0-0.4-0.4-0.4-0.6c-0.1-2.5-0.2-5.2,0-7.3c0-0.4,0.5-0.3,0.7-0.3c1.6-0.1,2.9-0.1,4.2,0.1c0.6,0.1,1.2,0.5,1.5,1    c0.5,0.9,0.5,1.9,0.6,2.9C129.7,189.3,128,191,126.6,191.1L126.6,191.1z"/>
		<path d="M64.1,219.9c0.2,0,0.3,0.1,0.3,0.2c0,0.1-0.1,0.2-0.3,0.2c-1.2,0.4-1.5,1.7-1.6,2.8c0,3.4,0,7.1,0,10.6    c-0.1,1.9-0.4,3.6-1.6,5c-0.9,1.1-2.3,2.1-4.7,2.5c-1.6,0.3-3.2,0.4-4.8,0.1c-2.3-0.4-3.1-0.8-4.6-2.3c-1.3-1.3-1.6-2.8-1.7-5.1    l0-11.7c-0.1-1.1-0.2-1.7-1.3-2.1c-0.1,0-0.1-0.2-0.1-0.3c0.1-0.2,0.6-0.1,0.9-0.1c1.6,0,3.1,0,4.8,0c0.1,0,0.2,0.1,0.2,0.2    c0,0.2-0.4,0.2-0.6,0.3c-1.4,0.7-1,2.1-1.1,3.5l0,7.3c0,2.8-0.4,6.7,2.8,8c1.1,0.5,2.4,0.4,3.4,0.4c4.6,0,6.1-2.9,6.2-4.8    c0.1-3.2,0.1-11.7-0.1-12.4c-0.2-1.1-1.2-1.7-1.8-2.1c-0.1-0.2,0-0.4,0.3-0.4C59.8,219.9,63.3,220,64.1,219.9L64.1,219.9z"/>
		<path d="M173.9,219.6c0.5,0.1,0.4,0.4,0.4,0.8c0,1,0,1.7,0,2.9c0,0.2,0,0.6-0.2,0.6c-0.5,0-0.5-1.2-0.9-1.6    c-0.5-0.6-1.9-1.6-3.5-1.6c-2,0-3.4,1.2-3.4,2.8c0,2,0.4,2.6,3,3.9c1.6,0.8,5.4,1.8,6.7,3.9c0.7,1,0.8,2.1,0.8,3.4    c-0.1,1.6-0.6,3.1-1.6,4.3c-2.2,2.8-7.8,2.4-10.6,2c-0.4,0-0.9,0.2-0.9-0.3c0.1-1.4,0-2.7,0-4.1c0-0.4,0.2-0.5,0.4-0.4    c0.2,0.2,0.2,0.5,0.3,0.7c1,1.9,2.5,2.6,5.5,2.6c1.9,0,3.8-1,4.5-3c0.4-1.2,0.2-2.6-0.7-3.4c-1.6-2-4.1-2.7-6.3-3.5    c-1.3-0.5-3.5-1.9-3.5-5.5c0-1.5,0.9-3.1,2-3.8C168,218.8,171.6,219.1,173.9,219.6L173.9,219.6z"/>
		<path d="M185.6,219.6c0.2,0,0.4,0.5,0,0.6c-1,0.1-1.4,0.6-1.4,2.4c0,2.2,0,14.7,0,14.7c0,1,0.3,2.1,0.5,2.3    c0.5,0.7,1.3,0.6,1.3,0.9c0,0.1,0,0.3-0.2,0.3c-1.9-0.2-3.8,0.1-5.6,0.1c-0.2,0-0.2-0.2-0.2-0.3c0-0.5,0.7-0.2,1-0.5    c0.3-0.3,0.5-0.8,0.5-1.2c0.1-8.3,0.2-11.3,0.1-17.2c0-1.2-1.5-1.4-1.9-1.6c-0.1-0.1-0.1-0.5,0.2-0.5    C181.7,219.6,183.6,219.6,185.6,219.6L185.6,219.6z"/>
		<path d="M223.9,220.1c0,1,0,1.5,0,2.4c0,0.1-0.1,0.2-0.2,0.2c-0.3,0-0.6-0.9-1.2-1.2c-1.6-0.9-3.5-0.6-5.5-0.6c0,0-1.1,0-1.2,0.3    c0,0.1-0.1,4.9-0.1,7.3c0,0.1,0.1,0.2,0.2,0.1c0.3,0,6.4,0,6.4,0c0.5,0,0.7-0.6,0.7-0.7c0.1-0.3,0.5-0.3,0.5,0    c-0.1,1.2-0.1,2.4-0.1,3.5c0,0.1-0.2,0.1-0.3-0.1c-0.5-0.8-1.1-1.2-2.1-1.2c-1.8,0-3.4-0.1-5.2,0.1c-0.1,0-0.1,0.1-0.1,0.3    c0,2.2-0.1,4-0.1,6.3c0,0.8,0.2,1.5,0.8,2c1.2,0.8,2.9,0.6,4.3,0.5c1.1,0,2.4,0.1,3.1-0.9c0.4-0.6,0.2-0.9,0.7-1.5    c0.1-0.1,0.3-0.1,0.3,0.1c-0.1,1.5-0.1,1.9-0.1,3.6c0,0.2-0.2,0.2-0.2,0.2s-12.4,0-12.9,0c-0.2,0-0.3-0.4,0-0.5    c0.7-0.2,1.5-0.3,1.5-1.7l0-6.5c0.1-3.4,0.3-7-0.1-10.5c-0.1-0.6-0.3-1.2-0.9-1.4c-0.2-0.1-0.6,0-0.6-0.3c0-0.3,0.1-0.4,0.5-0.4    c3.7,0,7.4,0,11.1,0C223.6,219.6,223.9,219.7,223.9,220.1L223.9,220.1z"/>
		<path d="M246.3,219.6c0.1,0,0.2,0.1,0.2,0.2l0,3.5c0,0.7-0.5,0.6-0.7,0.1c-0.2-0.6-0.4-1.1-0.6-1.3c-0.6-0.7-1.3-1.1-2.2-1.2h-4    c-0.5,0-0.7,0.2-0.7,0.7c-0.1,6.3-0.3,15.8,0.1,17.1c0.4,1.3,1.1,1.4,1.6,1.6c0.3,0.1,0.4,0.5-0.2,0.5c-1.5,0-6,0-6,0    c-0.5,0-0.4-0.5-0.1-0.5c0.6-0.2,1-0.3,1.3-0.8c0.3-0.4,0.4-0.8,0.4-1.5c0-1,0.1-11.8,0-15.4c0-1.2-0.2-1.5-0.4-1.6    c-0.7-0.2-4-0.3-5.5,0.2c-0.9,0.3-1.4,1.2-1.4,2.1c0,0.2-0.1,0.3-0.3,0.3c-0.1,0-0.2-0.1-0.2-0.3l0-3.5c0-0.2,0.2-0.3,0.6-0.3    L246.3,219.6L246.3,219.6z"/>
		<path class="st1" d="M122.7,139.5c-0.9-0.7-1.8-1.3-2.8-1.7c-1.1-0.1-2.2,0-2.8,0.9c-0.6,0.7-0.5,1.8-0.2,2.6    c0.2,0.5-1.1,0.8-1.3,1.2c-0.6,0.7,0,1.9,0.5,2.3c0.5,0.4,1,0.8,1.5,1.1c0.8,0.7,1.8,1,2.7,1.4c0.1,0,0.4,0.1,0.5-0.1    c0.3-0.4,0-0.3-0.3-0.7c-0.4-0.7,0.4-1.8,0.7-2.4c0.5-1.1,0.8-2.1,1.9-2.7c0.5-0.2,1.2,0.2,1.4-0.4    C124.2,140.3,123.3,140.2,122.7,139.5L122.7,139.5z M118.6,145.1c-0.5,0.3-1-0.5-1.4-0.8c0-0.3,0-0.7,0.2-1c0.2-0.2,0.7-0.7,1-0.6    c0.2,0.3,0.7,0.6,1,0.8C119.4,144,118.8,144.8,118.6,145.1L118.6,145.1z M120.4,141.6c-0.1,0.2-0.4,0.8-0.6,0.9    c-0.4-0.1-0.8-0.5-1.2-0.9c-0.7-0.8,0.1-1.5,0.2-1.9c0.6-0.4,1.9-0.4,2.5,0C121.6,140.4,120.5,141,120.4,141.6L120.4,141.6z"/>
		<path class="st1" d="M139,105.8c-0.5,0.2,0,1-0.9,1c-0.7,0.1-1.6-0.5-2-1.2c0.3-0.4,1.2-0.5,1.2-1.6c0-1-0.3-1.6-1.5-2    c-0.8-0.3-1.8-0.1-2.7-0.1c-0.3,0.1-0.9-0.1-1.1,0.2c-0.1,0.3,0.3,0.3,0.5,0.5c0.2,1.2,0,3.3-0.1,4.5c0,0.4-0.8,0.5-0.4,0.9    c0.3,0.4,1.1,0.1,1.5,0.2c0.2,0,0.4,0.1,0.6,0c0.4-0.3,0-0.7,0.1-1c0-0.3-0.4-1.3,0.9-0.5c0.7,0.5,1.3,1.2,2.1,1.4    c0.5,0.1,1.5,0.3,1.8-0.3c0.3-0.5,0.6-1,0.4-1.6C139.3,106,139.2,105.7,139,105.8L139,105.8z M135.4,104.8    c-0.2,0.4-0.7,0.5-1.1,0.4c-0.4-0.2,0-1.3-0.2-1.6c-0.1-0.2,0-0.6,0.1-0.8c0.4-0.2,1-0.2,1.2,0.3    C135.5,103.6,135.5,104.5,135.4,104.8L135.4,104.8z"/>
		<path class="st1" d="M135.2,72.9c-0.3-0.3-1.9,0.2-2.2,0.3c-0.8,0.6-0.4,1.6-0.2,2.3l-0.1,2.3c-0.1,0.8-0.3,1.5-0.6,2.2    c0.4,0.4,0.9,0,1.4-0.2c0.3-0.2,0.7-0.2,0.8-0.6c0-0.2-0.3-0.1-0.4-0.2c-0.1-0.1-0.2-0.3-0.2-0.5c0-0.5,0.4-0.8,0.8-1.1    c0.4-0.1,1.8-0.9,2.2-0.6c0.2,0.2,0.3,0.4,0.3,0.6c0.1,0.4-0.9,0.9-0.1,1.1c0.8,0.2,1.9-0.8,2.6-1.1l0-0.1    c-0.7-0.6-0.5-0.1-1.1-0.9C138.6,76.5,136,73.4,135.2,72.9L135.2,72.9z M135.7,76.2c-0.2,0.1-1.6,0.8-1.8,0.6    c-0.2-0.6-0.4-2,0-2.6c0.7-0.3,1.5,1,1.9,1.4C135.8,75.8,135.8,76.1,135.7,76.2L135.7,76.2z"/>
		<path class="st1" d="M128.1,80.4c-0.3-0.1-0.6,0-0.8,0.3c-0.1,0.3-0.1,0.6-0.1,0.9c-0.1,0.3-0.3,0.7-0.7,0.8c-0.3,0-1.1,0-1.1,0    c0.3-0.8,0.3-2-0.4-2.6c-0.5-0.5-0.9-0.9-1.6-0.7c-0.8,0-1.6,0.3-2,1c-0.6,0.6-1.5,1.1-2.1,1.7c-0.1,0.2,0,0.4,0.2,0.5    c0.6-0.1,1.1,0.3,1.5,0.6c0.6,0.7,1.3,1.7,1.8,2.4c0.5,0.5-0.2,1.1,0.4,1.6c0.1,0.1,0.4,0.1,0.5,0.1l1.8-1.8    c0.1-0.3-0.1-0.7-0.5-0.6c-0.2,0-0.5-0.1-0.6-0.4c0.8-0.5,2-0.2,3-0.6c0.6-0.3,1.2-0.8,1.3-1.4C128.8,81.5,128.7,80.8,128.1,80.4    L128.1,80.4z M123.6,83c-0.6,0-1.3-1.5-1.8-1.7c0-0.2,0.5-0.7,0.7-0.8c0.9-0.6,1.6,0.6,1.7,1.3C124.3,82.2,123.8,82.8,123.6,83    L123.6,83z"/>
		<path class="st1" d="M140.5,148.3c-0.2,0.8-0.5,1.5-1.1,2.1c-0.6,0.7-1.4,1-2.2,1.3c-1.2,0.3-1.6-0.5-2.5,0.5    c-0.1,0.2,0,0.4,0.2,0.6c1,0.5,1.3,0.3,2.4,0.3c0.7,0.1,1.6,0.1,2.4,0.1c0.7-0.3,1.5-0.4,2.2-0.7c0.7-0.3,1.8-1.2,2.6-1.1l2.2,1.1    c2.2,0.6,3.1,0.4,4.7,0.4c0.7-0.1,1.1-0.6,1.5-1.2c0-0.3,0.1-0.6-0.1-0.8c-0.3-0.3-0.6,0-1-0.1c-1.2-0.3-2.5-0.3-3.3-1.5    c-0.2-0.3-0.5-0.6-0.7-0.9l-1.5,0c0.5,0.9,1.1,1.7,1.7,2.5c0.1,0.2,0.5,0.3,0.3,0.5c-0.4,0.1-1.3-0.6-1.7-0.8c-1-0.5-2-2-3.7-1.1    c-0.4,0.2-0.6,0.3-1,0.6c-0.2,0.1-1.1,0.9-1.3,0.8l0.8-1.4c0.1-0.4,0.2-0.8,0.4-1.2H140.5L140.5,148.3z"/>
		<path class="st1" d="M135.7,143.4C135.8,143.4,135.8,143.4,135.7,143.4c1.2,0.2,2.5,0.1,3.6,0.4c0.5,0.5,1.4,0.5,1.7,1.3    c0.2,0.4,0.2,0.8,0.1,1.2c-0.2,0.7-0.4,1.3-0.6,2l1.5,0c0.2-0.6,0.5-1.2,0.5-1.8c0.1-0.6,0.3-1.4-0.1-2.1c-0.2-0.3-0.5-0.7-0.8-1    L135.7,143.4L135.7,143.4z M146.3,143.4c-0.4,0.8-0.7,1.6-0.7,2.2c0.1,1,0.4,1.8,0.9,2.6l1.5,0c-0.7-1-1-2.3-0.6-3.5    c0.4-0.7,1.2-0.7,1.9-0.7c0.9-0.3,1.9-0.5,2.9-0.7H146.3L146.3,143.4z"/>
		<path class="st1" d="M116.2,133.6C116.2,133.7,116.3,133.7,116.2,133.6c1.2,1.6,2.9,2.4,4.2,3.7c2,1.3,4,2.3,6.1,3.4    c1.2,0.6,2.5,1,3.8,1.3c1.7,0.8,3.7,0.8,5.5,1.4l5.9,0c-0.8-0.8-1.9-1.6-2.3-2c0-0.2,0.2-0.2,0.4-0.3c0.9,0,3.2,1.4,3.9,0.7    c0.2-0.2,0.4-0.7,0.7-0.6c0.5,0.8,1.6,0.6,2.3,0.5c0.3,0,1-0.4,1.4-0.5c0.1,0.1,0.1,0.2,0.1,0.3c-0.7,0.4-1.3,1.2-1.8,2l5.9,0    c1.6-0.3,3.1-0.7,4.5-1.4c1.9-0.5,3.7-1.4,5.5-2.2c1.6-0.9,3.1-1.8,4.6-2.9c1.3-0.9,2.4-2.1,3.5-3.2l-2,0    c-1.5,1.5-3.4,2.4-5.1,3.5c-2.5,1.4-5,2.7-7.6,3.6c-1.5,0.8-3.3,1-4.9,1.6c-0.4,0.1-0.9,0.1-1.1-0.3c-0.1-0.2-0.2-0.4,0-0.6    c0.5-0.4,1.3-0.3,1.6-1.1c0.1-0.5-0.4-0.6-0.8-0.8c-0.7-0.3-1.5,0.2-2.2,0.2c-0.9,0.3-1.6,0.7-2.6,0.4c-0.3-0.2-0.6-0.4-0.9-0.7    l0-0.1c0.8,0.1,1.5-0.1,2.3-0.1c1.4,0.1,2.7-0.4,4.1-0.4c2.3-0.1,4.4-0.7,6.4-1.8c2-0.9,4-1.9,5.8-3.3c0,0,0,0,0,0l-2.6,0    c-1.4,0.8-2.8,1.7-4.3,2.4l-3.1,1.1l-0.9,0.2l-7.6,0.8c-0.9,0.2-1.8-0.1-2.8-0.1c-1.3-0.2-2.6-0.3-3.9-0.6    c-4.3-0.6-8.6-1.5-12.2-3.8h-2.6c1.7,1.2,3.4,2.4,5.4,2.9c2,0.8,4.2,1.2,6.3,1.7c2.7,0.6,5.7,0.7,8.6,1l0.1,0.1    c-0.9,0.3-0.9,2-2.1,1.4c-1.2-0.4-2.1-0.9-3.3-1.4c-0.6,0-1.6-0.3-1.9,0.3c-0.1,0.4-0.3,0.8-0.2,1.2c0.1,0.2,0.3,0.3,0.5,0.2    c0.2-0.3,0.7-0.1,1,0c0.1,0.1,0.1,0.3,0.1,0.4c-0.9,0.6-2.1,0.1-3.2,0.1c-1.4-0.4-2.9-0.6-4.2-1.2c-0.9-0.3-1.7-0.7-2.6-0.9    c-1.9-1-3.9-1.9-5.7-3.1c-1.2-0.7-2.5-1.6-3.6-2.6L116.2,133.6L116.2,133.6z"/>
		<path class="st1" d="M105.7,114.1c0.5,1.7,1.1,3.4,1.7,5.1c0.8,1.3,1.1,2.9,1.9,4.2c2.2,3.5,4.3,6.9,6.9,10.2h2.6    c-1.3-1.1-2.4-2.4-3.3-3.8c-2.3-2.8-4-5.8-5.4-8.9c-0.4-1.1-1.1-2.1-1.4-3.2c-0.5-1.2-0.9-2.4-1.3-3.6L105.7,114.1L105.7,114.1z     M110.6,114.1l0.6,2.1c0.5,1.6,1.3,3,1.7,4.6c0.8,2.4,2.7,4.4,4.2,6.5c1.2,1.8,2.9,3.2,4.5,4.8c0.7,0.5,1.4,1.1,2.1,1.6h2.6    c-0.5-0.3-1-0.6-1.5-1c-2-1.4-4.1-3.1-5.6-5c-1.2-1.3-2.2-2.7-3.2-4.1c-1-1.1-1.4-2.4-2.1-3.6c-0.7-1.9-1.3-3.8-1.5-5.8    L110.6,114.1L110.6,114.1z M119.4,114.1c0.6,1.1,1.2,2.1,1.8,3.2c1,1.8,2.7,3.3,4,5c1,1,2.1,1.9,3.1,2.8c3,2.4,6.5,3.5,10,4.7    c1.9,0.6,3.9,0.8,6,0.9c1.9,0,3.7-0.3,5.5-0.6c0.7,0.1,1.3-0.3,1.9-0.5c1.5-0.1,2.7-1.1,4.1-1.5c1.6-0.7,3-1.7,4.6-2.4    c1.8-1.3,3.2-3.3,4.8-4.9c0.7-1.4,2.1-2.5,2.7-4c0.4-0.9,1-1.8,1.4-2.7l-1.6,0c-0.4,0.8-1,1.5-1.5,2.2c-0.7,0.1-1.1-0.6-1.6-1    c-0.4-0.4-0.7-0.8-1.1-1.3l-2.1,0c0.8,0.8,1.6,1.6,2.5,2.4c0.5,0.7,1.3,1.5,0.7,2.4c-0.7,1.5-2.2,2.5-3.3,3.6    c-0.2,0.2-0.5,0.3-0.8,0.2c-1-1.7-1.8-3.5-2.7-5.3c-0.5-0.7-0.7-1.6-1.1-2.4c-0.2-0.3-0.4-0.6-0.6-1h-1.6c0.2,0.5,0.5,1,0.7,1.4    c0.8,1.3,1.2,2.7,1.9,4.1c0.8,1.3,1.5,2.6,2.4,3.8c0.1,0.2,0.1,0.3,0,0.5c-0.9,0.9-2.1,1.3-3.2,1.8c-0.9,0.3-1.8,0.7-2.8,0.6    c-0.3-0.1-0.5-0.3-0.5-0.6c-0.6-3.1-0.6-6.4-1.2-9.5c-0.1-0.7-0.1-1.5-0.2-2.2h-3.7l0.4,0.3c0.8,0.7,1.9,1.3,1.9,2.5    c0.4,1.3,0.6,3.2-0.3,4.4c-0.5,1.4-1.6,3-3,3.6c-1.3,0.8-4.1,0.9-5.4,0c-2-1.2-2.9-5.7-2-7.6c0.4-1,1.6-2.3,2.8-3h-3.4    c-1.8,1.7-2.7,3.8-2.8,6.2l-0.3,2.3c-0.7,0.8-0.8,1.9-1.6,2.7c-1.1,0.2-1.9-0.6-2.7-1.2c-0.6-0.5-0.5-1.5-0.2-2.1    c0.6-1.5,1.8-2.8,2.4-4.4c0.7-1.1,1.1-2.4,1.8-3.5l-1.4,0c-0.6,1.3-1.2,2.7-2,4c-0.6,0.8-0.8,1.7-1.3,2.5    c-0.5,0.5-0.5,1.5-1.4,1.6c-1.4-0.4-2.6-1.6-3.5-2.7c-0.3-1.3,0.6-2.2,1.2-3.2c0.6-0.7,1.1-1.4,1.6-2.1h-1.8    c-0.4,0.4-0.8,0.9-1.3,1.3c-0.6,0.3-0.9,1.1-1.6,0.8c-0.6-0.6-1-1.3-1.4-2.1L119.4,114.1L119.4,114.1z M176.3,114.1    c0,0.2-0.1,0.3-0.1,0.5c-0.4,1.2-0.8,2.4-1.3,3.5c-0.6,1.2-0.9,2.5-1.8,3.6c-1,1.4-1.8,2.9-3,4.1l-1.5,1.7    c-1.4,0.9-2.5,2.4-3.9,3.4c-0.8,0.6-1.5,1.3-2.4,1.8c-0.5,0.3-1,0.6-1.5,0.9h2.6c1.1-0.7,2-1.6,3.1-2.3c2.1-2.5,5-4.5,6.7-7.3    c1.8-2.3,3-4.9,4-7.5c0.4-0.8,0.7-1.6,1-2.4L176.3,114.1L176.3,114.1z M180.7,114.1c-0.2,0.4-0.3,0.9-0.5,1.3    c-0.9,2.4-1.9,4.8-3.3,7c-1.2,2.4-2.9,4.7-4.4,6.9c-1.1,1.4-2.5,2.4-3.7,3.6c-0.2,0.2-0.4,0.4-0.6,0.6l2,0    c0.8-0.8,1.5-1.6,2.3-2.3c0.7-1,1.5-1.9,2.3-2.9c1.2-1.7,2.5-3.4,3.3-5.2c0.6-1.1,1.2-2.1,1.7-3.2c1.1-1.8,1.7-3.9,2.2-5.9    L180.7,114.1L180.7,114.1z M137.4,124.1c0.6,1.4,2.1,1.8,3.3,2.4c1,0.2,1.9,0.7,3,0.8c0.3,0.1,0.2,0.4,0.2,0.6    c-0.3,0.8-1.4,0.3-2.1,0.4c-1.2-0.4-2.5-0.5-3.6-1c-1-0.2-2-0.5-2.8-1.2c-0.2-0.1-0.1-0.3,0-0.5c0.2-0.7,0.5-1.4,0.9-2    c0.1-0.2,0.3-0.5,0.3-0.5L137.4,124.1L137.4,124.1z M151.3,122.8c0.1,1.4,0.4,2.7,0.5,4.1c0,0.3-0.3,0.6-0.6,0.7    c-0.8,0.4-1.6,0.5-2.5,0.6c-0.9,0-1.9,0.4-2.7,0c-0.3-0.4-0.2-0.9,0.1-1.2c0.9-0.8,2.2-0.8,3.1-1.8c0.9-0.7,1.2-1.7,1.8-2.5    C151,122.4,151.3,122.6,151.3,122.8L151.3,122.8z"/>
		<path class="st1" d="M104.7,109.2c0.2,1.7,0.6,3.3,1,4.9l1.7,0c-0.5-1.6-0.9-3.3-1.3-4.9L104.7,109.2L104.7,109.2z M109.5,109.2    c0,0.2,0.1,0.4,0,0.6c-0.2,0.6,0.7,2.3,0.8,2.9l0.4,1.3h1.7c0-0.2,0-0.3-0.1-0.4c-0.2-0.9-0.5-1.8-0.6-2.7    c0.2-0.9,1.2-0.4,1.8-0.5c0.6,0,1.1-0.3,1.7-0.3c1,0.1,2.5-0.4,2.9,0.8c0.3,1.1,0.8,2.1,1.3,3.1l3,0c-0.3-0.7-0.5-1.4-0.6-2    c0.1-0.4,0.1-1,0.6-1.1c1.1-0.5,2.8,0.2,4,0l1,0.1c0.4,0.1,0.8,0.1,1.1,0.4c0,0.6-0.6,1-0.8,1.5c-0.4,0.4-0.7,0.8-1.1,1.2l1.8,0    c0.6-0.7,1.1-1.5,1.8-2.2c1.2-1.1,3-1.4,4.6-0.9c0.2,0.1,0.2,0.3,0.2,0.5c-0.1,0.6-0.6,1.1-0.8,1.8c-0.1,0.3-0.2,0.5-0.4,0.8    l1.4,0c0.1-0.1,0.2-0.3,0.3-0.4c0.6-1,1-2.1,2.1-2.8c1.1-0.5,2.5-0.2,3.3,0.8c0.3,0.2,0.5-0.2,0.8-0.3c0.6-0.2,1.1-0.3,1.7,0    c0.2,0.3,0.5,0.5,0.9,0.4c0.7,0,1.1-0.5,1.8-0.7c0.9-0.1,2.1-0.3,2.9,0.2c0.4,0.5,0.4,1.2,0.6,1.9c0,0.2,0,0.4-0.1,0.6    c-0.5,0.2-0.4-0.3-1.2-0.6c0,0-1.3-0.6-1.8-0.8c-0.9-0.4-2.1-0.1-3.1-0.1c-1.4,0.4-3,0.5-4.2,1.4c-0.1,0.1-0.2,0.2-0.4,0.3l3.4,0    c0.6-0.4,1.2-0.6,1.8-0.6c1.3-0.1,2.5,0.1,3.6,0.5l0.2,0.1h3.7c0-0.4-0.1-0.7-0.1-1.1c-0.1-0.4-0.1-1,0.1-1.4    c0.5-0.5,1.3-0.3,1.7,0.2c0.5,0.7,0.9,1.5,1.3,2.3l1.6,0c-0.4-0.6-0.7-1.1-0.8-1.9c0-0.3,0.3-0.5,0.5-0.6c0.9-0.1,1.9-0.1,2.9,0    l0.7,0.3c0.7,0.7,1.4,1.4,2.1,2.1l2.1,0c-0.5-0.6-1.1-1.2-1.7-1.7c-0.3-0.3-0.7-0.7-0.7-1.1l0.3-0.2c1.9-0.1,3.9-0.6,5.8-0.1    l0.7,0.3l0.2,0.3c0.2,1,0,1.8-0.4,2.6l1.6,0c0.2-0.4,0.4-0.8,0.5-1.2c0.4-0.9,0.6-1.8,1.2-2.6c1.2-0.4,2.6-0.3,3.9-0.4l2.3,0    c0.3,0.3,0.1,0.8,0,1.2c-0.2,1-0.5,1.9-0.8,2.9l1.9,0c0.4-1.2,0.6-2.4,1.1-3.6c0.2-0.1,0.4-0.7,0.4-1.3H109.5L109.5,109.2z     M181.9,109.2c0,0.1,0,0.1,0,0.2c-0.2,1.7-0.6,3.2-1.1,4.7l1.5,0c0.1-0.3,0.1-0.5,0.2-0.8c0.3-1.3,0.5-2.7,0.7-4.1L181.9,109.2    L181.9,109.2z"/>
		<path class="st1" d="M104,104.4c0.1,1.6,0,3.2,0.6,4.5c0,0.1,0,0.2,0,0.3l1.5,0c-0.1-0.2-0.1-0.4-0.2-0.7    c-0.1-0.4-0.3-0.9,0.1-1.3c0.5-0.3,1,0.9,1.5,0.4c0.3-0.5,1.2-1.1,1.4-0.5c0.2,0.7,0.4,1.5,0.5,2l70.2,0c0.1-0.5,0.1-0.9,0.1-1.1    c0-0.2,0-0.5,0.2-0.6c0.3-0.2,0.7,0.3,1.1,0.3c0.4,0.1,0.8-0.2,1.1-0.1c0.2,0.3-0.2,1.1-0.3,1.5l1.3,0c0.1-0.7,0.2-1.4,0.4-2.1    c0.3-0.9,0.3-1.8,0.3-2.8H182c0.1,0,0.1,0.1,0.2,0.1l0.1,0.5c0.1,0.3,0,0.7-0.2,0.9c-0.3,0.3-0.7,0.5-1.1,0.4    c-0.4,0-0.8-0.5-1-0.8c-0.1-0.2,0.2-1,0.3-1.2c0,0,0,0,0,0l-2.3,0c0.1,1.1,0.4,2.2,0.3,3.3c-0.1,0.3-0.5,0.4-0.8,0.5    c-0.6,0.2-1.3-0.1-1.9,0c-2,0.1-4,0.4-6,0.2c-0.9,0.1-2,0-2.9,0.2c-0.9,0.3-2,0.1-3,0.3c-0.9-0.1-1.8,0.1-2.7,0    c-1.4-0.2-3.1-0.1-4.5,0c-2.4-0.2-4.9,0-7.4-0.1c-1.4-0.2-2.9,0.1-4.4,0c-2.2-0.2-4.5,0.1-6.7,0c-3.6-0.1-7.3,0-11-0.1    c-1.6,0-2.9-0.5-4.5-0.3c-2.5-0.2-5.1-0.1-7.4-0.7c-1,0.1-2,0-3,0.1c-0.3,0-0.3-0.3-0.4-0.5c-0.2-1-0.6-2-0.8-3l-2.5,0    c0.1,0.2,0.1,0.4,0.1,0.5l-0.6,0.8c-0.3,0.3-0.9,0.2-1.3,0.2c-0.3,0-0.4-0.3-0.6-0.5c-0.1-0.1-0.2-0.5-0.2-0.9H104L104,104.4z"/>
		<path class="st1" d="M104.2,99.5c-0.2,1-0.2,2.1-0.3,3.2c0.1,0.5,0.1,1.1,0.1,1.7l1.8,0c0-0.2,0-0.4,0-0.5    c0.1-0.1,0.3-0.6,0.5-0.6c0.4-0.1,1.1,0,1.4,0.1c0.3,0.1,0.6,0.6,0.8,1h2.5c-0.1-0.7-0.2-1.5,0.1-2.3c0.1-0.3,0.4-0.6,0.8-0.7    c2.5,0,5-0.1,7.5,0c0.5-0.2,1.1,0.1,1.6-0.1c1.8-0.3,3.6,0.1,5.5,0.1c1.7-0.3,3.2,0.5,5,0.4c1.5-0.5,3.4-0.2,5-0.2    c0.9,0,1.9-0.3,2.7,0c1,0.1,2,0.1,2.9-0.1c1.8,0.1,3.7-0.1,5.5-0.2c0.5-0.1,1,0.1,1.5,0c1.5-0.1,2.8,0,4.3-0.2    c2.4,0.2,4.9,0,7.2,0.2c0.7-0.2,1.5,0,2.3,0c3.4-0.3,7.1-0.3,10.5-0.3c1.1-0.2,2.3-0.1,3.4-0.2c0.3,0,0.6,0.1,0.9,0.3    c0.4,0.7,0.4,1.7,0.5,2.6c0,0.2,0,0.4,0,0.6l2.3,0c0.5-0.4,1.2-0.3,1.7,0h1.8c0-0.3,0-0.6,0.1-0.9c-0.1-1.3-0.1-2.7-0.3-4l-1.4,0    c0.2,1.7,0.4,3.6,0.4,3.6s-0.6-0.4-0.9-0.4c-0.4,0-1.3,0.6-1.4,0.5c0-0.9,0-1.9-0.2-2.9c-0.1-0.2-0.2-0.5-0.2-0.8h-3.7    c-0.1,0-0.2,0.1-0.3,0.1c-0.9,0.1-1.8,0.1-2.6,0.2c-0.9-0.2-1.8,0.1-2.7,0l-0.1-0.1c0-0.1,0-0.1,0-0.2h-1.3c0,0.1,0,0.2,0,0.2    c-0.3,0.4-0.8,0.3-1.2,0.3c-0.3,0-0.5-0.2-0.8-0.3l-1.2-0.1c-0.1,0-0.2-0.1-0.3-0.1l-1.8,0c0.2,0.1,0.5,0.3,0.7,0.5    c0.1,0.2-0.2,0.2-0.3,0.3c-0.9-0.1-1.8-0.1-2.7-0.2c-0.5-0.2-1-0.5-1.6-0.5c-0.1,0-0.2-0.1-0.2-0.1h-1.6c0.2,0.2,0.5,0.3,0.7,0.4    c-0.1,0.1-0.3,0.1-0.5,0.1c-0.7-0.1-1.5,0-2.2-0.2c-0.2-0.1-0.5-0.2-0.7-0.3h-2.8c0,0.1,0,0.1,0,0.1c-0.3,0.2-0.6,0.3-1,0.3    c-0.3,0-0.7,0-0.9-0.2c-0.1-0.1-0.1-0.2-0.2-0.2H149c-0.1,0.2-0.2,0.4-0.5,0.4c-0.3-0.1-0.7-0.1-1-0.4l-1.3,0c0,0.1,0,0.2,0,0.3    c-0.1,0.3-0.4,0.2-0.6,0.3c-0.3,0-0.5-0.3-0.6-0.6l-1.1,0c0,0.4-0.1,0.7-0.4,0.9c-0.3,0-0.7,0.1-0.8-0.2c-0.2-0.2-0.2-0.4-0.2-0.6    l-1.1,0c-0.1,0.4-0.3,0.7-0.7,0.9c-0.5,0.1-1,0-1.5-0.2c-0.1-0.1-0.1-0.3,0-0.4c0.1-0.1,0.1-0.2,0.2-0.3h-1.4    c-0.1,0.1-0.1,0.2-0.2,0.3c-0.4,0.6-1.2,0.2-1.7,0.3c-0.2,0-0.1-0.3-0.1-0.4c0-0.1,0.1-0.2,0.1-0.2l-1.4,0    c-0.1,0.1-0.2,0.3-0.4,0.4c-0.9,0.5-2.1,0.4-3.1,0.3c-0.2-0.1-0.3-0.3-0.1-0.5c0.1-0.1,0.2-0.1,0.3-0.2h-3.2c-1,0.3-2.2,0.3-3.2,0    h-7.4c-0.2,0.1-0.6,0-0.8,0.1c-0.9,0.2-1.9,0.1-2.8,0c-0.4,0-0.8,0-1.2-0.1l-3.4,0c-0.2,0.9-0.3,1.7-0.5,2.5    c-0.3,0.2-0.6-0.2-0.9-0.3c-0.3-0.3-0.6-0.7-1.1-0.5c-0.3,0.1-0.6,0.1-0.8,0.4c-0.1,0-0.2,0-0.3-0.2c0-0.7,0.1-1.4,0.2-2H104.2    L104.2,99.5z"/>
		<path class="st1" d="M105.1,94.6c-0.1,0.6-0.2,1.2-0.2,1.8c-0.5,0.7-0.4,1.6-0.5,2.4c-0.1,0.2-0.1,0.4-0.2,0.6h1.7    c0.2-1.3,0.5-2.6,0.7-3.8c0.1-0.3,0.2-0.7,0.3-1H105.1L105.1,94.6z M110.2,94.6c-0.2,1-0.4,2.1-0.5,3.1c-0.1,0.6-0.2,1.2-0.3,1.8    l3.4,0c-0.4-0.1-0.9-0.1-1.3-0.3c-0.3-0.3-0.5-0.7-0.4-1.1c0-1.3,0.2-2.4,0.6-3.5L110.2,94.6L110.2,94.6z M119.2,94.6    c-0.6,1.5-0.9,3.2-1.5,4.7c0,0.1-0.1,0.1-0.2,0.2l7.4,0c0,0-0.1,0-0.1,0c-0.2-0.1-0.1-0.3,0-0.5c1.6-1.3,3.6-1.7,5.4-2.6    c1.1-0.3,2-1.1,3.1-1.4c0.3-0.1,0.6-0.2,0.9-0.4h-2.2c-0.4,0.2-0.9,0.4-1.3,0.5c-1.6,0.6-3.3,1.3-4.8,2.1    c-1.3,0.5-2.4,1.5-3.9,1.3c-0.2-0.1-0.3-0.3-0.2-0.5c1.3-1.1,3-1.4,4.5-2.1c0.5-0.2,1.7-0.7,3.1-1.3h-3.2c-1.3,0.4-2.5,1-4,1.1    c-0.2-0.1-0.5-0.2-0.5-0.5c0-0.2,0-0.4,0.1-0.6L119.2,94.6L119.2,94.6z M136.3,94.6c-0.3,0.2-0.6,0.4-1,0.6c-2,1.6-4.3,2.6-6.5,4    c-0.2,0.1-0.4,0.2-0.7,0.3h3.2c1.8-1.2,3.4-2.9,5.2-4.2c0.3-0.4,0.7-0.5,0.9-0.7L136.3,94.6L136.3,94.6z M138.7,94.6    C138.7,94.6,138.7,94.6,138.7,94.6c-0.5,0.6-0.9,1.2-1.2,1.8c-0.8,1.1-1.8,2.1-2.7,3.1l1.4,0c0.4-0.7,1.1-1.2,1.6-1.8    c0.4-0.6,0.9-1.1,1.3-1.8c0.3-0.2,0.4-0.5,0.4-0.8c0-0.2-0.1-0.2-0.2-0.3c-0.1,0-0.2-0.1-0.3-0.1H138.7L138.7,94.6z M140.9,94.6    c0.6,0.3,1.1,0.5,1.8,0.6c0.6,0,1.2,0.1,1.8-0.1c0.3,0.2,0.8-0.1,1,0.3c0.1,0.6,0.4,1.1,0.6,1.6c-0.2,0.9,0.3,1.6,0.2,2.4h1.3    c0,0-0.1-0.1-0.1-0.1c-0.3-1-0.6-2.1-0.7-3.2c-0.1-0.3-0.4-0.7-0.4-1.1c0.3-0.2,0.5,0.1,0.6,0.3c0.6,1.3,2,2.4,1.9,4    c0,0,0,0.1,0,0.1l1.6,0c-1.1-1.5-1.9-3.1-2.9-4.6c-0.1-0.1,0-0.2,0.1-0.3H140.9L140.9,94.6z M148.3,94.6c0.2,0.1,0.2,0.5,0.6,0.6    c0.7,0.6,1.5,1.4,2.2,2.1c0.6,0.6,1.1,1.3,1.7,1.9c0,0.1,0.1,0.2,0.1,0.2l2.8,0c-0.7-0.4-1.4-0.8-2.1-1.3    c-1.4-1.1-2.5-2.6-3.9-3.6L148.3,94.6L148.3,94.6z M150.8,94.6c1.2,0.5,2,1.5,3.2,2.1c1.1,0.8,2.4,1.1,3.3,2.1    c0.3,0.2,0.6,0.5,0.9,0.7l1.6,0c-1.4-0.7-2.6-1.7-3.9-2.7c-1.3-0.2-2.2-1.3-3.3-2c-0.1,0-0.1-0.1-0.2-0.1L150.8,94.6L150.8,94.6z     M154.3,94.6c0.2,0.1,0.4,0.2,0.5,0.2c1,0.3,1.9,0.6,2.8,1.2c0.6,0.2,1.1,0.8,1.7,1.1c1.1,0.7,2.5,0.5,3.5,1.6    c0.3,0.4,0.7,0.6,1.1,0.8l1.8,0c-0.5-0.3-0.8-0.8-1.3-1c-0.4-0.1-0.8-0.4-1.1-0.7c-0.8-0.1-1.3-0.7-2-0.9c-0.7-0.4-1.4-0.7-2.1-1    c-0.6-0.6-1.4-0.8-2-1.2L154.3,94.6L154.3,94.6z M158.6,94.6c0.1,0,0.2,0.1,0.3,0.1l0.6,0.1c0.4,0.5,1.2,0.3,1.7,0.6    c0.9,0.3,1.9,0.4,2.7,1c1.2,0.2,2.3,0.7,3.4,1c0.6,0.5,1.4,0.9,1.9,1.4c0.1,0.2,0.1,0.5,0.1,0.7l1.3,0c-0.1-1.2-0.2-2.4-0.9-3.3    c-0.2-0.5-0.4-1-0.6-1.5h-2.1c0.5,0.4,0.5,0.9,0.6,1.5c-0.1,0.2-0.3,0.3-0.5,0.3c-1.8-0.3-3.3-1.3-5.1-1.8H158.6L158.6,94.6z     M176.4,94.6c0.1,0.2,0.2,0.4,0.3,0.6c0.2,1.2,1,2.2,1,3.4c-0.1,0.7-0.9,0.6-1.5,0.8l3.7,0c0-0.4-0.1-0.9-0.2-1.2    c-0.3-1.2-0.6-2.5-1-3.7H176.4L176.4,94.6z M181.3,94.6c0.3,1.1,0.5,2.1,0.6,3.2c0.1,0.4,0.2,1,0.3,1.7l1.4,0    c-0.1-1.3-0.4-2.7-0.7-3.9c-0.1-0.3-0.1-0.6-0.2-0.9L181.3,94.6L181.3,94.6z M139.5,99.5c0.7-1,1.5-1.9,2-2.9    c0.3-0.5-0.2-0.7-0.3-1.1c-0.2-0.1-0.3-0.2-0.5-0.2c-0.4,0.5-0.6,1.1-0.8,1.7c-0.4,0.9-1.1,1.7-1.7,2.6L139.5,99.5L139.5,99.5z     M142.7,99.5c0-0.2,0.1-0.5,0.2-0.7c0.3-0.7,0.3-1.5,0.5-2.3c0-0.2-0.2-0.4-0.4-0.5c-0.3,0-0.7,0-0.8,0.3    c-0.4,0.5-0.1,1.2-0.2,1.7c-0.2,0.4-0.2,1-0.4,1.5H142.7L142.7,99.5z M145.1,99.5c0,0,0-0.1-0.1-0.1c-0.2-0.9,0.1-1.8,0.2-2.6    c0-0.3-0.2-0.7-0.6-0.8c-0.3,0-0.5,0-0.6,0.3c-0.1,0.5-0.3,1.1,0.1,1.5c0.1,0.4-0.1,0.8-0.1,1.1c0,0.2,0.1,0.3,0.1,0.5L145.1,99.5    L145.1,99.5z"/>
		<path class="st1" d="M105.9,91.6c0,0,0,0.1,0,0.1c-0.2,1-0.5,1.9-0.8,2.9l1.7,0c0.1-0.6,0.3-1.3,0.4-1.9l0.4-1.1H105.9L105.9,91.6    z M110.9,91.6c-0.1,0.4-0.2,0.7-0.3,1.1c-0.1,0.7-0.2,1.3-0.4,2h1.5c0.3-1,0.7-2,0.9-3.1L110.9,91.6L110.9,91.6z M120.8,91.6    c-0.4,0.7-0.7,1.4-1.2,2c-0.2,0.3-0.3,0.7-0.4,1h2.6c0.1-0.1,0.2-0.3,0.3-0.4c0.6-0.2,1.1-0.6,1.8-0.8c1.9-0.1,6-1.3,8.2-1.9l-5,0    c-1,0.2-2.1,0.3-3.2,0.4c-0.3-0.1-0.6-0.1-0.9-0.2c0-0.1,0-0.2,0.1-0.2L120.8,91.6L120.8,91.6z M135.3,91.6    c-0.4,0.1-0.8,0.2-0.9,0.2c-1.2,0.2-6.9,2.3-8,2.8c0,0-0.1,0-0.1,0h3.2c2.1-0.9,4.7-1.9,5.4-2.2c0.2-0.2,1.4-0.6,1.8-0.9    L135.3,91.6L135.3,91.6z M138,91.6c0.2,0.9,0.7,1.7,1.6,2.3c0.5,0.2,0.9,0.5,1.4,0.8l7,0c0,0,0.1,0,0.1,0c0.1,0,0.2,0,0.2,0l1.3,0    c0,0-0.1-0.1-0.1-0.1c-0.2-0.1-0.4-0.4-0.4-0.6c0-0.1,0.1-0.2,0.3-0.3c0.5,0,0.7,0.6,1.2,0.8c0.1,0,0.2,0.1,0.3,0.1h1.7    c-0.8-0.5-1.6-1.2-2.5-1.5c-0.2-0.1-0.4-0.3-0.2-0.6c0.1-0.3,0.3-0.7,0.5-1l-1,0c-0.2,0.6-0.6,1.1-1.1,1.5    c-0.6,0.5-1.4,0.5-2.2,0.7c-1.8,0.4-3.4-0.1-4.8-1.2c-0.5-0.2-0.8-0.6-1.1-1L138,91.6L138,91.6z M154.2,91.6    c0.3,0.1,0.6,0.2,0.9,0.3c1.7,0.5,3.5,0.5,5.2,1.1c1.3,0.2,2.5,0.7,3.7,0.9c1,0.3,2,0.5,3,0.7c0,0,0.1,0.1,0.1,0.1h2.1    c-0.2-0.5-0.4-1.1-0.8-1.6c-0.1-0.5-0.4-1-0.7-1.5l-1.6,0c0.3,0.5,0.6,1,0.7,1.6c-0.1,0.2-0.2,0.3-0.4,0.3    c-0.8-0.1-1.6-0.5-2.4-0.7c-1.2-0.2-2.3-0.7-3.5-0.7c-0.7-0.1-1.3-0.3-1.9-0.5L154.2,91.6L154.2,91.6z M175.2,91.6    c0.4,1,0.7,2.1,1.1,3h2.3c-0.3-1-0.7-2.1-1.2-3L175.2,91.6L175.2,91.6z M180.4,91.6c0.3,1,0.6,2,0.9,3.1l1.4,0c-0.3-1-0.7-2-1.1-3    H180.4L180.4,91.6z M134.2,94.6c0.7-0.4,1.4-1,2.1-1.3c0.4-0.2,0-0.8-0.3-0.7c-1.4,0.5-2.6,1.4-4,2H134.2L134.2,94.6z M137.5,94.6    c0.1-0.1,0.2-0.2,0.1-0.4c-0.2-0.2-0.5-0.3-0.6-0.1c-0.2,0.2-0.4,0.4-0.7,0.5H137.5L137.5,94.6z M139,94.6c-0.1,0-0.2-0.1-0.3,0    H139L139,94.6z M157.1,94.6c-0.1,0-0.1-0.1-0.2-0.1c-0.9-0.2-1.8-0.5-2.6-1c-0.8-0.1-1.4-0.4-2.1-0.6c-0.2,0-0.6-0.1-0.6,0.2    c0.1,0.8,0.9,0.6,1.4,0.9c0.4,0,0.8,0.3,1.2,0.5L157.1,94.6L157.1,94.6z M162.1,94.6C162.1,94.6,162,94.6,162.1,94.6    c-1.5-0.5-2.9-0.9-4.3-1.3c-1.2-0.3-2.5-0.4-3.5-1c-0.3-0.1-0.7-0.1-0.9,0.1c-0.1,0.1-0.2,0.3-0.1,0.4c0.6,0.6,1.6,0.4,2.3,0.8    c1,0.4,2.1,0.7,3.1,1L162.1,94.6L162.1,94.6z"/>
		<path class="st1" d="M107.1,88.5c-0.5,1-0.9,2-1.2,3.1l1.7,0l0.6-1.6c0.3-0.5,0.5-1,0.8-1.5H107.1L107.1,88.5z M111.9,88.5    c-0.4,1-0.7,2-1,3.1l1.6,0c0,0,0,0,0,0c0.2-1.1,0.6-2.1,1.1-3L111.9,88.5L111.9,88.5z M123.1,88.5c-0.2,0.2-0.4,0.5-0.6,0.7    c-0.5,0.5-1.1,1.1-1.3,1.8c-0.2,0.2-0.3,0.4-0.4,0.6l2.3,0c0.2-0.4,0.5-0.6,0.9-1c0.4-0.5,10.3-0.4,10.5-1.3    c0.3-0.5-9.6,0.2-8.7-0.7c0,0,0,0,0,0L123.1,88.5L123.1,88.5z M137.8,88.5c0,0.1,0,0.3,0,0.4c-0.1,0.9-0.1,1.8,0.2,2.6l2.1,0    c-0.3-0.5-0.4-1.1-0.6-1.6c0-0.5,0-1,0.2-1.5L137.8,88.5L137.8,88.5z M141.1,88.5c-0.1,0.1-0.2,0.2-0.2,0.4    c-0.2,0.3-0.2,0.9-0.7,0.8c-0.4-0.4-0.1-0.8,0.1-1.2H141.1L141.1,88.5z M142.6,88.5c-0.1,0.1-0.3,0.1-0.5,0.1c0,0,0,0-0.1-0.1    L142.6,88.5L142.6,88.5z M145.2,88.5c-0.1,0.4-0.3,0.7-0.4,1.1c-0.1,0.1-0.3,0.1-0.4,0.1c-0.2-0.4-0.2-0.8-0.3-1.2L145.2,88.5    L145.2,88.5z M147.7,88.5C147.7,88.5,147.7,88.5,147.7,88.5c0,0.4-0.2,0.7-0.5,0.9c-0.4-0.1-0.1-0.7-0.6-0.8    c-0.4-0.2-0.4,0.6-0.8,0.1c-0.1-0.1-0.1-0.1-0.1-0.2L147.7,88.5L147.7,88.5z M148.6,88.5c0.1,0.3,0.1,0.6,0.3,0.8    c0.2,0.1,0.7,0,0.7,0.4c0,0.7-0.1,1.3-0.3,1.9h1c0.1-0.2,0.2-0.5,0.2-0.7c0.3-0.4,0.7,0,0.9,0.1c0.9,0.3,1.9,0.4,2.8,0.6h4.4    c-0.4-0.1-0.9-0.2-1.4-0.3c-0.9-0.3-1.8-0.5-2.8-0.5c-1.3-0.3-2.9-0.3-3.8-1.5c-0.1-0.3,0.1-0.6,0.4-0.6c1.2,0,2.4-0.1,3.6-0.2    L148.6,88.5L148.6,88.5z M157.7,88.5c0.4,0,0.9,0,1.3,0.1l1.4-0.1c0.2,0,0.3,0,0.5,0H157.7L157.7,88.5z M162.9,88.5    c0.4,0,0.8,0.1,1.2,0.2c0.1,0.1,0.4,0.3,0.4,0.6c-1.4,0.2-3.1,0.4-4.5,0.1c-0.9,0.1-1.8,0-2.8,0.1c-0.7,0.2-1.6-0.5-2,0.3    c0,0.2,0,0.4,0.3,0.5c1.3,0.2,2.6,0.3,3.9,0.3c0.6-0.1,1.3,0,2,0c1.6,0,3.5-0.6,4.6,0.9c0,0.1,0.1,0.1,0.1,0.2l1.6,0    c-0.3-0.5-0.7-1-1-1.5c-0.5-0.5-0.9-1-1.4-1.5L162.9,88.5L162.9,88.5z M174,88.5c0.1,0.3,0.2,0.6,0.3,0.9c0.4,0.7,0.7,1.4,0.9,2.2    l2.2,0c-0.1-0.1-0.1-0.2-0.1-0.3c-0.3-1-0.9-1.9-1.4-2.8L174,88.5L174,88.5z M179.2,88.5c0.4,0.9,0.8,1.9,1.2,2.8    c0,0.1,0,0.1,0.1,0.2l1.2,0c-0.4-1-0.8-2-1.2-3.1L179.2,88.5L179.2,88.5z M132.1,91.6c0.2-0.1,0.4-0.1,0.5-0.1    c0.3-0.4,3.9-0.4,3.7-1.2c-0.1-0.2-6.9,0.8-7.6,1c-0.5,0.1-1,0.2-1.6,0.3L132.1,91.6L132.1,91.6z M136.6,91.6    C136.6,91.5,136.7,91.5,136.6,91.6c0-0.4-0.7-0.2-1.3,0L136.6,91.6L136.6,91.6z"/>
		<path class="st1" d="M109.1,84.8c-0.8,1.2-1.4,2.4-2,3.6l1.9,0c0.6-1.2,1.1-2.5,2-3.6L109.1,84.8L109.1,84.8z M114.1,84.8    c-0.3,0.4-0.5,0.7-0.8,1.1c-0.6,0.8-1.1,1.6-1.5,2.5h1.7c0.1-0.1,0.1-0.2,0.2-0.4c0.6-1.1,1.3-2.2,2-3.3L114.1,84.8L114.1,84.8z     M126.9,84.8c-0.3,0.2-0.5,0.4-0.8,0.6c-1,0.9-2.1,1.9-3,3l2.6,0c0.8-0.7,2.2-0.4,3.3-0.4l4.9,0.2c0.9,0,1.5,0.2,2.4,0    c0.2-0.2,0.5,0,0.5-0.3c0-0.4-1.1-0.1-1.7-0.4c-1.4-0.1-2.7-0.3-4.1-0.2c-1.2,0.1-2.3-0.2-3.4-0.3c-0.1-0.1-0.4-0.2-0.2-0.4    c1-1.1,5.9-0.1,6.9-0.2c0.1,0,0.2-0.2,0.2-0.3c0-0.3-3-0.7-4.1-1.2L126.9,84.8L126.9,84.8z M134.1,84.8c0.5,0.2,1,0.5,1.5,0.6    l0.8,0.3c0.6,0.4,1.4,0.4,2,0.8c0.4,0.7-0.4,1.2-0.5,1.9h1.8c0.2-0.6,0.5-1.1,0.7-1.6c0.5-0.8,1.2-1.6,2-2.1l-2.6,0    c-0.4,0.4-0.8,1-1.4,0.8c-0.5-0.2-0.9-0.5-1.4-0.8L134.1,84.8L134.1,84.8z M147.2,84.8c0.2,0.1,0.5,0.3,0.7,0.4    c0.5,0.3,0.9,0.7,1.3,1.1c0.2,0.1,0.1,0.4,0.1,0.6c-0.3,0.3-1,0.4-0.9,0.9c0.1,0.2,0.1,0.4,0.2,0.7l6,0c1,0,2.1,0,3.1,0l3.2,0    c0.7,0,1.4-0.1,2,0l2.4,0c-0.4-0.5-0.8-1-1.2-1.5c-0.8-0.6-1.4-1.5-2.1-2.1l-2,0c-0.9,0.2-1.8,0.4-2.7,0.7l-1.9,0.1    c-0.8,0-1.6,0-2.4,0.2c-1,0.1-1.8,0.6-2.7,0.8c-0.6-0.2-0.2-0.9-0.6-1.3c-0.1-0.2,0-0.3,0-0.5L147.2,84.8L147.2,84.8z M151.4,84.8    c-0.1,0-0.2,0.1-0.4,0.2c-0.1,0.1-0.1,0.2-0.1,0.3c0.2,0.2,0.4,0.2,0.7,0.2c0.5-0.2,1-0.5,1.5-0.7L151.4,84.8L151.4,84.8z     M172.1,84.8l0.9,1.3c0.3,0.8,0.7,1.6,1,2.3l2,0c0,0-0.1-0.1-0.1-0.1c-0.4-1.2-1-2.4-1.6-3.5L172.1,84.8L172.1,84.8z M177.3,84.8    c0.3,0.5,0.5,1,0.7,1.6c0.4,0.7,0.8,1.4,1.1,2.1l1.3,0c-0.1-0.2-0.1-0.3-0.2-0.5c-0.7-1-1-2.1-1.5-3.2H177.3L177.3,84.8z     M140.2,88.5c0.1-0.1,0.2-0.3,0.2-0.4c0.2-0.1,0.8-0.3,0.8,0.1c0,0.1-0.1,0.2-0.2,0.3L140.2,88.5L140.2,88.5z M142,88.5    c-0.3-0.3-0.3-0.8-0.7-0.9c-0.2,0-0.5,0.1-0.6-0.1c-0.1-0.1-0.1-0.3,0-0.4c0.4-0.3,1-0.3,1.6-0.3l0.2,0.3c0.4,0.3,0.4,0.9,0.3,1.3    c0,0,0,0.1-0.1,0.1L142,88.5L142,88.5z M144.2,88.5c0-0.1,0-0.2-0.1-0.3c-0.1-0.4-0.6-0.8-0.4-1.2c0.1-0.1,0.1-0.2,0.3-0.2    c0.6-0.1,0.9,0.6,1.2,1c0.1,0.2,0.1,0.5,0.1,0.7L144.2,88.5L144.2,88.5z M145.8,88.5c-0.1-0.2,0-0.4,0-0.6    c0.1-0.4,0.4-0.6,0.7-0.7c0.3-0.1,0.6,0.1,0.9,0.3c0.3,0.3,0.4,0.6,0.4,1L145.8,88.5L145.8,88.5z M156.9,86.4    c0.9-0.2,1.7-0.4,2.5-0.6c0.7,0,1.5-0.4,2.1,0.1c0.5,0.3,1.1,0.6,1,1.3c-0.5,0.4-1.3,0.5-2,0.4c-3-0.1-5.8,0.2-8.8,0.2l-1.3,0.1    c-0.2-0.1-0.2-0.3-0.2-0.4c0.6,0,1-0.5,1.6-0.5c0.4-0.2,0.9-0.1,1.4-0.2l2.2-0.3L156.9,86.4L156.9,86.4z"/>
		<path class="st1" d="M112.4,80C112.4,80,112.4,80,112.4,80c-0.6,1.1-1.6,2-2.2,3.1c-0.4,0.6-0.8,1.2-1.2,1.8l1.9,0    c0.1-0.1,0.2-0.3,0.3-0.4c0.8-1.5,2.2-2.7,3.1-4.2c0.1-0.1,0.2-0.2,0.2-0.3L112.4,80L112.4,80z M117.9,80    c-1.4,1.5-2.6,3.2-3.7,4.9l1.7,0c0.5-0.7,1-1.3,1.6-2c0.8-0.9,1.3-2,2.2-2.7c0.1-0.1,0.2-0.1,0.3-0.2L117.9,80L117.9,80z     M134.6,80c-1.8,0.7-3.5,1.8-5.1,2.8c-0.9,0.6-1.7,1.4-2.6,2.1h3.5c-0.3-0.1-0.4-0.3-0.3-0.5c0.9-0.9,2.5-0.2,3.9,0.5l2.9,0    c-0.3-0.2-0.7-0.3-1.1-0.3c-1-0.7-2.1-1-3.2-1.4c-0.2-0.1-0.1-0.2-0.1-0.3c0.3-0.5,0.7,0,1.1,0c0.5,0.3,1.1,0.3,1.7,0.5    c0.8,0.5,1.7,0.7,2.5,1.1c0.2,0,0.3-0.1,0.4-0.3c0-0.2-0.1-0.4-0.3-0.5c-0.5,0-0.7-0.4-1.2-0.5c-0.5-0.4-1.1-0.7-1.6-1.1    c-0.1-0.1-0.2-0.4,0-0.5c0.2-0.3,0.5-0.5,0.8-0.5c0.9-0.2,1.2,0.8,1.9,1.1c1,0.5,1.3,1.7,2.1,2.3l0,0.2c-0.1,0.1-0.2,0.2-0.3,0.3    h2.6c0.1,0,0.1-0.1,0.2-0.1c1.2-0.5,2.7-0.5,4-0.2c0.2,0.1,0.5,0.2,0.7,0.3l2.6,0c0.1-0.1,0.1-0.2,0.2-0.3    c1.5-1.5,3.3-3.3,5.5-2.2l0.3,0.3c0,0.6-0.8,0.4-1.1,0.7c-1.1,0.4-2.2,1-3.3,1.5l1.7,0c0.9-0.4,1.8-0.7,2.6-1.2    c1.5-0.5,3.1,0,4.3,0.9c0,0.1,0.1,0.2,0,0.2c0,0,0,0-0.1,0l2,0c-0.3-0.3-0.6-0.5-0.9-0.7c-1.1-0.9-2.3-1.5-3.5-2.2    c-1.1-0.6-2.3-0.8-3.3-1.5c-0.4-0.3-0.9-0.4-1.3-0.5l-5.3,0c0,0,0,0,0,0c-0.1,1-0.5,1.8-0.8,2.7c-0.1,0.1-0.1,0.2-0.3,0.2    c-0.4-1.1,0.3-1.8,0.3-2.9c0,0,0,0,0,0l-1.2,0c0,0.7-0.1,1.3-0.3,2c-0.3,0.3,0.1,0.9-0.4,1.1c-0.6,0.2-1.3,0.2-2,0l-0.2-0.2    c-0.2-0.9-0.1-1.9-0.1-2.7c0-0.1-0.1-0.1-0.1-0.2L134.6,80L134.6,80z M143.8,80c0,0.1,0.1,0.1,0.1,0.2c0,0.5-0.4,1.4,0.3,1.7    c0.2,0,0.4-0.2,0.5-0.4l0-1.1l0.2-0.4H143.8L143.8,80z M167.8,80c1.5,1.2,2.6,2.8,4,4.3l0.1,0.3l0.2,0.3h2.1    c-0.1-0.2-0.2-0.3-0.3-0.5c-0.6-0.6-0.9-1.3-1.3-1.9c-0.8-0.8-1.3-1.7-2-2.5L167.8,80L167.8,80z M174.4,80c0.7,0.9,1.3,1.9,2,2.9    c0.3,0.7,0.6,1.3,1,2l1.4,0c-0.1-0.1-0.1-0.3-0.2-0.4c-0.4-0.7-0.4-1.5-1-2.1c-0.2-0.8-0.8-1.3-1.3-2c-0.1-0.1-0.3-0.2-0.4-0.3    L174.4,80L174.4,80z M140.9,81.6c-0.1-0.4-0.4-1-0.1-1.4c0.1-0.1,0.2-0.1,0.3-0.2c0.2,0,0.4,0,0.5,0.2c-0.2,0.9,0,1.9,0.2,2.7    c-0.1,0.3-0.5,0.5-0.8,0.6c-0.6,0.1-0.8-0.7-1.3-0.9c-0.6-0.6-1-1.3-1.6-1.7c-0.1-0.1,0-0.3,0-0.5c0.2-0.3,0.5-0.3,0.8-0.2    l0.3,0.2c0.5,0.7,0.8,1.6,1.5,2.1c0.2,0.1,0.4,0,0.5-0.2C141.4,82,141,81.9,140.9,81.6L140.9,81.6z M149.4,82.6    c0.1,0,0.3,0.1,0.4,0c0.7-0.7,1.1-2.3,2.4-1.9c0.2,0.1,0.4,0.2,0.5,0.4c0.1,0.4-0.3,0.3-0.6,0.5c-0.9,1-2.1,1.8-3.1,2.7    c-0.3,0.1-0.5-0.1-0.7-0.3c-0.8-0.9-0.1-2.1,0.2-3c0.4-0.4,0.5-1.2,1.2-1.1c0.3-0.1,0.6,0.1,0.8,0.2l0,0.2    c-0.5,0.5-0.9,1.1-1.3,1.7C149.1,82.3,149.2,82.4,149.4,82.6L149.4,82.6z"/>
		<path class="st1" d="M116.9,75.1c-0.1,0.1-0.3,0.3-0.4,0.4c-0.7,1-1.5,1.7-2.4,2.5c-0.4,0.7-1.3,1.2-1.6,1.9l2.2,0    c1.3-1.4,2.8-2.6,4-4.1c0.4-0.2,0.7-0.5,1-0.8H116.9L116.9,75.1z M124.7,75.1c-1.2,0.7-2.3,1.4-3.6,1.9c-1.2,0.8-2.3,1.9-3.3,2.9    l2.1,0c1.4-1,2.7-2.1,4.3-2.8c0.8-0.6,1.7-1.1,2.5-1.6c0.3-0.2,0.7-0.3,1-0.5H124.7L124.7,75.1z M161.8,75.1    c0.1,0.1,0.3,0.2,0.4,0.3c1.9,0.9,3.2,2.8,5,4.1c0.2,0.2,0.4,0.3,0.7,0.5l2.9,0c-0.1-0.1-0.3-0.3-0.4-0.4c-0.9-0.5-1.4-1.5-2.4-2    c-1.1-0.7-2.1-1.7-3.2-2.5L161.8,75.1L161.8,75.1z M169.6,75.1c0.7,0.7,1.4,1.4,2.1,2c1,0.8,1.9,1.8,2.7,2.9l1.4,0    c-0.6-0.6-1-1.4-1.7-2c-0.8-1-1.7-2-2.7-2.9L169.6,75.1L169.6,75.1z M142.7,80c0-0.1,0-0.2,0-0.3c0.1-0.2,0.4-0.2,0.5-0.2    c0.2,0.1,0.4,0.2,0.6,0.4l1.1,0l0.3-0.5c0.2-0.1,0.5-0.1,0.6,0.2c0,0.1,0,0.2,0,0.3l1.2,0c0.1-0.1,0.2-0.3,0.3-0.3    c0.2,0,0.4,0.1,0.4,0.3l5.3,0c-0.6-0.2-1.2-0.3-1.8-0.6c-1.5-0.4-3.1-0.6-4.7-0.8l-4.6,0c-1.6,0.1-3.1,0.4-4.5,0.8l-1.8,0.2    c-0.4,0.1-0.7,0.2-1.1,0.3L142.7,80L142.7,80z"/>
		<path class="st1" d="M134.5,65.3c-0.7,0.1-1.4,0.2-2.1,0.4c-1.1,0.2-2.1,0.8-3.1,1.2c-1.9,1-4,1.5-5.8,2.9    c-1.3,0.8-2.4,1.9-3.6,2.7c-1,0.8-2.1,1.5-3,2.5h2.7c0.3-0.2,0.6-0.5,0.8-0.7l3.5-2.7c1.2-0.8,2.4-1.4,3.6-2.2c1-0.5,2-0.7,3-1.1    c0.4-0.1,0.9-0.1,1.2,0.1c0.8,1.1,2,2.2,3.5,1.8c0.9-0.3,1.8-0.5,2.5-1.2c0.2-0.2,1-0.9,1.3-1c0.4,0,1,0.4,1.4,0.5    c1.2-0.1,1.6,0.1,2.7-0.4c0.6-0.3,1.2-0.5,1.8-1c0.4,0,1,0.6,1.3,0.7c0.9,0.6,2.8,0.6,3.8,0.8c0.1,0,0.1,0.1,0.1,0.1    c-0.3,0.3-1.9-0.2-2.2-0.1c-2.8-0.5-5.6,0.1-8.3,0.6c-2.3,0.7-4.8,1-7.1,2c-1.7,0.6-3.3,1.5-4.9,2.3c-1,0.3-2,0.9-2.9,1.4l3,0    c1.3-0.6,2.7-1.2,4-1.8c0.8-0.5,1.7-0.6,2.4-1.2c2.9-1.2,6.3-1.4,9.5-2c0.8,0.1,1.3-0.2,2-0.2c2.5-0.1,4.9,0.4,7.1,0.9    c0.9,0.3,1.7,0.7,2.6,1c1.3,0.7,2.6,1.3,3.9,1.9c0.9,0.3,1.7,0.8,2.5,1.3l3,0c-0.5-0.3-0.9-0.6-1.4-0.8c-1.8-1-3.7-1.8-5.4-2.9    c-1.1-0.5-2.2-0.9-3.3-1.2c-0.1-0.1-0.2-0.3-0.1-0.4c0.4-0.3,1-0.3,1.4-0.6c0.4-0.5,1-0.8,1.3-1.3c1.6,0.7,3.1,1.5,4.6,2.3    c1.9,0.8,3.8,1.7,5.5,3.1c0.9,0.5,1.6,1.2,2.3,1.9h1.8c-0.7-0.6-1.4-1.2-2.1-1.9c-0.8-0.4-1.5-1.2-2.4-1.7c-1-0.3-1.8-1.1-2.8-1.5    c-1.4-0.8-2.7-1.6-4.2-2.2c-0.4-0.3-1-0.4-1.4-0.7c-1.1-0.5-2-1.1-3.2-1.4c-0.6-0.2-1.2,0.2-1.8-0.1c0-0.1,0-0.2-0.1-0.3l-1.3,0    c0.1,1,0.4,2,0.8,2.8c0.2,0.2,0.5,0.4,0.8,0.3c0.1-0.1,0.3-0.1,0.4-0.2c-0.1-0.5-0.3-1-0.5-1.5c0-0.1,0.2-0.2,0.3-0.2    c0.6,0,0.9,0.4,1.5,0.5c0.1,0.1,0,0.6-0.1,1c0,0.3-0.6,0.4-0.7,0.6c-0.2,0.2-0.4,0.3-0.7,0.3c-1.1-0.1-1.8-1-2.4-1.8l-0.5-1.7h-3    c0.2,0.4,0.5,0.7,0.6,0.8c0.4,0.5,1.2,1.5,0.4,1.3c-1.2-0.3-2.4-1.3-3.1-2.1l-1.2,0c-0.8,0.8-2.1,1.8-3,2.1    c-0.8,0.3,0.1-0.9,0.5-1.4c0.1-0.2,0.3-0.4,0.5-0.7l-2.1,0c-0.1,0-0.1,0.1-0.2,0.1c-0.3,0.1-0.6,0-0.8-0.1l-0.5,0    c-0.1,0.1-0.2,0.2-0.3,0.4c-0.1,1.2-1.1,2.4-2.3,2.9c-0.6,0.1-1.5,0.4-2.1,0c-0.4-0.4-0.6-1-0.5-1.6c0.1-0.7,0.8-0.8,1.3-0.9    c0.2,0,0.6-0.1,0.7,0.2c0.2,0.8-1.6,0.9-0.6,1.7c0.8,0.1,1.4-0.5,1.9-1.1c0.3-0.4,0.5-0.9,0.6-1.5H134.5L134.5,65.3z"/>
		<path class="st1" d="M138,65.3c0.2-0.9,0.1-2-0.4-2.8c0.3-0.2,1.9,0.4,2,0.8c0,0.5-0.1,1.2,0.4,1.4c0.3,0.1,0.7-0.3,0.8,0.1    c0,0.2-0.1,0.4-0.3,0.4l2.1,0c0.4-0.7,0.8-1.7,0.8-3.6c0-2.8-1.9-3.4-2.6-3.4c-0.8,0-1.3-0.1-1-0.4c0.3-0.3,1.6-0.4,2.5-0.2    c0.9,0.2,3,2,3,2s2-1.8,3-2c0.9-0.2,2.7-0.3,3,0c0.3,0.3-0.2,0.3-1,0.3c-0.8,0-3.1,0.9-3.1,3.6c0,1.8,0.4,2.9,0.9,3.6l3,0l0-0.2    c-0.4-0.3-0.9-0.1-1.3-0.2c-0.4-0.1-0.8-0.2-1-0.6c-0.1-0.3-0.1-0.7,0.2-0.8l0.3-0.2c0-0.2,0.4-0.2,0.6-0.1c0.5,0,0.6,0.8,1.2,0.6    c0.6,0.1,0.8-1,1.3-1.2c1-0.8,1.3-0.6,1.9-0.9l0,0.1v0.1c-0.9,0.6-1.9,1.2-2,2.3c0,0.4,0,0.8,0,1.2l1.3,0c-0.1-0.7,0.4-1.3,0.5-2    c0.6-1,1.9-0.4,2.7-0.9c0.3-0.2,0.3-0.7,0.2-1c-0.6-0.7-1.2-1.3-2.1-1.2c-1.4,0.2-2.6,0.9-3.6,1.9c-0.6,0.5-1.2-0.2-1.8-0.3    c-0.5-0.1-0.9-0.7-0.9-1.3c0-0.6,0.6-1,1-1.3c0.9-0.8,2.1-0.4,3.1-0.1c0.4-0.1,0.7-0.5,0.7-0.8c0.1-0.4,0-0.9-0.3-1.3    c-0.4-0.2-0.8-0.4-1.3-0.5c-1.6-0.1-3.3-0.3-4.6,0.6c-0.6,0.3-1.1,1.2-1.9,1.1c-0.8-0.6-1.7-0.8-2.5-1.3l-1.3-0.5    c-1.3-0.2-2.5,0.4-3.1,1.5c-0.2,0.6-0.6,1.5,0,2.1c0.2,0.3,0.5,0.3,0.8,0.3c0.5-0.1,0.6-0.6,0.8-0.8c0.2-0.2,0.5-0.1,0.7-0.1    c0.4,0.1,0.9,0.5,1.1,1c0.2,0.6-0.3,1.1-0.7,1.5c-0.3,0.3-0.9,0.3-1.4,0.2c-1.5-0.9-3.2-2.3-5.2-1.5c-0.8,0.4-1.9,1.2-1.9,2.2    c0.4,0.7,1.1,0,1.6,0c0.9-0.1,1.8,0.1,2.3,0.7c0.2,0.5-0.1,1.1-0.5,1.4c-0.6,0.3-1.2,0.4-1.8,0.5H138L138,65.3z M139.6,65.3    c-0.2,0-0.3-0.1-0.5,0L139.6,65.3L139.6,65.3z M144.8,65.3c0.4-0.4,0.6-0.7,0.6-0.9c0,0.2,0.2,0.5,0.6,0.9L144.8,65.3L144.8,65.3z     M140.6,63.3c0.3-0.5,0.9-0.9,1.5-0.8l0.2,0.2c0.1,0.3,0.1,0.9-0.2,1.2c-0.3,0.3-1,0.2-1.4,0C140.5,63.8,140.5,63.5,140.6,63.3    L140.6,63.3z"/>
		<path class="st1" d="M195.5,100.7c-0.2-1.2-0.2-2.5-0.4-3.7c-0.5-4.3-1.4-8.4-3-12.3c-0.2-0.9-0.6-1.7-1.2-2.5    c-0.3-0.9-0.8-1.6-1.3-2.4l-0.1-0.3c-2.1-2.7-3.3-5.8-5.8-8.4c-2.6-2.7-5.2-5.8-8.4-7.8c-2-1.8-4.2-3.2-6.4-4.5    c-1.2-0.6-2.3-1.3-3.5-1.9c-1.2-0.6-2.5-1-3.7-1.5c-2.1-0.9-4.6-0.9-6.7-1.7c-1.4-0.2-2.9-0.2-4.3-0.4c-2.3-0.1-4.5-0.2-6.7-0.2    c-1.7-0.3-3.5-0.2-5,0.3c-1,0-2,0.3-3,0.4c-1.7-0.1-3.1,0.7-4.7,0.9c-0.6,0.1-1,0.6-1.6,0.6c-1.3,0.6-2.7,0.8-4,1.2    c-1.1,0.2-2,0.9-3,1.2c-0.7,0.8-1.8,0.7-2.5,1.4c-2.9,1.2-5.3,3.4-8.2,4.7c-2.3,2-5,3.4-6.8,6c-0.9,0.9-1.5,1.9-2.3,2.8    c-0.7,0.9-1,1.9-1.7,2.8c-0.5,1.3-1.6,2.4-2.1,3.8c-0.4,0.4-0.4,1.1-0.8,1.5c-0.4,1.1-1,2-1.5,3c-0.2,0.9-0.8,1.5-0.9,2.4    c-0.6,1.1-1,2.2-1.3,3.5c-0.5,0.7-0.6,1.6-0.8,2.5c-0.5,2.4-1.3,4.8-1.5,7.3c-0.5,2-0.1,3.9-0.2,6c-0.4,0.6,0.1,1.3-0.1,1.9    c0.4,1.1,0.3,2.4,0.4,3.5l0.2,0.3c0.3,1.1,0.4,2.1,0.6,3.2c0.3,1.9,1,3.7,1.5,5.5c0.9,2,1.4,4.3,2.3,6.3c0.6,1.2,1.1,2.4,1.9,3.6    c1.1,2.2,2.6,4.1,3.8,6.3c1.6,1.9,3.4,3.8,5.3,5.6c2.5,2.6,5.3,4.4,8.1,6.1c2.4,1.7,5,2.6,7.6,3.9c1.6,0.6,3.1,1.2,4.7,1.7    c1.4,0.2,2.5,1.1,4,1.2c1.1,0,1.9,0.6,3,0.6c3.9,0.4,7.9,0.6,11.7,0.2c1.9-0.2,3.8-0.3,5.7-0.6c3.4-0.4,6.6-1.3,9.7-2.5    c1.6-1,3.4-1.6,5.2-2.3c2.8-1.5,5.7-2.8,8.3-5c1.4-0.9,2.7-2.2,4.1-3.2c1.4-1.9,3.3-3.6,4.8-5.5c0.1-0.4,0.4-0.8,0.6-1.2    c1.3-1.5,2.2-3.1,3.4-4.6c0.5-1.1,1.5-2.1,1.7-3.3c0.5-0.9,2.3-6.1,2.9-7.6c0.5-2.3,1.2-4.4,1.4-6.7c0.1-2.2,0.6-4.4,0.5-6.7    C195.4,104,195.6,102.4,195.5,100.7L195.5,100.7z M193.5,111.3c-0.2,0.4,0,0.9-0.1,1.4c-0.3,1.3-0.4,2.7-1,4    c-0.8,3.2-1.9,6.4-3.2,9.4c-0.8,1.5-1.6,2.9-2.5,4.3c-1.2,1.9-2.6,3.7-3.9,5.5c-0.5,0.7-1.2,1.1-1.8,1.8c-0.8,1.6-2.5,2.7-3.8,3.9    c-1.5,1.7-3.4,2.5-5.1,3.9c-1.9,1.6-4.2,2.2-6.2,3.5c-1,0.6-2.1,0.9-3.1,1.6c-0.8,0.2-1.5,0.7-2.4,0.9c-2.3,0.8-4.8,1-7.3,1.4    c-1.4,0.4-2.7,0.8-4.2,0.8c-1.2,0.1-2.4,0.2-3.6,0.3c-0.9,0.1-1.9,0.4-2.8,0.1c-1-0.3-2.1-0.1-3.2-0.1c-2.1,0.1-4.2-0.1-6.1-0.8    c-1.6-0.4-3.1-1-4.8-1.2c-1.9-0.9-4-1.3-5.9-2.2c-2.5-1-5-2.1-7.1-3.9c-1.3-1.1-2.8-1.7-4.1-3c-1.7-1.3-3.5-2.7-4.6-4.5    c-0.8-0.6-1.3-1.5-1.8-2.2c-0.2-0.4-0.7-0.3-0.8-0.7c-0.9-1.6-2-3.2-3-4.8c-0.5-0.3-0.5-1-0.8-1.4c-1.1-1.9-2.1-3.8-2.8-5.8    c-0.6-1.2-0.9-2.5-1.5-3.7c-0.3-1.1-0.6-2.3-0.7-3.5c-0.1-0.5-0.5-0.9-0.7-1.4c-0.5-2.2-0.6-4.6-0.9-6.9c-0.1-1-0.4-2-0.4-3.1    c-0.1-1.4-0.1-2.9,0.2-4.3c0-2,0.9-3.8,1.1-5.7c0.5-2,0.9-4.2,1.9-6c0-0.7,0.6-1.2,0.6-2c0.9-1.9,1.4-4,2.5-5.8    c0.7-1.8,2.1-3.2,2.7-5c0.6-1.4,1.7-2.5,2.5-3.7c0.8-0.9,1.7-2,2.7-2.6c0.6-0.5,1.2-1,1.7-1.6c1.9-1.1,3.4-2.9,5.3-4    c0.9-0.4,1.5-1.3,2.4-1.6c1.3-0.9,2.6-1.5,4-2.2c2-0.8,3.7-2.1,5.9-2.5c1.6-0.4,3.2-0.8,4.8-1c1-0.3,2.1-0.4,3-0.8    c1.5-0.2,2.9-0.4,4.4-0.6c2-0.4,4.2-0.4,6.4-0.5c1.5,0.1,3,0.1,4.5,0.3l2.7,0.5c0.9-0.2,1.7,0.1,2.5,0.2c2.6,0.3,5.1,1,7.4,2.1    c1.3,0.7,2.7,1.3,4.1,2c2.8,1,5.3,2.9,7.7,4.9c1,1,2.1,1.9,3.1,2.8c2.1,2.1,4.1,4.1,6.1,6.2c0.7,1,1.4,2,2,3    c1.1,1.6,2.3,3.1,3.1,4.8c1.7,2.9,2.6,6.2,3.5,9.5c1.6,4.2,1.6,9.1,1.7,13.8C193.7,107,193.6,109.1,193.5,111.3L193.5,111.3z"/>
		<path class="st2" d="M154.5,102c0.2,0.3-0.1,0.3-0.1,0.7c0,0.3,0.1,0.7-0.2,0.8c-0.6,0.1-0.4-0.9-1.1-0.6l-0.9,0.2    c-0.1,1.1,0,2.7-0.2,3.8c0,0.5,0.6,0.2,0.7,0.7c0,0.2,0,0.6-0.3,0.6c-0.3,0-0.5,0.1-0.7,0c-0.6,0.2-1.3,0.3-1.9,0    c-0.2-0.1-0.2-0.4-0.1-0.6c0.2-0.3,0.8-0.3,0.8-0.7c0-1.2,0.3-2.6,0-3.7c-0.2-0.3-0.8-0.3-1-0.2c-0.5,0.1-0.2,1-0.7,0.9l-0.2-0.3    l-0.1-1.4l0.1-0.1c1.7,0,3.5,0.1,5.2-0.1C154,101.9,154.4,101.8,154.5,102L154.5,102z"/>
		<path class="st2" d="M170.6,102.2c0,0.5,0.1,1-0.1,1.5c-0.2,0.1-0.5,0-0.7,0c-0.1-0.1,0.1-0.5,0-0.6c-0.2-0.3-0.5-0.6-0.8-0.6    c-0.2,0-0.9,0.4-1,0.6c0,1.3,2.2,1.1,2.7,2.1c0.5,0.9,0.3,1.6-0.3,2.3c-0.7,0.7-2.1,0.7-3,0.3c-0.5,0-1.1,0.6-1.5,0.1l0.5-0.8    c0.3-0.5,0.2-0.7,0.6-1.1l0.2,0c0.2,0.9,0.4,1.3,1.4,1.3c0.6,0,1-0.1,1.1-0.4c0.1-0.2,0-0.5,0-0.7c-0.6-0.9-2.6-0.8-3-1.8    c-0.2-0.7-0.3-1.7,0.4-2.2c0.8-0.5,2.4-0.8,3.3-0.3L170.6,102.2L170.6,102.2z"/>
		<path class="st2" d="M128.3,102.1c0.2,0.4,0.1,1.1,0.1,1.5c-0.1,0.3-0.4,0.2-0.6,0.2c-0.4-0.1-0.2-0.6-0.6-0.7    c-0.3-0.1-0.8-0.1-1,0.1c-0.2,0.2-0.2,0.8-0.2,1c0.2,0.3,0.8,0.1,1.1,0.3c0.4,0.4,0.2,0.4,0.1,0.9c-0.1,0.5-0.7,0-1.1,0.1    c-0.3,0.3-0.2,1.4,0,1.7c0.7,0.2,1.5-0.1,1.9-0.4c0.3-0.3,0.4-0.7,0.7-0.8c0.2,0,0.4,0.1,0.5,0.3c-0.2,0.5-0.1,1.3-0.6,1.7    c-1.4,0.6-3.2,0-4.8,0.1c-0.3-0.1-0.2-0.4-0.2-0.6c1.1-1,0.7-3.1,0.7-4.5c0-0.4-0.6-0.7-0.4-1l0.2-0.1c1-0.1,2.3,0.1,3.3,0    C127.7,101.9,128.1,101.9,128.3,102.1L128.3,102.1z"/>
		<path class="st2" d="M145.2,102.3c0,0.2,0,0.4-0.1,0.6c-0.3,0.1-0.6,0.2-0.8,0.5c0.1,1.1,0,2.3,0,3.3c0.2,0.3,0.7,0.2,0.8,0.6    c0.2,0.4,0.1,0.6-0.2,0.8c-0.5,0.2-1.5-0.1-2.1,0c-0.4,0.2-0.8,0.1-1.2-0.1c-0.2-0.2-0.3-0.4-0.1-0.7c0.2-0.5,0.8-0.2,1-0.7    c0.4-0.9,0.1-2.5,0.2-3.5c-0.1-0.4-0.7-0.1-0.9-0.4c-0.1-0.1-0.4-0.7-0.2-0.7c1.1,0,2.2-0.2,3.3,0    C145.1,102,145.2,102.2,145.2,102.3L145.2,102.3z"/>
		<path class="st2" d="M117.5,102.2c0,0.2-0.1,0.2-0.3,0.3c-0.2,0-0.3,0.1-0.4,0.2c0.1,0.7,0.3,1.7,0.8,2.3c0.3,0.1,0.5-0.2,0.6-0.4    l1.5-2.1c-0.6-0.3-0.3-0.6-0.3-0.6c0.6-0.1,1.6-0.1,2.1,0c0.1,0.1,0.7-0.2,0.6,0.3c-0.1,0.4-0.6,0.3-0.8,0.6    c-1.1,1.6-2.2,3.6-3.1,5.1c-0.3,0-0.7,0.1-0.8-0.2l0-0.6l-1.9-4.1c-0.1-0.2-0.4-0.1-0.6-0.2c-0.2-0.2-0.2-0.3-0.1-0.6    c0.3-0.3,0.8-0.2,1.1-0.4C116.4,101.8,117.3,101.5,117.5,102.2L117.5,102.2z"/>
		<path class="st1" d="M163.3,106.9c-0.9-1.6-1.8-3.1-2.4-4.7c-0.1-0.2-0.3-0.5-0.6-0.5c-0.3,0-0.9,0.1-0.9,0.4    c-0.3,1.8-1.4,3.3-2.3,4.9c-0.3,0.2-0.6,0.5-0.9,0.7c-0.1,0.1-0.1,0.3,0,0.4c0.7-0.1,1.9,0,2.6,0c0.1,0,0.3-0.1,0.2-0.2    c0-0.2-0.2-0.2-0.3-0.3c-0.1-0.1,0-0.2,0-0.3c0.4-0.9,1.1-0.7,1.7-0.6c0.4,0.1,1.1-0.2,1.2,0.6c0,0.2-0.4,0.1-0.5,0.1    c-0.2,0.1-0.3,0.3-0.3,0.5c0,0.2,0.2,0.2,0.4,0.2c0.8-0.1,1.5-0.1,2.5-0.1C164.2,107.9,163.5,107.1,163.3,106.9L163.3,106.9z     M160.9,105.7c-0.3,0.2-1.3,0.2-1.6,0.2c-0.5-0.1,0.5-1.2,0.3-1.6c0.1-0.3,0-0.8,0.4-0.9c0.3,0,0.3,0.5,0.4,0.9    C160.4,104.6,160.9,105.4,160.9,105.7L160.9,105.7z"/>
		<path class="st1" d="M163.9,77.6c-0.1-0.4-0.3-0.4-0.8-0.4c-0.8,0.2-1.5,0.6-2,1.3c-0.9,0.6-1.8,1.4-2.7,1.8    c-0.3,0.2-0.7,0.1-1,0.3c0,0.1,0,0.2,0.1,0.3c0.3,0.2,0.7,0.4,1.1,0.5c0.4,0.2,0.6,0.9,1.2,0.5c0-0.3-0.3-0.6-0.1-0.8    c1-0.3,1.4,0.2,2.1,0.7c0.1,0.2,0.2,0.3,0,0.5c-0.3,0.1-0.7,0.2-0.9,0c-0.1,0-0.2,0.1-0.2,0.2c0,0.5,0.9,1.1,1.2,1.4    c0.2,0.5,1,0.9,1.5,1c0.2-0.1,0.3-0.2,0.3-0.4c-0.3-0.9-0.6-0.2-0.2-1.1c0.2-0.3,0.5-4.3,0.7-4.6    C163.8,78.1,163.9,77.6,163.9,77.6L163.9,77.6z M162,80.6c-0.1,0.3-1.2-0.4-1.4-0.7c-0.1-0.1,0.8-0.7,0.8-0.9    c0.4-0.3,0.5-0.5,1-0.7l0.1,0.1C162.4,79,162.1,79.9,162,80.6L162,80.6z"/>
		<path class="st2" d="M148.5,71.7c0,0.6-0.1,1.2-0.2,1.8c0,0.1-0.2,0.2-0.3,0.2c-0.3,0-0.7,0-0.6-1.3c-0.6-0.6-1.4-0.3-1.4,0.4    c-0.1,2-0.4,2.3-0.2,3.6c0.3,0.3,0.3,0.8,0.7,1.1c0.1,0.2-0.1,0.4-0.2,0.4c-0.5,0.1-0.9-0.2-1.4-0.2c-0.6-0.1-1.3,0.1-1.8-0.1    c-0.2-0.1-0.1-0.3,0-0.4c1.3-0.8,1-2.5,1.1-3.9c0-0.2-0.1-0.4-0.4-0.5c-1.1-0.5-0.9,0.4-1.4,0.5c-0.1,0.1-0.4,0.1-0.5,0    c-0.4-0.3-0.1-0.7-0.1-1.1c0.1-0.3,0.1-0.7,0.4-0.7c1.4-0.2,2.9,0.1,4.3-0.1C147.2,71.4,148.1,71.1,148.5,71.7L148.5,71.7z"/>
		<path class="st2" d="M155.9,73.4c0.3,0.1,0.7,0.3,0.9,0.6c-0.1,0.7-1,0.3-1.3,0.8c-0.4,1.3-2,2.9-0.9,4.4c0,0.1,0,0.3-0.2,0.3    c-0.6,0-1.4-0.7-1.9-1c-0.5-0.1-1.1-0.1-1.4-0.6c0-0.6,0.8-0.4,1.1-0.7c0.8-0.3,0.9-1.4,1.2-2.1c0.1-0.5,0.5-1,0.4-1.5    c-0.2-0.3-0.8-0.4-0.6-0.9c0.2-0.4,0.7,0,1.1-0.1C154.6,72.9,155.5,73.1,155.9,73.4L155.9,73.4z"/>
		<path class="st2" d="M171.4,85.2c0.7,0.6,1,1.5,1.4,2.3c0.1,0.3,0.4,0.6,0.1,1c-0.2,0.3-0.6,0.4-1,0.4c-0.2-0.1-0.1-0.3-0.1-0.5    c0.3-1-0.1-1.6-0.9-1.6c-0.2,0.5-1,0.3-0.8,0.9c0.2,0.3,0.5,0.6,0.4,0.9c0,0.4-0.4,0.6-0.6,0.7l-0.2,0c-0.3-0.4-0.7-0.7-0.8-1.2    c-0.1-0.1-0.2-0.2-0.3-0.1c-0.2,0.3-0.8,0.5-0.6,1c0.4,0.4,0.4,1.1,1,1.4c0.3,0.1,0.5-0.1,0.7-0.1c0.4,0.2,1-0.1,1.3,0.3    c0,0.4-0.4,0.4-0.7,0.5c-0.6,0.2-1.3,0.5-2,0.2c-0.7-0.6-0.7-1.5-1.3-2.1l0-0.2c-0.5-0.5-0.9-1-1.5-1.2c-0.2-0.1-0.1-0.3-0.1-0.5    c0.3-0.7,0.8,0,1.3-0.1c1-0.5,2-0.8,2.8-1.5c0.4-0.1,0.6-0.4,0.8-0.7c0-0.3-0.2-0.7-0.1-1c0.2-0.1,0.4-0.2,0.5-0.1    C171.1,84.2,171.2,84.7,171.4,85.2L171.4,85.2z"/>
		<path class="st2" d="M116.9,87.1c0.1,0.6-0.6,0.9-0.9,1.3c-0.3,0.5-0.4,1.5-0.1,2.1c0.3,0.5,0.7,1.1,1.3,1.2l1.2-0.1    c0.1-0.3,0.5-0.5,0.4-0.9c-0.1-1-1,0.1-1.3-0.4c0-0.6,0.3-1.4,0.7-1.8c0.6-0.1,1.2,0.3,1.7,0.7c0.2,0.1,0.6,0.1,0.6,0.4v0.4    c-0.2,0.8-0.3,1.7-0.6,2.4c-0.5,0.6-1,0.9-1.9,1.2c-0.5,0.2-1.1,0.3-1.6,0.2c-0.7-0.6-1.8-1-2-2c-0.8-1.4-0.1-3.6,0.8-4.7    C115.7,86.7,116.6,86.3,116.9,87.1L116.9,87.1z"/>
		<path class="st1" d="M127.9,126.1c-0.1-0.2-0.3-0.5-0.6-0.4c-1.2,0.5-2.2,1.3-3.4,1.6c-0.5,0.3-1,0.6-1.6,0.7    c-0.5,0.2-0.9-0.1-1.4-0.1c-0.1,0.1-0.2,0.2-0.2,0.3c0.8,0.6,1.5,1.5,2.1,2.2c0.3-0.3,0.1-0.8,0.4-1.1c0.3-0.1,0.7,0.1,1.1,0.2    c0.6,0.4,1.4,1,1.3,1.8c-0.1,0.2-0.5,0.1-0.6,0.1c0,0.2-0.3,0.2-0.1,0.4l1.2,0.7c0.5,0.3,0.8,1,1.3,1.1c0.2,0,0.2-0.3,0.1-0.5    C126.4,130.7,128.3,128.5,127.9,126.1L127.9,126.1z M125.8,129.5c-0.4,0.1-0.9-0.6-1.2-0.9c-0.1-0.1-0.1-0.3-0.1-0.4    c0.4-0.3,1.3-1.1,1.9-1.2l0.1,0.1C126.5,127.7,125.9,128.9,125.8,129.5L125.8,129.5z"/>
		<path class="st1" d="M167,127.7c-1-0.2-0.4,0.2-1.4-0.1c-0.7-0.2-2.9-1.1-3.5-1.3c-0.4-0.2-0.9-0.6-1.4-0.2    c-0.2,0.7,0.2,1.3,0.2,2c0.3,1.1,0.8,2.9,0.4,3.3c-0.4,0.5-0.7,0.9-0.4,1.3c0.3,0.1,0.5-0.2,0.7-0.3c0.5-0.4,1.2-0.7,1.6-1.3    c-0.1-0.4-0.5-0.1-0.7-0.4c-0.2-0.5,0.6-0.7,0.8-1.1c0.4-0.2,0.6-0.8,1.2-0.8c0.6,0.2,0,0.6,0,1c0,0.1,0.1,0.2,0.2,0.1    c0.9-0.4,1.5-1.3,2.3-1.9C167.1,128,167.1,127.8,167,127.7L167,127.7z M162.2,129.6c-0.4-0.4-0.6-1.7-0.5-2.1    c0.1-0.1,0.5,0.2,0.6,0.3l1.2,0.5c0.1,0.1,0.3,0.1,0.3,0.2C163.4,128.9,162.8,129.7,162.2,129.6L162.2,129.6z"/>
		<path class="st2" d="M121,118.3l0,0.3c-0.4,1-0.9,3-1,4.2c0.1,0.2,0.7-0.5,0.8-0.5c0.6-0.3,1.1-1,1.7-1.2c0.4,0.1,0.5,0.3,0.7,0.6    c0.2,0.4,0.7,0.8,0.6,1.3c-0.4,0.4-0.6-0.4-1.1-0.3c-0.9,0.2-1.6,0.8-2.4,1.3c-0.4,0.6-1.1,0.8-1.6,1.3c-0.2-0.1-0.7,0-0.7-0.3    c0.1-1.4,0.9-2.9,0.7-4.3c-0.2-0.2-1.5,1-1.7,1.1c-0.7,0.5-0.4,0.5-0.6,1.3c-0.2,0.1-0.4-0.1-0.6-0.3c-0.2-0.4-0.3-0.8-0.5-1.2    c-0.2-0.2-0.5-0.4-0.4-0.7c0.9,0.1,1,0.1,1.8-0.2c0.6-0.4,3-2.1,3-2.3c0-0.2-0.3-0.4-0.2-0.6c0.2-0.2,0.5-0.2,0.7-0.1    C120.6,117.8,120.9,118,121,118.3L121,118.3z"/>
		<path class="st2" d="M169.4,119c0.2,0.2,0.4,0.4,0.2,0.6c-0.7,0.2-1.5,0.2-2.1,0.7c-0.2,0.2-0.6,0.4-0.7,0.8    c0.2,0.4,0.8,0.9,1.2,0.9c0.6-0.2-0.2-1.1,0.6-1.1c0.6,0,0.8,0.1,1.1,0.6c0,0.1,0.1,0.2,0,0.3c-0.2,0.2-0.7,0-0.8,0.4    c0,0.2,0,0.7,0.2,0.8c0.2,0.3,0.6,0.4,0.9,0.3c0.4-0.1,0.6-0.6,0.8-0.9c0.3-0.6-0.4-1-0.7-1.4c0-0.2,0.1-0.5,0.4-0.6    c0.8,0.2,1.3,0.8,2,1.1c0.1,0.2-0.1,0.5-0.2,0.6c-1.1,1.3-1.9,2.6-3.2,3.8c-0.1,0.1-0.3,0.3-0.5,0.2c-0.4-0.3,0.4-0.9,0.2-1.2    c-0.5-0.6-1.8-2-2.8-2.4c-0.6-0.2-0.7,0.1-1,0.5c-0.2,0.2-0.5,0.2-0.7,0.1c-0.2-0.1-0.2-0.3-0.2-0.5c0.2-0.6,0.9-1,1.3-1.5    c0.6-1,1.3-1.6,2-2.6C168.3,118,168.8,118.8,169.4,119L169.4,119z"/>
		<path class="st2" d="M132.9,128.9c1.5,0.5,3,1.1,4.6,1.5c0.2,0.1,0.4,0.3,0.6,0.4c0.1,0.6-0.4,0.9-0.5,1.4c-0.1,0.1-0.3,0.1-0.5,0    c-0.4-0.4-0.3-1.5-1.2-1.3c-0.6,0.2-0.7,1-0.9,1.5c-0.2,0.7-0.7,1.4-0.7,2.2c0.2,0.4,0.5,0.6,0.8,1c0.1,0.1-0.1,0.3-0.2,0.4    c-0.5,0-0.8-0.3-1.2-0.4c-0.8-0.3-1.7-0.2-2.3-0.7c-0.1-0.1,0-0.2,0-0.3c0.3-0.1,0.7-0.2,1-0.4c0.7-0.8,0.8-1.9,1.3-2.8    c0.1-0.3,0.5-0.6,0.3-1c-0.3-0.2-0.6-0.3-0.9-0.4c-0.5,0.3-0.7,0.8-1.1,1.1c-0.1,0-0.4-0.1-0.4-0.2c0-0.8,0.3-1.5,0.6-2.1    C132.4,128.8,132.7,128.9,132.9,128.9L132.9,128.9z"/>
		<path class="st2" d="M145.4,131.5c-0.1,0.2,0.1,0.4,0.2,0.5c0.2,0.1,0.5,0.1,0.5,0.4c0.1,1.3,0.1,2.5-0.7,3.5    c-0.4,0.4-0.9,0.5-1.4,0.3c-1.2-0.7-0.4-2-0.6-3.1c0-0.4-0.2-1,0.2-1.3c0.1-0.1,0.3-0.1,0.4-0.3c0-0.1,0-0.2-0.2-0.3    c-0.7-0.1-1.6,0.2-2.3,0c-0.2,0-0.4,0.1-0.4,0.2c-0.1,0.2,0.1,0.4,0.2,0.4c0.3,0,0.4,0.2,0.5,0.5c0.4,1.6-0.4,3.2,0.5,4.6    c0.7,0.6,2.4,0.7,3.3,0.5c2-1,1-3.3,1.7-5c0.2-0.2,0.7-0.1,0.8-0.3c0.1-0.2,0.2-0.4,0.1-0.6c-0.7-0.2-1.5-0.1-2.2-0.1    C145.8,131.4,145.6,131.3,145.4,131.5L145.4,131.5z"/>
		<path class="st1" d="M159,132.8c-0.2-0.2-0.4-0.3-0.7-0.2c-0.4,0.1-0.4,0.5-0.5,0.7c-0.1,0.4-0.6,0.3-0.9,0.4    c-0.3-0.1-1.3-0.7-1.1-1c0.4-0.6,0.8-1.5,0.1-2.3c-0.6-1.3-2.3-1-3.3-0.6c-0.8,0.5-1.7,0.7-2.4,1.2c-0.1,0.2,0,0.4,0.2,0.6    c0.3,0.3,0.7-0.1,1-0.1c0.4,0.4,0.6,0.9,0.8,1.3c0.3,0.8,0.6,1.6,0.8,2.4c0.1,0.5-0.4,1,0,1.3c0.5-0.2,1-0.3,1.5-0.5    c0.5-0.3-0.4-1.5-0.3-1.9c0.1-0.1,0.2-0.2,0.4-0.2c0.4,0.2,1.6,0.9,2,0.9c1.2,0,2,0,2.5-1.2C159.1,133.4,159.3,133,159,132.8    L159,132.8z M154.7,132.5c-0.2,0.2-0.6,0.4-0.8,0.3c-0.3-0.2-1.2-1.9-0.7-2.1c0.6-0.1,1.3,0,1.7,0.6    C155,131.7,154.8,132.2,154.7,132.5L154.7,132.5z"/>
		<path class="st2" d="M127.2,58.6c0,0.9,0.6,1.3,0.3,2.1c-0.2,0.2-0.1,0.3-0.4,0.3c-0.1-0.1-0.3,0-0.4-0.1    c-0.1-0.4-0.4-0.8-0.8-0.9c-0.4,0-1.7,0.5-1.9,1c-0.1,0.3-0.1,0.6,0.1,0.9c1.1,1.1,2.5,0,3.6-0.1c0.5,0.1,0.9,0.3,1.3,0.6    c0.7,0.8,1.1,1.9,0.8,2.9c-0.6,1.1-1.6,2.3-3,2.2c-0.5,0.1-0.9-0.5-1.3-0.1c0,0.3,0.1,0.6-0.2,0.8c-0.2,0.1-0.5,0-0.7-0.1    c-0.3-0.4,0.1-0.9,0-1.3c-0.1-0.5-0.5-0.8,0.1-1.2c0.8-0.1,1.5,1,2.1,0.8c0.6-0.2,0.9-0.4,1.2-1c0.1-0.3,0.2-0.6,0-0.9    c-0.2-0.2-0.4-0.4-0.8-0.4c-0.8,0.1-1.3,0.8-2.1,0.7c-0.8-0.1-1.6-0.4-2.1-1.2c-0.4-0.7-0.8-1.5-0.5-2.3c0.3-0.7,0.9-1.4,1.6-1.7    c0.5-0.2,1.2-0.4,1.7-0.3c0.6-0.1,0.4-1.1,1.2-0.8L127.2,58.6L127.2,58.6z"/>
		<path class="st2" d="M167.9,61.6c0.3,0.3,0.3,0.9,0.9,1c0.3,0,0.7-0.1,0.8,0.3c-0.3,0.6-0.9,0.8-1.4,1.2l-0.6,0.5    c-0.1,0.1-0.3-0.1-0.3-0.2c-0.4-0.8,0.4-0.9-0.1-1.5c-0.2-0.3-0.5-0.7-0.9-0.8c-0.3,0-0.5,0.2-0.6,0.4c-0.5,0.9,0.2,1.6,0.5,2.4    c0.4,0.4,0.5,1,0.7,1.5c0.2,0.8-0.1,1.5-0.7,2c-0.9,0.6-1.7,0.8-2.8,0.5c-0.5-0.3-1.1-0.5-1.5-1l-0.6-0.9c-0.4-0.1-0.8,0-1.1-0.3    c-0.1-0.2,0-0.4,0.2-0.6l1.6-1.7c0.1-0.1,0.3-0.1,0.5,0c0.2,0.1,0.2,0.3,0.3,0.5c0,0.5-0.6,0.8-0.5,1.4c-0.1,0.7,0.6,1.1,1.1,1.4    c0.3,0.1,0.8,0.2,1.1,0c0.4-0.2,0.6-0.7,0.4-1.1c0-0.9-1.1-1.3-1.2-2.1c-0.1-0.7-0.4-1.7,0.1-2.3c0.7-1.1,2-1.3,3.2-1.1    C167.2,61,167.6,61.3,167.9,61.6L167.9,61.6z"/>
		<path class="st2" d="M117.1,64.1c0.1,0.7-0.6,1-0.1,1.6c0.6,1.1,1.9,1.9,2.4,3c0.3,0.4,0.5,0.9,1,1.1c0.5,0.3,1.2-0.5,1.4,0.2    c-0.2,0.6-1,0.8-1.4,1.2c-0.6,0.4-1.2,1-1.6,1.6c-0.1,0.1-0.4,0.2-0.6,0.1c-0.4-0.6,0.4-1.4,0.1-2.1c-0.2-0.5-0.7-0.9-0.9-1.3    c-0.7-1.1-1.7-2.2-2.9-2.9c-0.4-0.2-1,0.4-1.2-0.1c0-0.4,0.4-0.6,0.6-0.8c0.8-0.6,1.7-1,2.4-1.8C116.6,63.8,117,63.8,117.1,64.1    L117.1,64.1z"/>
		<path class="st2" d="M172.2,67.1c0.5,0.4,0.5,1.1,0.4,1.7c-0.1,0.7-0.7,1.1-1.3,1.2c-0.6,0-1.4,0-1.7-0.7    c-0.2-0.5-0.1-1.2,0.3-1.7c0.3-0.3,0.6-0.7,1-0.8C171.4,66.9,171.8,66.9,172.2,67.1L172.2,67.1z"/>
		<path class="st2" d="M110.6,69.9c0.1,0.2,0.1,0.5,0,0.7c-0.2,0.2-0.4,0.5-0.7,0.4c-0.2-0.1-0.6-0.5-0.8-0.3    c-0.2,0.2-0.7,1.2-0.5,1.3c0.2,0.2,0.8,0.5,1.1,0.4c1-0.1,2.3-1.3,3.4-0.9c0.6,0,2.5,0.4,2.5,2.3c0,0.6,0,1.2-0.2,1.7    c-0.4,0.8-1.1,1.8-2.1,2c-0.2,0-0.4-0.1-0.6,0c-0.3,0.3-0.1,0.8-0.5,1c-0.7,0.2-0.8-0.7-1.1-1.1c-0.2-0.5-0.4-0.8-0.5-1.4    c0-0.1,0.2-0.1,0.3-0.2c1.2-0.5,1.1,1.3,2.9-0.1c0.3-0.2,0.4-0.6,0.4-1c-0.3-0.4-0.1-1.3-1.3-1c-1.2,0.2-2.1,0.8-3.2,1    c-0.8,0.1-1.5-0.4-2.1-1c-0.4-0.7-0.5-1.7-0.1-2.4c0.4-0.5,1.3-2.3,1.7-2.1C109.7,69.3,110.2,69.5,110.6,69.9L110.6,69.9z"/>
		<path class="st2" d="M104.6,75.8c0.2,0.4-0.2,0.7-0.1,1.2c0.2,0.9,0.9,1.7,1.8,1.9c1.4,0.9,2.6,1.9,4.1,2.7    c0.1,0.1,0.1,0.3,0.1,0.4c-0.7,0.7-1.5,0.5-2.4,0.5c-1.5,0-3,0.1-4.3,0.6c0.4,0.4,0.8,0.9,1.4,1c0.5,0.6,1.2,0.9,2,0.8    c0.4,0,0.4-0.6,0.8-0.5c0.2,0.1,0.3,0.4,0.2,0.6c-0.7,1.1-1.1,2.3-1.7,3.5c-0.1,0.2-0.3,0.3-0.5,0.1c-0.4-0.3,0-0.8-0.1-1.2    c0-0.9-0.9-1.3-1.5-1.8c-1.1-0.7-2.3-1.3-3.6-1.3c-0.5,0-0.7,0.6-1.2,0.5c-0.3-0.2,0-0.6,0.1-0.9c0.4-0.8,0.8-1.4,1.8-1.6    c1.4-0.4,3.1-0.8,4.7-0.8c0.3,0,0.4-0.2,0.6-0.4c-0.6-0.6-1.3-1-2-1.4c-0.4-0.3-0.7-0.5-1.2-0.6c-0.3,0.1-0.5,0.5-0.9,0.3    c-0.2-0.1-0.4-0.2-0.4-0.5c0-0.3,0.3-0.4,0.3-0.6c0.5-0.9,0.6-2,1.5-2.6C104.2,75.6,104.4,75.7,104.6,75.8L104.6,75.8z"/>
		<path class="st2" d="M98.7,90.3c0.3,0.4,1.2,0.1,1.1,0.8c-0.3,0.4-1.2,0-1.6,0.2c-0.5,0.3-0.8,0.9-0.7,1.6c0,0.3,0.2,0.7,0.4,0.8    c0.4,0.1,1.3,0.5,1.6,0c0-0.3,0-1.5,0.1-1.6c0.4-0.1,0.4,0.1,0.8,0.1c0.4,0,1,0,0.9,0.2c-0.4,0.8-0.4,1.2-0.9,1.7    c0,0.1,0.1,0.1,0.2,0.2c0.9-0.1,1.8,0.5,2.6,0.6c0.2-0.6,0.2-1.6,0.3-2.2c0.1-0.9-1.5-1.3-1.2-2.3c0.2-0.3,0.5-0.3,0.7-0.2    c0.6,0.3,1.2,0.3,1.6,0.9c0.6,0.8,0.1,2.5-0.2,3.3c-0.5,1-0.6,3.9-0.7,4.1c-0.2,0.1-0.4,0.1-0.6,0c-0.7-0.5-0.1-1.9-1.7-2    c-1.4-0.1-2.7-0.6-4.1-1c-0.8-0.1-0.6,1.3-1.5,0.9c-0.6-0.8,0.8-5.1,1.1-6.3c0.1-0.2,0.1-0.2,0.3-0.2    C97.8,89.9,98.2,90.2,98.7,90.3L98.7,90.3z"/>
		<path class="st2" d="M95.9,102.9c1.2,0.3,2.7,0.1,3.9,0.3c0.8,0,1.7,0.2,2.2-0.5c0.1-0.2,0.2-0.5,0.4-0.6c0.2,0,0.5-0.1,0.7,0.1    l0.1,0.2c-0.1,1.2-0.2,2.3,0.1,3.4c0,0.3,0,0.6-0.3,0.8c-0.7,0.1-1-1.1-1.7-1.2c-1.3-0.4-2.7-0.2-4.1-0.2    c-0.9-0.1-1.3,0.6-1.9,1.2c-0.1,0.1-0.7,0-0.7-0.4c-0.1-1-0.3-1.7-0.1-2.9c0.1-0.4,0-0.9,0.5-1C95.5,102,95.4,102.7,95.9,102.9    L95.9,102.9z"/>
		<path class="st2" d="M103,110.2c0.3,0.1,0.7-0.1,0.8,0.3c-0.1,0.6,0.2,1,0.2,1.5c0.3,1.1,1.3,4.2,1.3,4.6    c-0.1,0.2-0.3,0.4-0.5,0.5c-1,0.1-0.4-0.9-1.5-0.7c-1.1,0.3-3.5,1-4.7,1c-0.2,0.1-0.4,0.1-0.5,0.3c0,0.3,0.1,0.7-0.3,0.8    c-0.4,0-0.6-0.4-0.8-0.6c-0.4-1-1.4-2-1-3.2c0.1-0.2,0.3-0.2,0.6-0.3c0.6,0,0.5,1,1.1,0.9c0.6-0.2,1.7-0.2,2.4-0.3    c0.8-0.5,3.1,0.1,2.9-1c-0.5-3.2-1.5-2.5-2.5-3.6c-0.3-0.3,0.3-0.3,0.5-0.4C101.8,109.8,102.4,110.1,103,110.2L103,110.2z"/>
		<path class="st2" d="M185.5,111.7c1.2,0.8,2.8,0.8,4.3,1.1c0.6,0.1,1.2,0.6,1.7,0.2c0.2-0.3,0.3-0.6,0.6-0.8    c0.3,0,0.6,0.1,0.6,0.4c-0.1,0.7-0.5,1.3-0.6,2c-0.5,1-0.8,2-0.9,3.2c-0.1,0.2-0.2,0.5-0.5,0.6c-0.8,0.1-1.4-0.1-2.1-0.2    c-0.2-0.1-0.5-0.6-0.3-0.6c1.7,0,2.5-2.3,2.4-2.5c-0.1-0.3-1.6-0.3-2.2-0.5c-0.4-0.1,0.3,1.3-0.5,1.5c-0.6,0.1-0.3-0.1-0.9-0.1    c-0.2-0.1-0.4-0.3-0.5-0.5c-0.1-0.3,0-0.6,0.2-0.7c0.1-0.1,0.2-0.1,0.3-0.3c0.1-0.3-0.3-0.4-0.5-0.5c-0.7-0.1-1.8-1-2.2-0.4    c-0.2,0.9-0.7,2,0.6,3.3c0.1,0.1,0,0.3-0.2,0.3l-0.4-0.1l-1.5-1c-0.3-0.3-0.1-0.8,0-1.2c0.3-1.1,0.6-2,1-3    c0.2-0.4,0.3-0.9,0.7-1.2C185.2,110.7,184.9,111.5,185.5,111.7L185.5,111.7z"/>
		<path class="st2" d="M181.9,120.4l0,0.6c0.9,1,2,1.7,3.2,2.1c0.9,0.7,1.8,1.2,2.8,1.7c0.3,0.2,0.5,0.4,0.3,0.8    c-0.9,1-2.6,0.6-3.9,0.6c-0.1-0.1-0.8-0.2-0.9-0.2c-0.2,0.2,0.3,0.9,0.4,1.1c0.5,1,1,1.6,1.5,2.6c0,0.2-0.1,0.3-0.2,0.5    c-0.9,0.1-1.6-0.6-2.4-1c-0.5-0.2-0.8-0.6-1.2-0.7c-0.9-0.3-2.1-1.5-3-0.9c-0.3,0.2-0.6,0-0.9-0.2c0-0.7,0.5-1.4,0.8-2    c0.4-0.2,0.2-1,0.8-0.7c0.6,0.3-0.1,1.1,0.6,1.2c0.6,0.3,3,1.4,3.5,2c0.2,0.1-2-2.9-2-3.6c0-0.3,4.1,0.3,4.1,0.1    c-0.1-0.3-2.4-1.3-2.6-1.4c-0.6,0-1.3-1-2.1,0.4c-0.1,0.2-0.5,0-0.6-0.2c0.1-0.3,0.3-0.5,0.4-0.8c0.4-0.7,0.2-1.8,1.1-2.2    C181.6,120,181.7,120.2,181.9,120.4L181.9,120.4z"/>
		<path class="st2" d="M176,131c0.3,0.8,1.3,1,1.9,1.6c1,0.7,1.6,2.2,2.9,2.2c0.5,0,1.1-0.3,1.3,0.1c0.2,0.7-0.6,0.7-0.9,1    c-0.5,0.6-1.1,1.1-1.6,1.7c-0.1,0.1-0.3,0.1-0.5,0c-0.2-0.3,0.3-0.8,0.1-1.1c-0.3-0.5-1.5-1.4-2-1.7c-0.9-0.7-1.2-1.5-2.3-1.9    c-0.6-0.2-1.2,0.7-1.6,0c0-0.9,0.9-1.3,1.3-2c0.4-0.3,0.6-0.8,1-1.1C176.1,130,175.8,130.7,176,131L176,131z"/>
		<path class="st2" d="M115.2,133.3c0.1,0.9,0.8,1.6,1.6,1.8c0.1,0.2-0.1,0.4-0.3,0.5c-0.4,0.2-0.9,0.1-1.4,0.2    c-0.4,0.4-0.5,0.2-1,0.4c-0.2,0.1-0.4,0-0.5-0.2v-0.2c0.4-0.3,0.6-0.4,0.7-0.9c0.1-0.8-0.7-1.5-1.3-1.9c-0.3-0.1-0.6-0.1-0.9,0.1    c-0.4,0.3-0.2,0.8,0,1.3c0.3,0.7,0.3,1.3,0.4,2.1c0,1-0.2,1.9-0.9,2.5c-0.6,0.3-1.2,0.7-2,0.5c-0.6,0-1.1-0.6-1.5-1    c-0.4-0.7-0.9-1.3-1.2-2c0-0.5,0.5-0.6,0.8-0.8l1.1-0.3c0.6,0.4-0.3,0.7-0.3,1.1c-0.1,0.6,0.2,1.1,0.7,1.4    c0.4,0.2,0.9,0.1,1.3-0.1c0.3-0.2,0.1-0.6,0.2-1c-0.2-1.3-1.1-2.5-0.7-4c0.1-0.5,0.4-1,0.9-1.3c1.3-0.5,2.7,0.1,3.7,0.9    C114.9,132.7,115.1,133,115.2,133.3L115.2,133.3z"/>
		<path class="st2" d="M162.5,141.5c-0.1,0.4-0.8,0.5-0.5,0.9c0.3,0.7,0.2,1.5,0.8,2.1c0.3,0.8,0.6,2.2,1.3,2.8    c0.4,0.5,0.9-0.1,1.4,0c0.2,0.1,0.3,0.4,0.3,0.6c-0.2,0.6-0.9,0.4-1.3,0.6c-1.3,0.5-2.8,1.1-4,1.6c-0.3,0.1-0.4,0.8-0.9,0.5    c-0.5-0.5-0.5-1.3-1-1.9c0-0.2-0.1-0.4,0.1-0.5c0.3-0.1,0.5,0.2,0.7,0.3c0.4,0,0.4,0.6,0.8,0.4c0.3-0.3,1.4-0.7,1.4-0.7l-0.6-1.7    c-0.2-0.2-0.4-0.2-0.6-0.2c-0.4,0.3-0.2,0.8-0.6,1c-0.2,0-0.3-0.2-0.4-0.4c-0.3-0.6-0.4-0.8-0.3-1.5c0.4-0.4,0.8,0.2,1.3,0.1    c0.2-0.1,0.1-0.4,0-0.6c-0.6-0.5-0.4-2.2-1.6-1.7c-0.5,0.2-1.2,0.4-1.4,1c-0.2,0.3-0.1,0.9-0.6,1c-0.2,0-0.4,0-0.4-0.2    c-0.1-0.4,0.1-0.6,0.2-0.9c0-0.3-0.3-0.9,0.1-1.1c1.2-0.5,2.5-0.7,3.7-1.2c0.4-0.2,1.3-0.9,1.8-0.6L162.5,141.5L162.5,141.5z"/>
		<path class="st1" d="M191.5,91.4c-0.1-0.2-0.3-0.4-0.6-0.4c-0.8,0.3-1.5-0.1-2.3-0.1c-0.3-0.1-3.2-0.2-4.3-0.7    c-1-0.5-1.2-1.3-1.2-1.3c-0.1-0.3-0.7-0.5-0.8-0.2c-0.1,0.4-0.1,1,0.2,1.5c0.3,0.7,0.4,1.2,0.7,1.9c0.1,0.2,0.3,0.3,0.5,0.2    c0.2,0,0.2-0.8,0.1-1c0.1-0.2,0.5,0.1,0.7,0.1c0.4,0,0.5,0.1,0.8,0.3c0.2,0.5,0.3,1.4,0.5,1.9c0,0.4,0.2,0.8,0.1,1.2    c-0.1,0.2-0.6,0.6-0.9,0.5c-0.4-0.1-0.5-0.7-0.9-0.7c-0.3,0.1-0.2,0.4-0.2,0.6c0.2,0.5,0.1,2.5,0.4,3c0.1,0.2,0.3,0.5,0.6,0.4    c0.9-0.6,0-0.6,0.8-1.3c0.9-0.7,4.1-3.6,4.7-3.9c0.3-0.1,0.9-0.8,1.1-1.1C191.5,92,191.6,91.7,191.5,91.4L191.5,91.4z M186.5,94    c-0.2,0-0.2-0.2-0.3-0.3l-0.3-2c0.5-0.4,2.4,0.2,3.2,0.2C189.7,91.9,187,93.6,186.5,94L186.5,94z"/>
		<path class="st1" d="M180.3,71.5c-0.1-0.3-0.4-0.3-0.7-0.3c-2,0.6-3.8,1.6-5.7,2.3c-0.6,0-1.3,0.1-1.8-0.2c-0.2,0-0.6-0.2-0.8,0    c-0.1,0.3,0,0.5,0.2,0.7c0.8,0.5,1.3,1.8,2.1,1.8c0.4,0-0.1-0.6,0.5-0.9c0.9-0.4,1.7,0.8,2.2,1.5c0.1,0.3,0,0.6-0.1,0.9    c-0.1,0.2-0.4,0-0.7,0c-0.2,0-0.4-0.3-0.6,0c0,0.1-0.1,0.4,0,0.5c0.7,0.3,1.1,1,1.5,1.6c0.3,0.2,0.5,0.9,0.8,0.7    c0.5-0.4,0.2-0.7,0.2-1.1c0.1-0.9,0.9-2,1.3-3.2C179,74.2,180.1,72.8,180.3,71.5L180.3,71.5z M176.9,75.1c-0.5,0-1-0.7-1.3-1.1    c0.3-0.4,1.8-1.1,2.1-1.3C178.2,72.6,177.2,74.9,176.9,75.1L176.9,75.1z"/>
		<path class="st1" d="M173.3,142.8c-0.4-1.5-0.9-3.1-1.1-4.7c-0.1-0.6-0.2-1.4-0.1-2c0.2-0.4,0.6-0.8,0.7-1.3    c-0.1-0.2-0.3-0.3-0.5-0.3c-0.5,0.5-1.1,0.8-1.7,1.1c-0.3,0.5-0.6,0.2-0.8,0.8c0.1,0.3,0.5,0.3,0.8,0.3c0.3,0.1,0.2,0.4,0.2,0.6    c-0.4,0.8-1.3,1.3-2,1.7c-0.2,0-0.4-0.1-0.5-0.3c-0.4-0.4-0.1-0.5-0.2-1c-0.1-0.1-0.2-0.2-0.4-0.2c-0.7,0.6-1.6,0.9-2.3,1.6    c-0.2,0.2-0.5,0.2-0.4,0.5c0.1,0.2,0.2,0.5,0.4,0.7c0.2,0.1,0.5,0.1,0.6,0c1.5-0.8,2.4,1.3,3.6,2c0.9,0.2,2.2,1.8,2.8,1.7    c0.5-0.1,0.8-0.2,1.2-0.6C173.7,143.3,173.4,143.1,173.3,142.8L173.3,142.8z M171.7,141.9c-0.4-0.1-1.7-1.7-2-1.8    c-0.1-0.1-0.2,0-0.3-0.2l0-0.2c0.3-0.3,1.5-1.5,1.8-0.6c0.1,0.4,0.6,2.1,0.7,2.5C172,141.8,171.9,141.9,171.7,141.9L171.7,141.9z"/>
		<path class="st1" d="M110.2,127.2c-0.4-0.8-0.9-2.4-1.4-2.4c-0.7,0,0,1.1-0.6,1.5c-0.3,0.2-0.6,0.2-0.9,0.1    c-0.7-0.3-0.7-0.6-1.1-1.5c-0.2-0.4-0.7-0.8-0.3-1.3c0.3-0.3,0.4-0.8,0.9-0.8c0.2,0,0.2,0.3,0.3,0.4c0.1,0.2,0.2,0.6,0.6,0.5    c0.1,0,0.3-0.1,0.3-0.3c-0.1-0.9-0.8-1.5-1.1-2.3c-0.4-0.4-0.2-1.3-1-1.4c-0.5,0.2-0.1,0.8-0.3,1.2c-0.6,0.7-1,1.5-1.7,2.2    c-0.6,0.7-1.2,1.6-1.9,2.3l-0.7,1.2c-0.1,0.3-0.4,0.8,0,0.9c2.2,0.2,4.1,0.1,6.1,0.1c0.8,0,1.8-0.2,2.4,0.5    c0.2,0.2,0.3,0.5,0.6,0.6c0.2,0.1,0.4,0.1,0.6-0.1C110.9,128,110.4,127.6,110.2,127.2L110.2,127.2z M105.2,126.5    c-0.6,0-1.5,0-2,0.1c-0.1-0.1,1.4-1.5,1.4-1.6c0.4-0.4,0.7,0.5,0.7,0.5s0.2,0.8,0.5,0.9C105.8,126.4,105.4,126.5,105.2,126.5    L105.2,126.5z"/>
		<path class="st2" d="M179.7,85c-0.4-0.8-0.6-1.4-0.6-1.9c0-0.5,0.4-1,0.5-1.5c0.2-0.6,0.8-1.1,1.3-1.5c0.5-0.4,1.1-0.7,1.8-0.9    c0.6,0,1.3-0.3,1.8-0.3c0.5,0,1,0.2,1.4,0.4c0.5,0.2,0.7,0.6,1.1,1c1.2,1.6,1.4,3.4,0.8,3.7l-0.2,0.1l-0.7,0.3    c-0.3,0.2-0.5,0.2-0.6,0.3c-0.1,0.1-0.2,0.1-0.3,0.1c-0.1,0-0.2,0-0.2,0c-0.1,0-0.1-0.1-0.1-0.1c0-0.1,0.1-0.2,0.3-0.5    c0.1-0.1,0.2-0.2,0.2-0.3c0.3-0.4,0.5-0.4,0.6-0.7c0.1-0.3,0-0.9,0-1.1c-0.1-0.6-0.5-1.1-1.1-1.3c-0.6-0.2-1.3-0.1-2.1,0.2    c-0.9,0.3-1.5,0.5-2,1.1c-0.5,0.5-0.7,1.3-0.4,2c0.1,0.3,0.1,0.4,0.3,0.5c0.1,0.4,1.2,1.8,1.5,1.7c0.3,0.2-0.2,0.6-0.2,0.6    C182.4,86.8,180.3,86.1,179.7,85L179.7,85z"/>
		<path class="st2" d="M129.3,150.7c-0.2-0.1-0.3-0.2-0.4-0.3c-0.1-0.1-0.1-0.2,0-0.3c0.1-0.2,0.7-0.2,0.7-0.2    c0.2,0,0.4-0.4,0.7-1.1c0.1-0.1,0.5-1.4,0.6-1.9c0-0.1,0.2-0.9,0.2-1c0.2-0.6,0-1-0.1-1.3c-0.1-0.3-0.4-0.6-0.9-0.8    c-0.6-0.2-0.8-0.1-1.2,0c-0.4,0.2-0.7,0.3-0.8,0.8c0,0.1-0.4,0.7-0.5,0.8l-1,1.9c-0.3,0.8-0.5,1.4-0.4,1.5c0,0.1,0.1,0.1,0.2,0.2    c0.2,0.2,0.4,0.5,0.3,0.6c0,0.1-0.1,0.2-0.2,0.2c-0.1,0-0.2,0-0.3,0l-2.2-0.9c-0.1-0.1-0.2-0.1-0.3-0.2c-0.1-0.1-0.1-0.2,0-0.3    c0.1-0.1,0.2-0.2,0.4-0.2c0,0,0.6,0.1,0.7,0.1c0.1,0,1.4-2.6,1.4-2.6c0-0.1,0.6-1.4,0.7-1.6c0.3-0.7,0.7-1.2,1.3-1.4    c0.6-0.2,1.3-0.2,2.2,0.2c1.1,0.4,1.8,0.8,2.2,1.4c0.4,0.6,0.5,2.5,0.3,3c-0.1,0.2-0.2,0.8-0.3,0.9l-0.3,1.6    c0,0.1-0.1,0.5-0.1,0.6c0,0.1-0.1,0.4-0.1,0.5c0,0.1,0.2,0.3,0.2,0.3c0.2,0.2,0.2,0.3,0.2,0.5c0,0.1-0.1,0.2-0.2,0.2    c-0.1,0-0.2,0-0.3,0L129.3,150.7L129.3,150.7z"/>
		<path class="st1" d="M199.2,99.3c-0.4-2.1-0.4-4.4-1.2-6.4c-0.6-3.4-1.8-6.5-2.9-9.6c-0.6-1.2-1-2.4-1.8-3.4    c-0.4-0.8-0.9-1.6-1.3-2.4c-0.9-1.1-1.3-2.5-2.1-3.6c-1.1-1.1-1.8-2.5-2.8-3.7c-0.9-1.3-2.2-2.4-3.2-3.7c-0.9-0.4-1.2-1.5-2.1-2    c-0.3-0.7-1.2-0.8-1.6-1.5c-1.1-1-2.1-2.1-3.3-3c-1.8-1.5-4-1.9-5.7-3.5l-1.5-0.7c-1.3-1-2.8-1.3-4.2-2.1    c-1.2-0.6-2.4-1.1-3.6-1.6c-1-0.3-1.9-0.8-2.9-0.9c-0.3,0-0.5-0.3-0.7-0.2c-2.4,0-4.4-0.9-6.6-1.2c-2-0.1-4-0.4-6-0.7    c-0.9,0.1-1.8-0.1-2.6,0.1c-1.6,0.1-3.2,0.1-4.8,0.4c-2.3,0.4-4.7,0.6-6.8,1.6c-2.3,0.8-4.6,1.6-6.9,2.4c-0.5,0.3-1,0.5-1.6,0.6    c-1.4,0.4-2.5,1.3-3.9,1.7c-1.5,0.9-3.1,1.3-4.4,2.5c-1.5,0.6-2.8,1.5-4.1,2.6c-1.5,0.7-2.9,1.9-4.2,3c-1.3,1.6-3,2.7-4.3,4.2    c-0.5,0.7-1.1,1.4-1.5,2.1c-0.7,0.8-1.3,1.6-1.9,2.5c-0.8,0.8-1.4,1.8-2,2.7c-0.7,1.3-1.6,2.6-2.3,3.9c-0.3,1-0.8,1.9-1.2,2.8    c-0.7,1.1-1.1,2.4-1.6,3.6c-0.4,1.3-1,2.6-1.3,4c-0.1,0.5-0.5,0.9-0.4,1.4c-0.4,1-0.5,2.2-0.7,3.3c-0.1,1.8-0.7,3.4-0.7,5.2    c0,1.5-0.1,3.1-0.1,4.6c0.1,2.5,0,5.1,0.3,7.6c0.2,1.1,0.1,2.2,0.5,3.2c0.7,2.8,1.3,5.7,2.4,8.4c0.5,2,1.5,3.8,2.2,5.7    c0.6,1,1.5,1.9,1.8,3.1c0.8,1.2,1.3,2.6,2.3,3.7c0.1,0.4,0.7,0.6,0.7,1.1c0.6,0.6,1,1.4,1.5,2.1c0.7,0.7,1.2,1.5,2,2.2    c0.2,0.6,0.9,1,1.2,1.5c0.6,0.6,1.4,1,1.8,1.7c1.1,0.4,1.8,1.5,2.8,2.3c2.4,2.1,5,3.9,7.8,5.3c1.2,0.5,2.4,1.3,3.6,1.8    c1.6,0.8,3.3,1.4,4.9,2.2c1.5,0.2,2.7,0.9,4.2,0.9c0.6,0,1,0.4,1.6,0.4c2,0.4,4,1,6,1.3c3.2,0.1,6.6,0.7,9.8,0.1    c4.4,0.1,8.5-0.6,12.4-1.7c1.8-0.7,3.7-1.1,5.6-1.8c2.2-1.2,4.6-1.9,6.7-3.1c0.6-0.2,1.1-0.7,1.6-0.8c1.6-0.8,3-2.1,4.5-3.1    c2.2-1.4,4.2-3,6.2-4.7c1.7-1.9,3.5-3.9,4.8-6c1.6-2,3.1-4.1,4.2-6.3c0.2-0.2,0.3-0.5,0.4-0.7c0.1-0.6,0.4-1,0.6-1.5    c0.5-1.7,1.6-3.1,2.1-4.8c0.4-0.9,0.6-1.9,0.9-2.9c0.6-1.7,1.2-3.5,1.6-5.3c0.6-3.3,1.3-6.6,1.6-10    C199.7,103.7,199.2,101.5,199.2,99.3L199.2,99.3z M197.7,108.1c-0.3,3-0.8,6-1.5,8.8c-0.2,2.2-1.5,3.7-1.9,5.8    c-0.5,1.2-0.7,2.8-1.5,3.9c-0.9,1.7-1.7,3.2-2.5,4.9c-1.1,2.1-5.7,9.6-10.2,12.4c-1.7,1.2-3.4,2.4-5,3.7L173,149    c-1.1,0.2-1.7,1.2-2.7,1.7c-0.7,0.5-1.5,0.7-2.2,1c-2.2,1.2-4.5,2.4-6.9,3c-1.8,0.8-3.9,1-5.7,1.8c-2.4,0.4-4.8,0.7-7.3,1    c-2.5,0-5,0.5-7.4,0.1c-1.4-0.4-3.1-0.3-4.6-0.3c-0.7,0.1-1.2-0.3-1.8-0.4c-1.7-0.3-3.2-0.9-5-1c-2-0.4-3.9-1.2-5.8-1.7    c-0.4-0.3-0.9-0.3-1.3-0.5c-1.9-1.2-4.1-1.8-6-3.1l-0.4-0.2c-1.5-1.2-3.1-2.1-4.6-3.1c-1.7-1.4-3.6-2.5-5.3-4.1    c-1.1-0.9-2-2.2-2.9-3.2c-0.8-0.6-1.4-1.5-2.1-2.2c-1.4-1.5-2.1-3.3-3.4-4.9c-1.1-1.5-1.6-3.1-2.5-4.7c-0.5-1.2-1.2-2.3-1.6-3.6    c-0.7-1.9-1.1-4-2-5.9c-0.3-1.3-0.8-2.6-0.9-4c-0.3-2.1-0.8-4.1-0.6-6.4c-0.2-1.2-0.3-2.7-0.1-3.9c-0.2-0.5,0-1,0.1-1.5    c-0.2-1,0.3-2,0-3c0-1.8,0.6-3.2,0.6-5.1c0.2-1.1,0.5-2.3,0.6-3.5c0.3-0.7,0.4-1.4,0.8-2c0.1-1.2,0.7-2.3,1-3.4    c0.5-1.4,1.1-2.7,1.8-3.9c0.8-1.4,1.4-2.8,2-4.3c1.1-1.5,1.8-3.1,3.2-4.5c0.7-1.3,1.7-2.5,2.7-3.6c0.4-1.1,1.6-1.8,2.4-2.7    c1.7-1.7,3.5-3,5.5-4.1c1.2-0.7,2.3-1.7,3.6-2.4c0.2-0.3,0.6-0.3,0.9-0.5c2-1.3,4.1-2.7,6.3-3.6c2.8-1.5,5.8-2.3,8.8-3.3    c1.1-0.2,2.2-0.5,3.2-0.9c1-0.1,1.8-0.4,2.7-0.6c0.9-0.2,2-0.2,2.8-0.6c2-0.3,4,0.2,6.1,0.2c0.8,0.1,1.6-0.2,2.4-0.1    c0.5,0,1,0,1.5-0.1c1.6,0,3.1,0.3,4.6,0.5c0.7,0.2,1.5,0.4,2.2,0.6c1,0,1.8,0.6,2.7,0.8c1,0.4,2,0.4,3,0.7c2.4,1,4.9,1.9,7.3,3    c1.7,1.3,3.7,1.8,5.4,3.3c1.4,0.9,2.8,1.9,4.1,2.9c0.7,0.4,1.2,1.2,1.8,1.7c0.9,0.9,1.8,1.7,2.6,2.5c0.8,0.7,1.4,1.5,2.2,2.1    c0.7,0.8,1.3,1.7,2,2.5c1.5,2,2.9,3.9,4,6c1.1,1.3,1.8,2.8,2.5,4.3c0.8,2.3,1.9,4.4,2.4,6.7c0.5,2,1.3,3.8,1.7,5.8    c0.3,1.6,0.5,3.4,0.6,5.1c0.2,1.4,0.3,3,0.1,4.4C198.1,105.4,198.1,106.8,197.7,108.1L197.7,108.1z"/>
		<path class="st1" d="M193,100.2c-0.6-0.9-0.7,0.5-0.9,0.8c-0.6,0.2-1.4,0.4-2.1,0.4c-1.4-0.3-2.4,0.3-3.8,0    c-0.2-0.1-0.7,0.2-0.8-0.2c-0.2-0.3-0.4-0.6-0.8-0.6c-0.1,0-0.2,0.1-0.2,0.2c0.3,1.1,0.2,2.7,0.3,3.8c0,0.7,1.4,2.7,1.9,3    c0.8,0.5,1.7,0.6,2.7,0.6c0.9,0,1.7-0.7,2.4-1.3l0.8-1c0.2-0.3,0.1-0.6,0.3-0.9c0.1-0.7,0.3-1.6,0.3-2.5    C193,101.8,193.2,100.9,193,100.2L193,100.2z M191.5,105.1c-1,1.4-2.9,1.1-4.3,0.9c-0.5-0.2-1-0.6-1.2-1.1c-0.1-0.3-0.2-1.1,0-1.3    c0.7-0.4,1.6-0.2,2.3-0.1c0.7,0.1,3-0.3,3.3,0C191.6,103.7,191.6,104.8,191.5,105.1L191.5,105.1z"/>
	</g>
	<rect class="st3" width="290.4" height="290.4"/>
</g>
</svg>