<?xml version="1.0" encoding="UTF-8" standalone="no"?>
<!-- Created with Inkscape (http://www.inkscape.org/) -->

<svg
   version="1.1"
   id="svg1"
   width="400"
   height="500"
   viewBox="0 0 400 500"
   xmlns:xlink="http://www.w3.org/1999/xlink"
   xmlns="http://www.w3.org/2000/svg"
   xmlns:svg="http://www.w3.org/2000/svg">
  <g>
    <g transform="translate(2.536545,4)">
      <path
         id="path13"
         d="m 0,0 c 0,-23.316 -18.901,-42.217 -42.217,-42.217 -23.316,0 -42.218,18.901 -42.218,42.217 0,23.316 18.902,42.217 42.218,42.217 C -18.901,42.217 0,23.316 0,0"
         style="fill:#ffffff;fill-opacity:1;fill-rule:nonzero;stroke:none;stroke-opacity:1"
         transform="matrix(1.3333333,0,0,-1.3333333,324.64695,149.0913)"
         clip-path="url(#clipPath14)" />
      <path
         id="path15"
         d="m 0,0 c 0,-17.083 -13.848,-30.931 -30.93,-30.931 -17.083,0 -30.931,13.848 -30.931,30.931 0,17.083 13.848,30.93 30.931,30.93 C -13.848,30.93 0,17.083 0,0"
         style="fill:#ffffff;fill-opacity:1;fill-rule:nonzero;stroke:none;stroke-opacity:1"
         transform="matrix(1.3333333,0,0,-1.3333333,153.96335,105.0861)"
         clip-path="url(#clipPath16)" />
      <path
         style="fill:#ffffff;fill-opacity:1;fill-rule:nonzero;stroke:none;stroke-opacity:1"
         d="m -73.100981,73.101706 c -8.607474,0 -16.862279,-1.499735 -24.531739,-4.231933 0.418,-2.244998 0.645996,-4.55739 0.645996,-6.921387 0,-20.812979 -16.931256,-37.7417 -37.740236,-37.7417 -2.435,0 -4.81407,0.241082 -7.12207,0.684082 -2.81361,-7.769615 -4.35352,-16.1498306 -4.35352,-24.89062596875 0,-40.37192003125 32.72865,-73.10156403125 73.101569,-73.10156403125 34.36421,0 63.1752783,23.719146 70.9936544,55.674318 -4.98799,-1.714998 -10.3320304,-2.658692 -15.8950204,-2.658692 -27.034946,0 -49.026856,21.9903752 -49.026856,49.028322 0,16.129554 7.828408,30.458874 19.88086,39.399903 -8.067199,3.065403 -16.810225,4.759277 -25.952638,4.759277 z M -141.84903,24.890768 c 0.0961,0.265388 0.19816,0.527089 0.29736,0.791015 -0.099,-0.263831 -0.2013,-0.525745 -0.29736,-0.791015 z m 44.21631,43.979005 c -0.479991,-0.170994 -0.955846,-0.34959 -1.431152,-0.530274 0.474967,0.180928 0.951339,0.359316 1.431152,0.530274 z"
         transform="matrix(1.3333333,0,0,-1.3333333,292.36055,187.68183)"
         id="path1" />
      <path
         id="path5"
         d="m 0,0 c 0,-6.779 -5.495,-12.274 -12.274,-12.274 -6.779,0 -12.275,5.495 -12.275,12.274 0,6.778 5.496,12.274 12.275,12.274 C -5.495,12.274 0,6.778 0,0"
         style="fill:#ffffff;fill-opacity:1;fill-rule:nonzero;stroke:none;stroke-opacity:1"
         transform="matrix(1.3333333,0,0,-1.3333333,80.931484,222.24823)"
         clip-path="url(#clipPath6)" />
      <path
         id="path7"
         d="m 0,0 c 0,-12.97 -10.514,-23.485 -23.485,-23.485 -12.97,0 -23.485,10.515 -23.485,23.485 0,12.971 10.515,23.485 23.485,23.485 C -10.514,23.485 0,12.971 0,0"
         style="fill:#ffffff;fill-opacity:1;fill-rule:nonzero;stroke:none;stroke-opacity:1"
         transform="matrix(1.3333333,0,0,-1.3333333,253.44908,37.551039)"
         clip-path="url(#clipPath8)" />
      <path
         id="path9"
         d="m 0,0 c 0,-6.183 -5.013,-11.195 -11.195,-11.195 -6.183,0 -11.195,5.012 -11.195,11.195 0,6.183 5.012,11.194 11.195,11.194 C -5.013,11.194 0,6.183 0,0"
         style="fill:#ffffff;fill-opacity:1;fill-rule:nonzero;stroke:none;stroke-opacity:1"
         transform="matrix(1.3333333,0,0,-1.3333333,365.18602,180.09717)"
         clip-path="url(#clipPath10)" />
    </g>
    <path
       style="fill:#ffffff;stroke:none;"
       d="m 54.033115,324.30539 12.805374,35.92458 13.790404,-37.48903 q 1.6224,-4.51955 3.186858,-6.37372 1.564457,-1.91211 4.751315,-1.91211 3.013029,0 5.098973,2.028 2.143886,2.028 2.143886,4.69337 0,1.04297 -0.4056,2.4336 -0.347657,1.39063 -0.869143,2.60743 -0.463543,1.2168 -1.100915,2.78126 l -15.181032,37.66286 q -0.637372,1.6224 -1.680343,4.11395 -0.985029,2.49154 -2.259772,4.28777 -1.216801,1.73828 -3.070972,2.72331 -1.796229,0.98503 -4.403659,0.98503 -3.360686,0 -5.388687,-1.50651 -1.970057,-1.56446 -2.955086,-3.36069 -0.927086,-1.85417 -3.186858,-7.24286 L 40.242712,329.40437 q -0.521486,-1.39063 -1.100915,-2.78126 -0.521486,-1.39063 -0.927086,-2.8392 -0.347657,-1.44857 -0.347657,-2.49155 0,-1.6224 0.985029,-3.18685 0.985029,-1.6224 2.723315,-2.60743 1.738286,-1.04297 3.766286,-1.04297 3.940116,0 5.388687,2.25977 1.506515,2.25977 3.302744,7.59051 z m 68.952025,-0.86914 v 45.71693 q 0,4.75131 -2.25977,7.18491 -2.25977,2.4336 -5.73635,2.4336 -3.47657,0 -5.6784,-2.49154 -2.14388,-2.49155 -2.14388,-7.12697 v -45.25339 q 0,-4.69337 2.14388,-7.06903 2.20183,-2.37565 5.6784,-2.37565 3.47658,0 5.73635,2.37565 2.25977,2.37566 2.25977,6.60549 z m -7.82229,-16.33989 q -3.30274,0 -5.6784,-2.028 -2.31771,-2.028 -2.31771,-5.73634 0,-3.36069 2.37565,-5.50458 2.4336,-2.20183 5.62046,-2.20183 3.07097,0 5.44663,1.97006 2.37566,1.97006 2.37566,5.73635 0,3.6504 -2.31772,5.73634 -2.31771,2.028 -5.50457,2.028 z m 67.15579,25.49486 -28.97144,32.39007 h 30.99944 q 3.76629,0 5.6784,1.79623 1.91212,1.73828 1.91212,4.51954 0,2.66537 -1.91212,4.34572 -1.85417,1.68034 -5.6784,1.68034 h -42.87772 q -4.51955,0 -6.77932,-1.97006 -2.20183,-1.97006 -2.20183,-5.38868 0,-2.028 1.56446,-4.05601 1.56446,-2.08594 6.4896,-7.59051 5.21486,-5.79429 9.44469,-10.48766 4.28777,-4.69337 7.93817,-8.74937 3.6504,-4.11395 6.02606,-6.95315 2.4336,-2.8392 3.88217,-4.8672 h -23.5248 q -4.8672,0 -7.35875,-0.86914 -2.49154,-0.86915 -2.49154,-4.57749 0,-2.72332 1.85417,-4.34572 1.91212,-1.6224 5.38869,-1.6224 h 36.33018 q 5.04103,0 7.7064,1.50652 2.72331,1.44857 2.72331,5.2728 0,1.27474 -0.52148,2.66537 -0.52149,1.33269 -1.15886,2.20183 -0.63737,0.86914 -1.73828,2.14389 -1.10092,1.2168 -2.72332,2.95508 z m 58.81201,37.25727 q -5.73634,4.4616 -11.12503,6.72137 -5.33074,2.20183 -11.99417,2.20183 -6.084,0 -10.71943,-2.37566 -4.57749,-2.4336 -7.06903,-6.54754 -2.49155,-4.11394 -2.49155,-8.9232 0,-6.4896 4.11395,-11.06709 4.11394,-4.57749 11.29886,-6.14195 1.50651,-0.34765 7.47463,-1.56445 5.96811,-1.2168 10.19794,-2.20183 4.28777,-1.04297 9.27086,-2.49155 -0.28971,-6.25783 -2.54948,-9.15497 -2.20183,-2.95509 -9.21292,-2.95509 -6.02606,0 -9.09703,1.68035 -3.01303,1.68034 -5.21486,5.04103 -2.14389,3.36068 -3.07097,4.4616 -0.86915,1.04297 -3.82423,1.04297 -2.66537,0 -4.63543,-1.68034 -1.91212,-1.73829 -1.91212,-4.40366 0,-4.17189 2.95509,-8.112 2.95509,-3.94012 9.21292,-6.4896 6.25783,-2.54949 15.58663,-2.54949 10.42972,0 16.39783,2.49154 5.96812,2.4336 8.40172,7.76435 2.49154,5.33074 2.49154,14.13806 0,5.56251 -0.0579,9.44469 0,3.88217 -0.0579,8.63348 0,4.4616 1.44857,9.32881 1.50651,4.80925 1.50651,6.19988 0,2.4336 -2.31771,4.4616 -2.25977,1.97006 -5.15692,1.97006 -2.4336,0 -4.80926,-2.25977 -2.37565,-2.31771 -5.04103,-6.66343 z m -1.04297,-22.88743 q -3.47657,1.27474 -10.14,2.72331 -6.60549,1.39063 -9.15497,2.08594 -2.54949,0.63738 -4.86721,2.60743 -2.31771,1.91212 -2.31771,5.38869 0,3.59246 2.72331,6.14194 2.72332,2.49155 7.12698,2.49155 4.69337,0 8.63349,-2.028 3.99805,-2.08595 5.85223,-5.33075 2.14388,-3.59245 2.14388,-11.82034 z m 44.61602,-46.99167 v 24.16217 q 4.4616,-4.63543 9.09703,-7.06903 4.63543,-2.49154 11.47269,-2.49154 7.88023,0 13.7904,3.76629 5.96812,3.70834 9.21292,10.83531 3.30275,7.06903 3.30275,16.80344 0,7.18491 -1.85418,13.21097 -1.79623,5.96812 -5.2728,10.37178 -3.47657,4.40365 -8.45966,6.83725 -4.92514,2.37566 -10.89326,2.37566 -3.6504,0 -6.8952,-0.86914 -3.18686,-0.86914 -5.44663,-2.25977 -2.25977,-1.44857 -3.88217,-2.95509 -1.56446,-1.50651 -4.17189,-4.51954 v 1.56445 q 0,4.46161 -2.14388,6.77932 -2.14389,2.25977 -5.44663,2.25977 -3.36069,0 -5.38869,-2.25977 -1.97006,-2.31771 -1.97006,-6.77932 v -69.0679 q 0,-4.80926 1.91212,-7.24286 1.97005,-2.49154 5.44663,-2.49154 3.6504,0 5.62045,2.37566 1.97006,2.31771 1.97006,6.66343 z m 0.75326,46.99167 q 0,9.44468 4.28777,14.54366 4.34572,5.04103 11.3568,5.04103 5.96812,0 10.25589,-5.15692 4.34572,-5.21486 4.34572,-14.89132 0,-6.25783 -1.79623,-10.77737 -1.79623,-4.51955 -5.09897,-6.95315 -3.30275,-2.49154 -7.70641,-2.49154 -4.51954,0 -8.05405,2.49154 -3.53452,2.4336 -5.56252,7.12698 -2.028,4.63543 -2.028,11.06709 z m 74.63041,-23.52481 v 45.71693 q 0,4.75131 -2.25977,7.18491 -2.25977,2.4336 -5.73634,2.4336 -3.47658,0 -5.6784,-2.49154 -2.14389,-2.49155 -2.14389,-7.12697 v -45.25339 q 0,-4.69337 2.14389,-7.06903 2.20182,-2.37565 5.6784,-2.37565 3.47657,0 5.73634,2.37565 2.25977,2.37566 2.25977,6.60549 z m -7.82228,-16.33989 q -3.30275,0 -5.67841,-2.028 -2.31771,-2.028 -2.31771,-5.73634 0,-3.36069 2.37566,-5.50458 2.4336,-2.20183 5.62046,-2.20183 3.07097,0 5.44663,1.97006 2.37565,1.97006 2.37565,5.73635 0,3.6504 -2.31771,5.73634 -2.31772,2.028 -5.50457,2.028 z"
       />
    <path
      style="fill:#ffffff;stroke:none;"
       d="m 77.180333,460.38832 c 0,1.97006 -0.598743,4.07532 -1.796229,6.31577 -1.158857,2.24046 -2.955086,4.38435 -5.388687,6.43166 -2.394972,2.00869 -5.427316,3.63109 -9.097031,4.8672 -3.669715,1.23612 -7.802973,1.85418 -12.399774,1.85418 -9.773031,0 -17.402175,-2.8392 -22.887434,-8.51761 -5.485259,-5.71703 -8.227888,-13.36548 -8.227888,-22.94537 0,-6.48961 1.255429,-12.22595 3.766287,-17.20904 2.510857,-4.98309 6.141944,-8.82663 10.89326,-11.53063 4.751315,-2.74263 10.429717,-4.11394 17.035204,-4.11394 4.094629,0 7.841602,0.59874 11.240917,1.79623 3.437943,1.19749 6.335087,2.74263 8.69143,4.63543 2.394972,1.8928 4.210515,3.9208 5.44663,6.084 1.274743,2.12457 1.912115,4.11394 1.912115,5.96811 0,1.8928 -0.714629,3.49589 -2.143886,4.80926 -1.390629,1.31337 -3.090287,1.97006 -5.098973,1.97006 -1.313372,0 -2.414287,-0.32834 -3.302744,-0.98503 -0.849829,-0.69531 -1.815543,-1.79623 -2.897143,-3.30274 -1.931429,-2.93577 -3.95943,-5.1376 -6.084002,-6.60549 -2.085943,-1.46789 -4.751315,-2.20183 -7.996116,-2.20183 -4.674058,0 -8.440345,1.83486 -11.29886,5.50457 -2.858515,3.63109 -4.287772,8.61417 -4.287772,14.94926 0,2.97441 0.366971,5.71704 1.100914,8.22789 0.733943,2.47223 1.796229,4.59681 3.186858,6.37372 1.390629,1.73829 3.070973,3.07097 5.04103,3.99806 1.970057,0.88845 4.133258,1.33268 6.489602,1.33268 3.167543,0 5.871544,-0.73394 8.112002,-2.20183 2.279086,-1.46789 4.287772,-3.70834 6.026058,-6.72137 0.965715,-1.77691 2.008686,-3.16754 3.128915,-4.17189 1.120229,-1.00434 2.491543,-1.50651 4.113944,-1.50651 1.931429,0 3.534515,0.73394 4.809258,2.20183 1.274743,1.46789 1.912115,3.03234 1.912115,4.69337 z M 103.48639,401.75014 V 425.217 c 2.00869,-2.31771 3.95943,-4.15257 5.85223,-5.50457 1.93143,-1.35201 4.056,-2.35635 6.37372,-3.01303 2.31771,-0.69532 4.80926,-1.04298 7.47463,-1.04298 4.01737,0 7.57119,0.84983 10.66148,2.54949 3.12892,1.69966 5.58184,4.17189 7.35875,7.41669 1.12023,1.8928 1.87348,4.01737 2.25977,6.37371 0.38629,2.31772 0.57943,5.00241 0.57943,8.05406 v 30.30412 c 0,3.16755 -0.73394,5.56252 -2.20183,7.18492 -1.42926,1.6224 -3.34137,2.4336 -5.73634,2.4336 -5.21486,0 -7.82229,-3.20617 -7.82229,-9.61852 v -26.71166 c 0,-5.06035 -0.75326,-8.94252 -2.25977,-11.64652 -1.50652,-2.74263 -4.36504,-4.11394 -8.57555,-4.11394 -2.81989,0 -5.36937,0.8112 -7.64846,2.4336 -2.24045,1.58377 -3.9208,3.76629 -5.04103,6.54754 -0.84983,2.35635 -1.27474,6.54755 -1.27474,12.57361 v 20.91737 c 0,3.12892 -0.71463,5.52389 -2.14389,7.18492 -1.39063,1.6224 -3.34136,2.4336 -5.852221,2.4336 -5.214859,0 -7.822288,-3.20617 -7.822288,-9.61852 v -68.60435 c 0,-3.20617 0.676,-5.60115 2.028001,-7.18492 1.390629,-1.6224 3.322058,-2.4336 5.794287,-2.4336 2.510861,0 4.461591,0.8112 5.852221,2.4336 1.42926,1.6224 2.14389,4.01737 2.14389,7.18492 z m 96.18517,69.29967 c -3.82423,2.9744 -7.53257,5.21486 -11.12503,6.72137 -3.55383,1.46789 -7.55188,2.20183 -11.99417,2.20183 -4.056,0 -7.62914,-0.79189 -10.71943,-2.37566 -3.05166,-1.6224 -5.408,-3.80491 -7.06903,-6.54754 -1.66103,-2.74263 -2.49155,-5.71703 -2.49155,-8.9232 0,-4.3264 1.37132,-8.01543 4.11395,-11.06709 2.74263,-3.05166 6.50891,-5.09898 11.29886,-6.14195 1.00434,-0.23177 3.49588,-0.75325 7.47463,-1.56445 3.97874,-0.8112 7.37805,-1.54514 10.19794,-2.20183 2.85851,-0.69531 5.9488,-1.52583 9.27086,-2.49155 -0.19314,-4.17189 -1.04297,-7.22354 -2.54948,-9.15497 -1.46789,-1.97006 -4.53886,-2.95509 -9.21292,-2.95509 -4.01737,0 -7.04972,0.56012 -9.09703,1.68035 -2.00869,1.12023 -3.74697,2.80057 -5.21486,5.04103 -1.42926,2.24045 -2.45292,3.72765 -3.07097,4.4616 -0.57943,0.69531 -1.85418,1.04297 -3.82423,1.04297 -1.77691,0 -3.32206,-0.56011 -4.63543,-1.68034 -1.27475,-1.15886 -1.91212,-2.62675 -1.91212,-4.40366 0,-2.78126 0.98503,-5.48526 2.95509,-8.112 1.97006,-2.62675 5.04103,-4.78995 9.21292,-6.48961 4.17189,-1.69965 9.36743,-2.54948 15.58663,-2.54948 6.95315,0 12.41909,0.83051 16.39783,2.49154 3.97875,1.6224 6.77932,4.21052 8.40172,7.76435 1.66103,3.55383 2.49154,8.26651 2.49154,14.13806 0,3.70834 -0.0193,6.85657 -0.0579,9.44468 0,2.58812 -0.0193,5.46595 -0.0579,8.63349 0,2.9744 0.48286,6.084 1.44857,9.32881 1.00434,3.20617 1.50651,5.27279 1.50651,6.19988 0,1.6224 -0.77257,3.1096 -2.31771,4.4616 -1.50652,1.31337 -3.22549,1.97006 -5.15692,1.97006 -1.6224,0 -3.22549,-0.75326 -4.80926,-2.25977 -1.58377,-1.54515 -3.26411,-3.76629 -5.04103,-6.66343 z m -1.04297,-22.88744 c -2.31771,0.84983 -5.69771,1.75761 -10.14,2.72332 -4.40366,0.92709 -7.45532,1.6224 -9.15497,2.08594 -1.69966,0.42491 -3.32206,1.29406 -4.86721,2.60743 -1.54514,1.27475 -2.31771,3.07098 -2.31771,5.38869 0,2.39497 0.90777,4.44229 2.72331,6.14194 1.81555,1.66103 4.19121,2.49155 7.12698,2.49155 3.12891,0 6.00674,-0.676 8.63349,-2.028 2.66537,-1.39063 4.61611,-3.16755 5.85223,-5.33075 1.42925,-2.39497 2.14388,-6.33509 2.14388,-11.82034 z m 47.28137,8.98115 v 13.21097 c 0,3.20617 -0.75326,5.62046 -2.25977,7.24286 -1.50651,1.58377 -3.41863,2.37566 -5.73634,2.37566 -2.27909,0 -4.15257,-0.8112 -5.62046,-2.4336 -1.46789,-1.6224 -2.20183,-4.01737 -2.20183,-7.18492 v -44.03658 c 0,-7.10766 2.5688,-10.66149 7.7064,-10.66149 2.62675,0 4.51955,0.83052 5.6784,2.49155 1.15886,1.66103 1.79623,4.11394 1.91212,7.35874 1.8928,-3.2448 3.82423,-5.69771 5.79429,-7.35874 2.00869,-1.66103 4.67406,-2.49155 7.99611,-2.49155 3.32206,0 6.54755,0.83052 9.67646,2.49155 3.12891,1.66103 4.69337,3.86285 4.69337,6.60548 0,1.93143 -0.676,3.53452 -2.028,4.80926 -1.31337,1.23611 -2.74262,1.85417 -4.28777,1.85417 -0.57943,0 -1.98937,-0.34766 -4.22983,-1.04297 -2.20183,-0.73394 -4.15257,-1.10091 -5.85223,-1.10091 -2.31771,0 -4.21051,0.61806 -5.6784,1.85417 -1.46789,1.19749 -2.60743,2.99372 -3.41863,5.38869 -0.8112,2.39497 -1.37131,5.25349 -1.68034,8.57554 -0.30903,3.28343 -0.46355,7.30081 -0.46355,12.05212 z m 38.58995,-40.09647 h 1.73829 v -9.50263 c 0,-2.54949 0.0579,-4.53886 0.17383,-5.96811 0.15451,-1.46789 0.5408,-2.72332 1.15886,-3.76629 0.61805,-1.0816 1.50651,-1.95074 2.66537,-2.60743 1.15885,-0.69531 2.45291,-1.04297 3.88217,-1.04297 2.00869,0 3.82423,0.75326 5.44663,2.25977 1.0816,1.00435 1.7576,2.24046 2.028,3.70834 0.30903,1.42926 0.46354,3.47658 0.46354,6.14195 v 10.77737 h 5.79429 c 2.24046,0 3.94012,0.5408 5.09897,1.6224 1.19749,1.04297 1.79623,2.39497 1.79623,4.056 0,2.12457 -0.84983,3.61178 -2.54948,4.46161 -1.66103,0.84983 -4.05601,1.27474 -7.18492,1.27474 h -2.95509 v 29.08732 c 0,2.47223 0.0773,4.38434 0.23178,5.73634 0.19314,1.31337 0.65668,2.39497 1.39062,3.2448 0.77257,0.81121 2.00869,1.21681 3.70835,1.21681 0.92709,0 2.18251,-0.15452 3.76628,-0.46355 1.58377,-0.34765 2.81989,-0.52148 3.70835,-0.52148 1.27474,0 2.41428,0.52148 3.41863,1.56445 1.04297,1.00435 1.56446,2.25978 1.56446,3.76629 0,2.54949 -1.39063,4.50023 -4.17189,5.85223 -2.78126,1.352 -6.77932,2.028 -11.99418,2.028 -4.94445,0 -8.69142,-0.83051 -11.24091,-2.49154 -2.54949,-1.66103 -4.22983,-3.95943 -5.04103,-6.8952 -0.77257,-2.93577 -1.15886,-6.85658 -1.15886,-11.76241 V 428.4618 h -2.08594 c -2.27909,0 -4.01737,-0.5408 -5.21486,-1.6224 -1.19749,-1.0816 -1.79623,-2.45292 -1.79623,-4.11395 0,-1.66103 0.61806,-3.01303 1.85417,-4.056 1.27475,-1.0816 3.1096,-1.6224 5.50457,-1.6224 z m 96.07122,42.24036 c 0,4.36503 -1.06229,8.112 -3.18686,11.24091 -2.12457,3.09029 -5.2728,5.44663 -9.44469,7.06903 -4.13325,1.58377 -9.17428,2.37566 -15.12309,2.37566 -5.6784,0 -10.5456,-0.86914 -14.6016,-2.60743 -4.056,-1.73829 -7.04971,-3.90149 -8.98114,-6.4896 -1.93143,-2.62675 -2.89715,-5.25349 -2.89715,-7.88023 0,-1.73829 0.61806,-3.22549 1.85417,-4.4616 1.23612,-1.23611 2.80058,-1.85417 4.69338,-1.85417 1.66103,0 2.93577,0.4056 3.82423,1.2168 0.88845,0.8112 1.73828,1.95074 2.54948,3.41863 1.6224,2.81989 3.55383,4.92514 5.79429,6.31577 2.27909,1.39063 5.36937,2.08594 9.27086,2.08594 3.16754,0 5.75565,-0.69531 7.76434,-2.08594 2.04732,-1.42926 3.07098,-3.05166 3.07098,-4.8672 0,-2.78126 -1.06229,-4.80926 -3.18686,-6.084 -2.08595,-1.27475 -5.54321,-2.49155 -10.37178,-3.6504 -5.44663,-1.352 -9.88891,-2.76194 -13.32686,-4.22983 -3.39931,-1.50652 -6.12263,-3.47658 -8.16994,-5.91018 -2.04731,-2.4336 -3.07097,-5.42731 -3.07097,-8.98114 0,-3.16755 0.9464,-6.16126 2.8392,-8.98115 1.8928,-2.81989 4.67406,-5.06034 8.34377,-6.72137 3.70835,-1.69966 8.16995,-2.54949 13.3848,-2.54949 4.09463,0 7.76435,0.42492 11.00915,1.27475 3.28343,0.84983 6.00674,1.98937 8.16994,3.41863 2.20183,1.42925 3.86286,3.01302 4.98309,4.75131 1.15886,1.73829 1.73829,3.43794 1.73829,5.09897 0,1.81555 -0.61806,3.30275 -1.85417,4.46161 -1.19749,1.15885 -2.91646,1.73828 -5.15692,1.73828 -1.6224,0 -3.01303,-0.46354 -4.17189,-1.39063 -1.12023,-0.92709 -2.41428,-2.31771 -3.88217,-4.17188 -1.19749,-1.54515 -2.60743,-2.78126 -4.22983,-3.70835 -1.6224,-0.92709 -3.82423,-1.39063 -6.60549,-1.39063 -2.85851,0 -5.23417,0.61806 -7.12697,1.85418 -1.8928,1.19748 -2.8392,2.70399 -2.8392,4.51954 0,1.66103 0.69531,3.03234 2.08594,4.11394 1.39063,1.04297 3.26412,1.91212 5.62046,2.60743 2.35635,0.69531 5.60115,1.54514 9.7344,2.54949 4.90583,1.19749 8.90389,2.62674 11.99418,4.28777 3.12891,1.66103 5.48526,3.63108 7.06903,5.91017 1.6224,2.24046 2.4336,4.80926 2.4336,7.70641 z"
       />
  </g>
</svg>
